/* XPM */
static char * blue_portal_closed_xpm[] = {
"32 32 15 1",
" 	c None",
".	c #000000",
"+	c #000000",
"@	c #202020",
"#	c #2D2413",
"$	c #303030",
"%	c #404040",
"&	c #43361D",
"*	c #505050",
"=	c #594827",
"-	c #6F5A31",
";	c #707070",
">	c #808080",
",	c #909090",
"'	c #A0A0A0",
"                                ",
"              ++++              ",
"           +++*@*;+++           ",
"         ++*;;;@>>;;*++         ",
"       ++;@;>,;@;;>$@;$++       ",
"      +'';@';**@%%$@>';*$+      ",
"     +@,,;*@%@@@@@@**>;;*$+     ",
"    +>;@;*%@@++++++@@**;%@*+    ",
"    +',;@@@++      ++@@*@;;+    ",
"   +;,;*@++          ++@*>;*+   ",
"   +;;*@+              +@>*$+   ",
"   +@@$@+              +@'*$+   ",
"   +*>*@+              +@>*$+   ",
"   +*,*@+              +@;*$+   ",
"   +>;%@+              +@$@@+   ",
"   +$-%@+              +@>-*+   ",
"   +%=%@+              +@'=*+   ",
"   +@&$@+              +@>&$+   ",
"   +;=*@+              +@*=$+   ",
"   +'&*@+              +@$&@+   ",
"   +,#*@+              +@;#@+   ",
"   +>;%@+              +@;%$+   ",
"   +@@%@+              +@$$@+   ",
"   +'>@@+              +@@@$+   ",
"   +>;*@+              +@';$+   ",
"   +;;*@+              +@,;$+   ",
"   +**%@+              +@$$@+   ",
"   +@@$@+              +@';*+   ",
"   +';*@+              +@,;*+   ",
"   +>;*@+              +@>;%+   ",
"   +**%@+              +@*%%+   ",
"   ++++++              ++++++   "};
