/* XPM */
static char * blue_boss_xpm[] = {
"64 64 541 2",
"  	c None",
". 	c #000000",
"+ 	c #00006D",
"@ 	c #000086",
"# 	c #000085",
"$ 	c #00006B",
"% 	c #000088",
"& 	c #000069",
"* 	c #0000C9",
"= 	c #0000C8",
"- 	c #000067",
"; 	c #00008C",
"> 	c #000087",
", 	c #00007F",
"' 	c #000074",
") 	c #000056",
"! 	c #00008F",
"~ 	c #0000DF",
"{ 	c #0000E2",
"] 	c #00009D",
"^ 	c #00008B",
"/ 	c #0000C5",
"( 	c #0000CE",
"_ 	c #0000A9",
": 	c #000073",
"< 	c #0000DE",
"[ 	c #0000D8",
"} 	c #0000CB",
"| 	c #0000B0",
"1 	c #00008E",
"2 	c #0000E0",
"3 	c #0000E9",
"4 	c #0000B5",
"5 	c #00008A",
"6 	c #0000CD",
"7 	c #0000D2",
"8 	c #0000B8",
"9 	c #0000A6",
"0 	c #0000E1",
"a 	c #001FFA",
"b 	c #0039FE",
"c 	c #0039F8",
"d 	c #0021E9",
"e 	c #0000A7",
"f 	c #00008D",
"g 	c #000081",
"h 	c #000066",
"i 	c #000043",
"j 	c #000025",
"k 	c #000079",
"l 	c #0000C3",
"m 	c #0000CA",
"n 	c #0000AC",
"o 	c #00007D",
"p 	c #0000D6",
"q 	c #0000BE",
"r 	c #0000AD",
"s 	c #0000E8",
"t 	c #003BF0",
"u 	c #0060FB",
"v 	c #0060F9",
"w 	c #003BEA",
"x 	c #000078",
"y 	c #000047",
"z 	c #000046",
"A 	c #0000D7",
"B 	c #0000AB",
"C 	c #000090",
"D 	c #00009A",
"E 	c #000083",
"F 	c #001EF9",
"G 	c #0039F0",
"H 	c #0059EF",
"I 	c #0074F9",
"J 	c #006FF7",
"K 	c #0044E9",
"L 	c #0000E6",
"M 	c #0000F1",
"N 	c #0000F8",
"O 	c #0000A2",
"P 	c #000075",
"Q 	c #000022",
"R 	c #00007A",
"S 	c #0000A8",
"T 	c #004D92",
"U 	c #007C9B",
"V 	c #007C93",
"W 	c #004D76",
"X 	c #00005F",
"Y 	c #0075FA",
"Z 	c #007DFD",
"` 	c #0070F7",
" .	c #0000E3",
"..	c #0000E7",
"+.	c #0000EA",
"@.	c #0000E5",
"#.	c #0000D9",
"$.	c #0000A1",
"%.	c #000080",
"&.	c #00006A",
"*.	c #007C8F",
"=.	c #00C3C9",
"-.	c #00C3CA",
";.	c #007C92",
">.	c #00005C",
",.	c #0043F9",
"'.	c #006FFE",
").	c #0081FF",
"!.	c #0043E9",
"~.	c #0021E2",
"{.	c #0038E6",
"].	c #0039E7",
"^.	c #0021E3",
"/.	c #0000DA",
"(.	c #0000D0",
"_.	c #000076",
":.	c #007C7D",
"<.	c #00C3C6",
"[.	c #00C3CB",
"}.	c #00005D",
"|.	c #0043EF",
"1.	c #0070FA",
"2.	c #003BE7",
"3.	c #0060F1",
"4.	c #003BE6",
"5.	c #0000CF",
"6.	c #004D56",
"7.	c #007C8C",
"8.	c #004D77",
"9.	c #0000F7",
"0.	c #006FF6",
"a.	c #0044E4",
"b.	c #0021D7",
"c.	c #0038D4",
"d.	c #0039D5",
"e.	c #0020D7",
"f.	c #000024",
"g.	c #000045",
"h.	c #000071",
"i.	c #00005E",
"j.	c #0043E8",
"k.	c #006EF7",
"l.	c #0045E9",
"m.	c #006FF2",
"n.	c #0045D9",
"o.	c #003BD5",
"p.	c #0060E6",
"q.	c #0060E7",
"r.	c #000095",
"s.	c #00009C",
"t.	c #00007B",
"u.	c #0040E6",
"v.	c #006CF1",
"w.	c #0079F8",
"x.	c #0073F8",
"y.	c #005FF1",
"z.	c #0041E7",
"A.	c #006BF1",
"B.	c #006BEA",
"C.	c #0042D1",
"D.	c #0070EC",
"E.	c #0053D7",
"F.	c #0032CE",
"G.	c #0019D3",
"H.	c #0000BF",
"I.	c #00009E",
"J.	c #000068",
"K.	c #000094",
"L.	c #003DE2",
"M.	c #0065E6",
"N.	c #006AE9",
"O.	c #0054E9",
"P.	c #001FE2",
"Q.	c #003EE3",
"R.	c #0064DE",
"S.	c #003ECB",
"T.	c #003DCC",
"U.	c #0065DF",
"V.	c #0071E5",
"W.	c #0067DD",
"X.	c #0054D4",
"Y.	c #0031CD",
"Z.	c #0000BB",
"`.	c #000072",
" +	c #000098",
".+	c #0019F2",
"++	c #0031E8",
"@+	c #004DE0",
"#+	c #0065E0",
"$+	c #0061E0",
"%+	c #003BE0",
"&+	c #001FE3",
"*+	c #0053E7",
"=+	c #0067E2",
"-+	c #0060D5",
";+	c #003BBF",
">+	c #003BC0",
",+	c #0061D5",
"'+	c #006DDE",
")+	c #0066DA",
"!+	c #0054D7",
"~+	c #0031D5",
"{+	c #0000D1",
"]+	c #0000B7",
"^+	c #000084",
"/+	c #0000AF",
"(+	c #0000C0",
"_+	c #0031E6",
":+	c #0054E3",
"<+	c #0066E0",
"[+	c #006DE0",
"}+	c #0060DF",
"|+	c #0039E0",
"1+	c #0060F2",
"2+	c #0070F2",
"3+	c #0070E6",
"4+	c #0060CF",
"5+	c #003AAC",
"6+	c #003BAC",
"7+	c #0065DA",
"8+	c #004ED0",
"9+	c #0032D5",
"0+	c #001AE7",
"a+	c #0000DD",
"b+	c #0000B1",
"c+	c #000091",
"d+	c #0000BA",
"e+	c #0000C1",
"f+	c #0061E1",
"g+	c #0071E0",
"h+	c #0060DE",
"i+	c #003ADA",
"j+	c #0043E4",
"k+	c #007DF8",
"l+	c #0075E9",
"m+	c #0061CC",
"n+	c #003AA0",
"o+	c #00329D",
"p+	c #0053C5",
"q+	c #0054D6",
"r+	c #0000DC",
"s+	c #0000A5",
"t+	c #0000C7",
"u+	c #003AE0",
"v+	c #0062E1",
"w+	c #0060DA",
"x+	c #003ACF",
"y+	c #0044D9",
"z+	c #003A9F",
"A+	c #001C96",
"B+	c #0030B8",
"C+	c #0000C4",
"D+	c #0000D4",
"E+	c #000059",
"F+	c #00199D",
"G+	c #0031CB",
"H+	c #0065E1",
"I+	c #0061D8",
"J+	c #003AC9",
"K+	c #0041D1",
"L+	c #007AF2",
"M+	c #0074E7",
"N+	c #0062CC",
"O+	c #0000F5",
"P+	c #0000F0",
"Q+	c #0000B4",
"R+	c #0000C2",
"S+	c #0031CC",
"T+	c #0054DA",
"U+	c #0070E0",
"V+	c #0060D8",
"W+	c #003DCB",
"X+	c #0064DF",
"Y+	c #0072E3",
"Z+	c #0000FD",
"`+	c #0000ED",
" @	c #0000BD",
".@	c #0000C6",
"+@	c #0000B2",
"@@	c #0053D2",
"#@	c #0030C6",
"$@	c #0039C9",
"%@	c #006DDD",
"&@	c #0066D6",
"*@	c #0054BF",
"=@	c #00319A",
"-@	c #0000FC",
";@	c #0000B9",
">@	c #0000B6",
",@	c #000092",
"'@	c #003AE1",
")@	c #004DCF",
"!@	c #0019C2",
"~@	c #003BC9",
"{@	c #0065D6",
"]@	c #004DC1",
"^@	c #0031A6",
"/@	c #00198F",
"(@	c #0000AE",
"_@	c #0000A0",
":@	c #0000AA",
"<@	c #00007E",
"[@	c #0061DF",
"}@	c #0070DE",
"|@	c #006EDA",
"1@	c #005ED2",
"2@	c #0038C7",
"3@	c #004CCE",
"4@	c #0062D5",
"5@	c #005ECA",
"6@	c #0039AC",
"7@	c #0000F2",
"8@	c #000096",
"9@	c #00006E",
"0@	c #00006C",
"a@	c #003AD0",
"b@	c #0061DB",
"c@	c #0068D0",
"d@	c #0056C6",
"e@	c #0032C2",
"f@	c #0030C7",
"g@	c #0063D5",
"h@	c #0064CD",
"i@	c #0057BB",
"j@	c #00329C",
"k@	c #000093",
"l@	c #0000EE",
"m@	c #0000D3",
"n@	c #000082",
"o@	c #00006F",
"p@	c #000064",
"q@	c #003ACA",
"r@	c #0061D9",
"s@	c #006DD9",
"t@	c #0065CA",
"u@	c #0052C0",
"v@	c #0030C0",
"w@	c #006CD7",
"x@	c #0062C4",
"y@	c #0050AB",
"z@	c #002E90",
"A@	c #000099",
"B@	c #006CD8",
"C@	c #0065C9",
"D@	c #0052BF",
"E@	c #003BCA",
"F@	c #006AD4",
"G@	c #005DBA",
"H@	c #00499E",
"I@	c #00298B",
"J@	c #0000DB",
"K@	c #0000A3",
"L@	c #000062",
"M@	c #0038C2",
"N@	c #005ED1",
"O@	c #0069D1",
"P@	c #0061C2",
"Q@	c #004FB8",
"R@	c #002EB8",
"S@	c #005DD1",
"T@	c #0066CC",
"U@	c #0059B1",
"V@	c #00459B",
"W@	c #002796",
"X@	c #000060",
"Y@	c #0000BC",
"Z@	c #00005A",
"`@	c #0034B2",
" #	c #0057C2",
".#	c #0061C1",
"+#	c #005AB2",
"@#	c #0048A9",
"##	c #002AA9",
"$#	c #0034B3",
"%#	c #0057C1",
"&#	c #0060BF",
"*#	c #0056AC",
"=#	c #0045A4",
"-#	c #0027AD",
";#	c #0000EF",
">#	c #000070",
",#	c #00004D",
"'#	c #000055",
")#	c #002FA8",
"!#	c #0050B3",
"~#	c #005AB3",
"{#	c #0054A8",
"]#	c #0045A0",
"^#	c #0028A0",
"/#	c #0045AB",
"(#	c #0028BF",
"_#	c #0000F3",
":#	c #0000B3",
"<#	c #000041",
"[#	c #002AA2",
"}#	c #0049A7",
"|#	c #0054A6",
"1#	c #0051A2",
"2#	c #0044A0",
"3#	c #0027A0",
"4#	c #0048A6",
"5#	c #0052A2",
"6#	c #0045B1",
"7#	c #0028CC",
"8#	c #0000E4",
"9#	c #0000F6",
"0#	c #000054",
"a#	c #000051",
"b#	c #002191",
"c#	c #003B9C",
"d#	c #004591",
"e#	c #003A8B",
"f#	c #00218B",
"g#	c #003B9B",
"h#	c #00459A",
"i#	c #004592",
"j#	c #003BAA",
"k#	c #0021D5",
"l#	c #0000EB",
"m#	c #0000A4",
"n#	c #00003D",
"o#	c #000052",
"p#	c #001070",
"q#	c #002891",
"r#	c #002870",
"s#	c #002154",
"t#	c #001154",
"u#	c #00288F",
"v#	c #002198",
"w#	c #0011DC",
"x#	c #00004E",
"y#	c #000053",
"z#	c #00007C",
"A#	c #00004B",
"B#	c #000040",
"C#	c #00002E",
"D#	c #00003E",
"E#	c #000029",
"F#	c #00003F",
"G#	c #00002D",
"H#	c #00009F",
"I#	c #0000F4",
"J#	c #0000D5",
"K#	c #0022BF",
"L#	c #003BA1",
"M#	c #003B8A",
"N#	c #002282",
"O#	c #003BB5",
"P#	c #0060D1",
"Q#	c #0060CC",
"R#	c #003BA5",
"S#	c #0060D2",
"T#	c #003BAF",
"U#	c #00009B",
"V#	c #00228D",
"W#	c #003BA3",
"X#	c #003BB0",
"Y#	c #0022B2",
"Z#	c #0022E2",
"`#	c #003AE8",
" $	c #003AD2",
".$	c #00209A",
"+$	c #000097",
"@$	c #003BB2",
"#$	c #0060E2",
"$$	c #0060DB",
"%$	c #003B93",
"&$	c #004187",
"*$	c #0063C8",
"=$	c #0066CD",
"-$	c #0053A9",
";$	c #003B92",
">$	c #00209B",
",$	c #000063",
"'$	c #003162",
")$	c #004186",
"!$	c #0053A7",
"~$	c #003164",
"{$	c #003BA9",
"]$	c #0022CF",
"^$	c #000089",
"/$	c #000042",
"($	c #000028",
"_$	c #000058",
":$	c #000CAD",
"<$	c #001A91",
"[$	c #00196F",
"}$	c #00093F",
"|$	c #000001",
"1$	c #001AA0",
"2$	c #002F8C",
"3$	c #002F6F",
"4$	c #001A42",
"5$	c #000003",
"6$	c #001990",
"7$	c #002F7B",
"8$	c #00366E",
"9$	c #00336A",
"0$	c #002A5B",
"a$	c #001636",
"b$	c #00003C",
"c$	c #00097A",
"d$	c #001A5C",
"e$	c #00336B",
"f$	c #004A95",
"g$	c #004792",
"h$	c #00346D",
"i$	c #003A89",
"j$	c #002184",
"k$	c #00219D",
"l$	c #003AC2",
"m$	c #000039",
"n$	c #004892",
"o$	c #004188",
"p$	c #005FCA",
"q$	c #003AA2",
"r$	c #003BA8",
"s$	c #000037",
"t$	c #00001B",
"u$	c #001737",
"v$	c #004085",
"w$	c #0068D2",
"x$	c #0068D8",
"y$	c #0040A1",
"z$	c #0069D9",
"A$	c #000034",
"B$	c #003875",
"C$	c #005CB9",
"D$	c #005BBB",
"E$	c #003881",
"F$	c #005BBA",
"G$	c #005CBB",
"H$	c #000013",
"I$	c #003065",
"J$	c #004A96",
"K$	c #004791",
"L$	c #00244F",
"M$	c #002E61",
"N$	c #002857",
"O$	c #001634",
"P$	c #002958",
"                                          . . . . . . . .             . . . . . . . .                                           ",
"                  . . . .                 + @ # $ + % % & . . . . . . & % % + $ # @ +                 . . . .                   ",
"                . . . . . .             . % * = % % = * % . . . . . . % * = % % = * % .             . . . . . .                 ",
"              - @ ; ; > , ' ) . . . . . . ! ~ { ] ^ / ( _ # : & & : # _ ( / ^ ] { ~ ! . . . . . . ) ' , > ; ; @ -               ",
"            . @ = < ~ [ } | ' . . . . . . 1 2 3 4 5 ^ _ 6 7 8 9 9 8 7 6 _ ^ 5 4 3 2 1 . . . . . . ' | } [ ~ < = @ .             ",
"          - @ | 0 a b c d ( e f ^ g h i j k l [ m n o 1 * p q r r q p * 1 o n m [ l k j i h g ^ f e ( d c b a 0 | @ -           ",
"        . @ = 0 s t u v w 2 ~ ~ < 6 9 x y z k r [ A B C D D ; E E ; D D C B A [ r k z y x 9 6 < ~ ~ 2 w v u t s 0 = @ .         ",
"      . . 5 < F G H I J K L M N N 3 = O P i Q R l 6 S T U V W X X W V U T S 6 l R Q i P O = 3 N N M L K J I H G F < 5 . .       ",
"      . . ; ~ b u Y Z ` K  ...+.+.@.#.l $.x i y k %.&.*.=.-.;.>.>.;.-.=.*.&.%.k y i x $.l #.@.+.+... .K ` Z Y u b ~ ; . .       ",
"      h @ | 0 ,.'.).).J !.~.{.].^.< /.(.q O _.y Q . . :.<.[.V }.}.V [.<.:.. . Q y _.O q (./.< ^.].{.~.!.J ).).'.,.0 | @ h       ",
"    . @ * 0 ..|.1.).).J !.2.3.3.4./.5.6 (.l O x i . . 6.7.V 8.X X 8.V 7.6.. . i x O l (.6 5./.4.3.3.2.!.J ).).1.|...0 * @ .     ",
"  . . ; < 9.+.!.J ).).J !.K J 0.a.b.c.d.e.(.q O _.z f.g.h.R &.i.i.&.R h.g.f.z _.O q (.e.d.c.b.a.0.J K !.J ).).J !.+.9.< ; . .   ",
"  . . ; ~ N +.j.J ).).k.!.l.J m.n.o.p.q.o.6 (.l O x y }.r.s.t.X X t.s.r.}.y x O l (.6 o.q.p.o.n.m.J l.!.k.).).J j.+.N ~ ; . .   ",
"  . . ; < 9.+.u.v.w.x.y.{.z.A.B.C.C.B.D.E.F.G.(.H.I.J.$ $.n K.g g K.n $.$ J.I.H.(.G.F.E.D.B.C.C.B.A.z.{.y.x.w.v.u.+.9.< ; . .   ",
"  . . ; < 9.+.L.M.N.O.{.P.Q.M.R.S.T.U.V.W.X.Y.6 (.Z.# `. +B r r r r B  +`.# Z.(.6 Y.X.W.V.U.T.S.R.M.Q.P.{.O.N.M.L.+.9.< ; . .   ",
"  . . % [ .+++@+#+$+%+&+{.*+=+-+;+>+,+'+)+!+~+{+} ]+C ^+s./+Z.(+(+Z./+s.^+C ]+} {+~+!+)+'+,+>+;+-+=+*+{.&+%+$+#+@+++.+[ % . .   ",
"  . . , } _+:+<+[+}+|+{.1+2+3+4+5+6+4+7+8+9+0+a+b+c+c+I./+d+H.e+e+H.d+/+I.c+c+b+a+0+9+8+7+4+6+5+4+3+2+1+{.|+}+[+<+:+_+} , . .   ",
"  . . x l |+f+g+g+h+i+j+0.k+l+m+n+o+p+q+9+r++.#.O % s+d+/ t+l (+(+l t+/ d+s+% O #.+.r+9+q+p+o+n+m+l+k+0.j+i+h+g+g+f+|+l x . .   ",
"  . . R l u+v+g+g+w+x+y+m.k+l+m+z+A+B+~+0++.r+C+s+s+l D+A 7 t+(+(+t+7 A D+l s+s+C+r++.0+~+B+A+z+m+l+k+m.y+x+w+g+g+v+u+l R . .   ",
". E+P F+G+@+H+g+g+I+J+K+B.L+M+N+n+D e+2 O+P+5.Q+r ]+6 #.#.{+R+8 8 R+{+#.#.6 ]+r Q+5.P+O+2 e+D n+N+M+L+B.K+J+I+g+g+H+@+G+F+P E+. ",
". ' b+S+T+#+[+g+U+V+J+W+X+M+Y+m+n+e /.O+Z+`+C+n Q+ @.@m m R++@_ _ +@R+m m .@ @Q+n C+`+Z+O+/.e n+m+Y+M+X+W+J+V+U+g+[+#+T+S+b+' . ",
". R C+u+f+U+g+'+7+@@#@$@I+%@&@*@=@r L -@O+< 4 O | ;@;@>@| e D ,@,@D e | >@;@;@| O 4 < O+-@L r =@*@&@%@I+$@#@@@7+'+g+U+f+u+C+R . ",
". R / '@v+g+g+7+)@#@!@~@I+{@]@^@/@(@..O+0 l _@,@$.:@_ _@f <@x ' ' x <@f _@_ :@$.,@_@l 0 O+..(@/@^@]@{@I+~@!@#@)@7+g+g+v+'@/ R . ",
". P  @i+[@}@|@1@2@!@#@3@4@5@6@r.K.;@+.7@D+b+! # 8@] 8@> 9@i.i.X X i.i.9@> 8@] 8@# ! b+D+7@+.;@K.r.6@5@4@3@#@!@2@1@|@}@[@i+ @P . ",
". 0@| a@b@|@c@d@e@f@@@g@h@i@j@k@S } l@M m@(@# t.k@8@n@o@p@i.X X X X i.p@o@n@8@k@t.# (@m@M l@} S k@j@i@h@g@@@f@e@d@c@|@b@a@| 0@. ",
". - S q@r@s@t@u@v@q@r@w@x@y@z@D e+r++. ./ $.t._.,@A@; > 1 ^ <@P P <@^ 1 > ; A@,@_.t.$./  .+.r+e+D z@y@x@w@r@q@v@u@t@s@r@q@S - . ",
". - e J+r@B@C@D@v@E@I+F@G@H@I@S J@+.r+/ e % o@P ,@K@:@4 R+ @K@,@,@K@ @R+4 :@K@,@P o@% e / r++.J@S I@H@G@F@I+E@v@D@C@B@r@J+e - . ",
". L@$.M@N@O@P@Q@R@M@S@T@U@V@W@;@3 M D++@k@P X@9@c+s+(@8 R+Y@K@c+c+K@Y@R+8 (@s+c+9@X@P k@+@D+M 3 ;@W@V@U@T@S@M@R@Q@P@O@N@M@$.L@. ",
". Z@k@`@ #.#+#@###$#%#&#*#=#-#} ;#M m@+@,@>#,#X f ] A@r.k@^ <@P P <@^ k@r.A@] f X ,#>#,@+@m@M ;#} -#=#*#&#%#$###@#+#.# #`@k@Z@. ",
". '#; )#!#~#{#]#^#)#!#+#{#/#(##._#7@D+:#K.9@<#'#^ ] A@K.k@^ <@P P <@^ k@K.A@] ^ '#<#9@K.:#D+7@_##.(#/#{#+#!#)#^#]#{#~#!#)#; '#. ",
". '#^ [#}#|#1#2#3#[#4#|#5#6#7#8#9#M m@:#k@9@<#0#^ s+(@8 R+Y@K@c+c+K@Y@R+8 (@s+^ 0#<#9@k@:#m@M 9#8#7#6#5#|#4#[#3#2#1#|#}#[#^ '#. ",
". a#o b#c#V@d#e#f#b#g#h#i#j#k#l#;# ./ m#^+L@z i.f s+(@8 R+Y@K@c+c+K@Y@R+8 (@s+f i.z L@^+m#/  .;#l#k#j#i#h#g#b#f#e#d#V@c#b#o a#. ",
". n#o#p#b#q#r#s#t#p#b#u#r#v#w#;#< / e # X z x#9@c+] A@K.k@^ <@P P <@^ k@K.A@] c+9@x#z X # e / < ;#w#v#r#u#b#p#t#s#r#q#b#p#o#n#. ",
"    . y#z#o y#. . y#o _.A#f ~ M D++@,@+ B#C#o#P k@] A@K.k@^ <@P P <@^ k@K.A@] k@P o#C#B#+ ,@+@D+M ~ f A#_.o y#. . y#o z#y#.     ",
"      D#a#a#D#. . D#a#i E#; ~ M D++@,@9@F#G#o#P k@s+(@8 R+Y@K@c+c+K@Y@R+8 (@s+k@P o#G#F#9@,@+@D+M ~ ; E#i a#D#. . D#a#a#D#      ",
"        . .         . . . f ~ O+{ * | ; a#C#E+x ! H#n ;@l Y@K@c+c+K@Y@l ;@n H#! x E+C#a#; | * { O+~ f . . .         . .         ",
"                      . . ; < -@9#3 A +@9@D#- o @ ; ,@K.k@^ <@P P <@^ k@K.,@; @ o - D#9@+@A 3 9#-@< ; . .                       ",
"                      . . > A I#;#8#J#K#L#M#N#, , n@@ ^+t.P P P P P P t.^+@ n@, , N#M#L#K#J#8#;#I#A > . .                       ",
"                      . . %.} ~ 6 8 :@O#P#Q#L#%.<@> ,@8@k@c+,@,@,@,@c+k@8@,@> <@%.L#Q#P#O#:@8 6 ~ } %.. .                       ",
"                      . . %.} < / e ! R#S#-+T#K.k@D m#e K@I.U#A@A@U#I.K@e m#D k@K.T#-+S#R#! e / < } %.. .                       ",
"                      . . % A l@a+H.A@V#W#X#Y#+@+@Q+]+:#e U#C 5 5 C U#e :#]+Q++@+@Y#X#W#V#A@H.a+l@A % . .                       ",
"                        . @ = Z#`# $.$>#x +$;@t+l e+(+8 m#! t.9@9@t.! m#8 (+e+l t+;@+$x >#.$ $`#Z#= @ .                         ",
"                          - @ @$#$$$%$'#o@] .@m@= e+(+Q+D z#Z@<#<#Z@z#D Q+(+e+= m@.@] o@'#%$$$#$@$@ -                           ",
"                            . &$*$=$-$;$>$4 7 A / 8 Q+m## ,$D#. . D#,$# m#Q+8 / A 7 4 >$;$-$=$*$&$.                             ",
"                              '$)$!$=$w+ $7 J@D+d+m#A@# X@F#E#. . E#F#X@# A@m#d+D+J@7  $w+=$!$)$'$                              ",
"                                . )$*$}+'@< p / :@! t.,$F#.         . F#,$t.! :@/ p < '@}+*$)$.                                 ",
"                                  ~$&${$]$p R+:@r.t.Z@D#E#            E#D#Z@t.r.:@R+p ]${$&$~$                                  ",
"                                    . _.| Y@B A@^$o@/$. .             . . /$o@^$A@B Y@| _..                                     ",
"                                      '#' # +$ +^$9@<#. .             . . <#9@^$ ++$# ' '#                                      ",
"                                      . . E+,@] n@,$D#.                 . D#,$n@] ,@E+. .                                       ",
"                                      . . ,$_@K@: B#E#                    E#B#: K@_@,$. .                                       ",
"                                      ) P ,@b+:@_.B#($                    ($B#_.:@b+,@P )                                       ",
"                                    . P | C+R+| 5 ,$n#.                 . n#,$5 | R+C+| P .                                     ",
"                                  _$P U#/ {+R+:$<$[$}$. . . |$. . |$. . . }$[$<$:$R+{+/ U#P _$                                  ",
"                                . P /+/ * l :#1$2$3$4$. . . . . . . . . . 4$3$2$1$:#l * / /+P .                                 ",
"                              5$D#n@q 5.q n _@6$7$8$9$0$a$. . . . . . a$0$9$8$7$6$_@n q 5.q n@D#5$                              ",
"                            . b$,$! 8 q s+c+^ c$d$e$f$g$0$. . . . . . 0$g$f$e$d$c$^ c+s+q 8 ! ,$b$.                             ",
"                          h$&$i$j$k$l$l$k$o : X m$0$n$n$0$. . . . . . 0$n$n$0$m$X : o k$l$l$k$j$i$&$h$                          ",
"                        . o$*$p$q${$w+w+r$: 0#s$t$a$0$0$u$. . . . . . u$0$0$a$t$s$0#: r$w+w+{$q$p$*$o$.                         ",
"                      . . v$w$x$y$y$x$z$y$X@A$. . . . . . . . . . . . . . . . . . A$X@y$z$x$y$y$x$w$v$. .                       ",
"                      . . B$C$D$E$E$F$G$E$m$H$. . . . . . . . . . . . . . . . . . H$m$E$G$F$E$E$D$C$B$. .                       ",
"                        . I$J$K$0$0$K$n$0$. . . . . . . . . . . . . . . . . . . . . . 0$n$K$0$0$K$J$I$.                         ",
"                          L$M$N$O$O$N$P$O$. . . . . . . . . . . . . . . . . . . . . . O$P$N$O$O$N$M$L$                          ",
"                          . . . . . . . . . . . . . . . . . . . . . . . . . . . . . . . . . . . . . .                           "};
