/* XPM */
static char * blue_portal_open_xpm[] = {
"32 32 29 1",
" 	c None",
".	c #000000",
"+	c #000000",
"@	c #101F10",
"#	c #193219",
"$	c #202020",
"%	c #2B562B",
"&	c #2D2413",
"*	c #303030",
"=	c #346534",
"-	c #3D783D",
";	c #404040",
">	c #43361D",
",	c #505050",
"'	c #594827",
")	c #605020",
"!	c #6587BE",
"~	c #6F5A31",
"{	c #707070",
"]	c #800000",
"^	c #808080",
"/	c #8BA4CE",
"(	c #909090",
"_	c #A0A0A0",
":	c #F2C44D",
"<	c #FDFDFE",
"[	c #FF0000",
"}	c #FF8000",
"|	c #FFFF00",
"                                ",
"              ++++              ",
"           +++,$,{+++           ",
"         ++,{{{$^^{{,++         ",
"       ++{${^({${{^*${*++       ",
"      +__{$_{,,$;;*$^_{,*+      ",
"     +$(({,$;$$$$$$,,^{{,*+     ",
"    +^{${,;$$!!!!!!$$,,{;$,+    ",
"    +_({$$$!!!!!!!!!!$$,${{+    ",
"   +{({,$!!!!!!!!!!!!!!$,^{,+   ",
"   +{{,$!!!!!!!!!!!!!///$^,*+   ",
"   +$$]$!!/!!!!!!!!!!!!!$_]*+   ",
"   +,[,$!///!/!!!!!!!!!/$][*+   ",
"   +,}}$///////!!!<<!!//${}*+   ",
"   +^|;$!!!!!!!!!!<</!!!$*|$+   ",
"   +*~;$!!!!//!!!/////!!$^~,+   ",
"   +;';$!!!////!!!!+!!!!$_',+   ",
"   +$>*$!///////!!+++!!/$^>*+   ",
"   +{',$+++++!!!!+++++!!$,'*+   ",
"   +_>,$++++++!!!!+++!!!$*>$+   ",
"   +(&,$+++++++!++++++++${&$+   ",
"   +^{;$+++++)+!+)+)++)+${;*+   ",
"   +$$;$++++++++++++++++$**$+   ",
"   +_^$$#++++++++)+:+++#$$$*+   ",
"   +^{,$#@+++++#@++++@##$_{*+   ",
"   +{{,$%#@+++@###@++##%$({*+   ",
"   +,,;$#%#++##%%%##@#%%$**$+   ",
"   +$$*$%=#=@=%=%=%=#=%=$_{,+   ",
"   +_{,$=%#%##%%=%=%=%=%$({,+   ",
"   +^{,$================$^{;+   ",
"   +,,;$=-=-=-=-=-=-=-==$,;;+   ",
"   +++++################+++++   "};
