/* XPM */
static char * blue_wall2_xpm[] = {
"32 32 12 1",
" 	c #001010",
".	c #001818",
"+	c #002020",
"@	c #003030",
"#	c #004040",
"$	c #006060",
"%	c #008080",
"&	c #00A0A0",
"*	c #00C0C0",
"=	c #00E0E0",
"-	c #00FFFF",
";	c #80FFFF",
"$$%&&**==*&*=*=*==**&*&&&&&%%#@@",
"$@@++++@+++++++++@+++@+++++..+.@",
"%@+@+@@+@@+@@@+@++++@@++++.+++.@",
"&+@++++@@+++++@@+@+@++.+..++.++#",
"&@++%$%%@&&&%&&&+&**+&&&%%%%...@",
"*+@@%@+&+%@++++*+&+&.&++.++$+..#",
"*@++%&+&@%+&&&+&+*+*+&%%&&.%...@",
"=@@+%@+%+&+&+*+*@&+*++.++.+%.. #",
"*++@%%+%+*@&+&@*@*.&***&&+%&.. @",
"&@@+%++&+&+&+***@*++...+%.+&.+ @",
"*+@@&@+@@*+*+@++++=**&&.&&%%...@",
"*+@+%%%*&*@**==-=**++.&....... #",
"=++++@++@+@+++..+++.=.&&**%%.+.#",
"*@+@%%&&***+-==-;--+*..+++.%.. #",
"&+++&+@@++*+-++.+.-+***&&++&...#",
"&+++%@&&=+*+;.;;;.;.+++.*&&&.. #",
"*++@&.++*.=+-.;+;+;.=**.&+.+.. #",
"=++@%&&.&+*.-+;+;+-+*.*+&+&%++.$",
"=++@++&+&+*+=.;+-+-+=.*.&..&.. $",
"=..+%+&+&&=+*+=.=.=.=+&.&.&%. .$",
"=+++%..+.+.+*+*+=.=**.*.&.+& . #",
"*+++%%%&&***===.=++...*+&%%%  .$",
"=.+++.+.+.+.++..****&.&+..++ . #",
"*.++%%%.&***&&=.+++.*.&+%%%% ..$",
"&+++%...&+...+&.*&&.*.&.&++%.  $",
"&++.%%%.%%&&*+*.*.*.&+%+&% %  .$",
"%+++.+%+....&+&..+&.&.%+++.$.. #",
"%.++%%%.%&&&%.&&&&%&%.&%%%$%.  #",
"%..+......+ ...+.+.. .. . .  . #",
"#....+...  .  . .. . . .. .. ..@",
"@..  . . . .. . .  .. .  ..  ..@",
"@@@@##@#@##@@@#@##$##$$#$$#$##@@"};
