/* XPM */
static char * gnome_spawner_xpm[] = {
"32 32 513 2",
"  	c None",
". 	c #8A01E7",
"+ 	c #9D02E6",
"@ 	c #F848FD",
"# 	c #A002EB",
"$ 	c #A009E5",
"% 	c #F95EFA",
"& 	c #733F8A",
"* 	c #FA57FA",
"= 	c #B20AE7",
"- 	c #A312E1",
"; 	c #F972F6",
"> 	c #7C5A89",
", 	c #AC65A5",
"' 	c #A866AA",
") 	c #FA6FF6",
"! 	c #A915E3",
"~ 	c #AC1DE0",
"{ 	c #F964F3",
"] 	c #996EA4",
"^ 	c #785D89",
"/ 	c #7D558C",
"( 	c #845691",
"_ 	c #855A8C",
": 	c #F96DF3",
"< 	c #A521DF",
"[ 	c #A927DC",
"} 	c #F86DF0",
"| 	c #855589",
"1 	c #835799",
"2 	c #795F95",
"3 	c #835C91",
"4 	c #8B5C93",
"5 	c #8A5890",
"6 	c #A06DAD",
"7 	c #F873F0",
"8 	c #B22CDB",
"9 	c #A92ED6",
"0 	c #F866ED",
"a 	c #C162BF",
"b 	c #916296",
"c 	c #B773AE",
"d 	c #B077AD",
"e 	c #AE75AB",
"f 	c #90679B",
"g 	c #93659A",
"h 	c #906A8E",
"i 	c #C36EC1",
"j 	c #F975ED",
"k 	c #AF31DA",
"l 	c #AA38CC",
"m 	c #CC48E4",
"n 	c #F973EA",
"o 	c #BB78AE",
"p 	c #C07FAF",
"q 	c #C282B0",
"r 	c #BC84B0",
"s 	c #B681A7",
"t 	c #B680A7",
"u 	c #9C728E",
"v 	c #9B7396",
"w 	c #937198",
"x 	c #FA88E8",
"y 	c #D951E2",
"z 	c #BB3BCD",
"A 	c #AE3FD4",
"B 	c #F987E8",
"C 	c #BC76AF",
"D 	c #A97493",
"E 	c #AE7599",
"F 	c #B27EA0",
"G 	c #B37EA3",
"H 	c #A97C9C",
"I 	c #A97A9A",
"J 	c #A47C99",
"K 	c #BF92A9",
"L 	c #B890AD",
"M 	c #CC90C2",
"N 	c #FA94E7",
"O 	c #C343D4",
"P 	c #B645C8",
"Q 	c #D75DDF",
"R 	c #F993E4",
"S 	c #AC7D9B",
"T 	c #B2849B",
"U 	c #CF91B2",
"V 	c #CB97AC",
"W 	c #C995AB",
"X 	c #C793AD",
"Y 	c #B587A5",
"Z 	c #B287A0",
"` 	c #B085A1",
" .	c #A982A3",
"..	c #A57FA0",
"+.	c #FA9AE4",
"@.	c #E16CE0",
"#.	c #C14BC7",
"$.	c #BE4AD2",
"%.	c #FA87E4",
"&.	c #DB81CC",
"*.	c #CA97B5",
"=.	c #D19AB5",
"-.	c #CF97AE",
";.	c #C899AC",
">.	c #C49AA7",
",.	c #BD92A0",
"'.	c #C593AD",
").	c #BD93A7",
"!.	c #CF9CB0",
"~.	c #CB99B3",
"{.	c #CB94B3",
"].	c #E28FCC",
"^.	c #FA9DE4",
"/.	c #C350D0",
"(.	c #BE5EAF",
"_.	c #BC54CE",
":.	c #FA8CE3",
"<.	c #A77EA7",
"[.	c #AE8AAD",
"}.	c #CD9EB4",
"|.	c #CB9EAF",
"1.	c #B998A1",
"2.	c #C8A3A9",
"3.	c #CEA9AF",
"4.	c #D6A7BE",
"5.	c #D5A8B8",
"6.	c #D3A3B4",
"7.	c #D09BB2",
"8.	c #B68AA5",
"9.	c #B081A9",
"0.	c #FA9CE1",
"a.	c #C75BCC",
"b.	c #C665AB",
"c.	c #BB55C2",
"d.	c #E56EDE",
"e.	c #F993E1",
"f.	c #AD8AA8",
"g.	c #B392AB",
"h.	c #B998A4",
"i.	c #D0A6B1",
"j.	c #D0ABB3",
"k.	c #D2AEB2",
"l.	c #CBAAAD",
"m.	c #CCA9AF",
"n.	c #D8ADB4",
"o.	c #D4A6B0",
"p.	c #BE989D",
"q.	c #B88E9D",
"r.	c #F998E0",
"s.	c #E978DE",
"t.	c #C25BBF",
"u.	c #BD5AC1",
"v.	c #ED7EDF",
"w.	c #EC94D6",
"x.	c #B08FA7",
"y.	c #B997A7",
"z.	c #BF9FA9",
"A.	c #C4A7AA",
"B.	c #D6B7B7",
"C.	c #DBBBBB",
"D.	c #DBBDC0",
"E.	c #DABAB9",
"F.	c #DAB4B1",
"G.	c #CDA8A7",
"H.	c #C3A09D",
"I.	c #B99797",
"J.	c #B38D97",
"K.	c #EC97D3",
"L.	c #EE82DD",
"M.	c #C162BD",
"N.	c #C059CC",
"O.	c #F990E1",
"P.	c #D58BC0",
"Q.	c #B48FA2",
"R.	c #BE9CAB",
"S.	c #C6A5AE",
"T.	c #CAAEAE",
"U.	c #FDF9DB",
"V.	c #FDFADD",
"W.	c #FCFADD",
"X.	c #FCFADC",
"Y.	c #FDF9DC",
"Z.	c #D2B1B0",
"`.	c #CBA8A2",
" +	c #BC9D98",
".+	c #B39394",
"++	c #D293BA",
"@+	c #F994E0",
"#+	c #BC60C6",
"$+	c #BF5BCB",
"%+	c #F98EE0",
"&+	c #D08EC3",
"*+	c #B994A5",
"=+	c #C8A0B0",
"-+	c #CDAAB4",
";+	c #D1B5B6",
">+	c #FCF9DE",
",+	c #FCF9DD",
"'+	c #D3B6B5",
")+	c #CFADAB",
"!+	c #C3A2A2",
"~+	c #BA979E",
"{+	c #D793BD",
"]+	c #F894DE",
"^+	c #BA65C5",
"/+	c #C668A9",
"(+	c #BE5ECA",
"_+	c #F993E0",
":+	c #AA8AA5",
"<+	c #B895AC",
"[+	c #C3A2B1",
"}+	c #D1ADB5",
"|+	c #D7B8BB",
"1+	c #FDFADF",
"2+	c #FDFAE1",
"3+	c #FDFAE0",
"4+	c #D4BAB8",
"5+	c #CAAFB1",
"6+	c #C8A5B0",
"7+	c #C29AAE",
"8+	c #BA8EA7",
"9+	c #F897DE",
"0+	c #BE66C7",
"a+	c #C871A5",
"b+	c #C666A9",
"c+	c #FA96E0",
"d+	c #B08DA7",
"e+	c #B397AB",
"f+	c #BDA0B0",
"g+	c #C9ABB5",
"h+	c #D1B7BC",
"i+	c #FDFAE2",
"j+	c #D3BCBC",
"k+	c #C9B0B7",
"l+	c #C9A7B3",
"m+	c #C79DAE",
"n+	c #BD93A9",
"o+	c #FA9FDF",
"p+	c #C666C9",
"q+	c #CC70A6",
"r+	c #BC53C2",
"s+	c #BC5CCB",
"t+	c #FA94E0",
"u+	c #B18CA7",
"v+	c #B496AB",
"w+	c #BB9FB0",
"x+	c #C2AAB4",
"y+	c #CEB4BB",
"z+	c #D1B9BA",
"A+	c #CBAFB5",
"B+	c #C8A5B2",
"C+	c #C29DAD",
"D+	c #C396A8",
"E+	c #FAA9DE",
"F+	c #CA65C9",
"G+	c #C65CBF",
"H+	c #BA51C1",
"I+	c #C05ACA",
"J+	c #FA9AE1",
"K+	c #B088A9",
"L+	c #B591A9",
"M+	c #BB9CAE",
"N+	c #C2A5B3",
"O+	c #CAAFB8",
"P+	c #FDF9DD",
"Q+	c #CCB2B3",
"R+	c #C7AAAF",
"S+	c #C39FB0",
"T+	c #C29BAC",
"U+	c #C395A8",
"V+	c #FBABE0",
"W+	c #D061CA",
"X+	c #C95AC0",
"Y+	c #BB4EC2",
"Z+	c #BE55CC",
"`+	c #FA97E2",
" @	c #A884A6",
".@	c #BC98AC",
"+@	c #C2A3B3",
"@@	c #CAA9B6",
"#@	c #C3AAAD",
"$@	c #C0A3AD",
"%@	c #C29BAE",
"&@	c #C399AD",
"*@	c #C393A7",
"=@	c #FBA9E1",
"-@	c #CF5DCB",
";@	c #C655C2",
">@	c #B747C5",
",@	c #BB4FCF",
"'@	c #FA8EE4",
")@	c #A4809E",
"!@	c #B08AA5",
"~@	c #B794AF",
"{@	c #C3A0B5",
"]@	c #C7A7B7",
"^@	c #BCA1A9",
"/@	c #BC9AAA",
"(@	c #BB93AC",
"_@	c #B992AD",
":@	c #BB88A7",
"<@	c #FB9DE2",
"[@	c #C557CD",
"}@	c #BC4FC4",
"|@	c #AD40C8",
"1@	c #B249CD",
"2@	c #F987E5",
"3@	c #A07D9E",
"4@	c #A887A6",
"5@	c #AE8CB3",
"6@	c #BB99B6",
"7@	c #C4A0B6",
"8@	c #E6BFC8",
"9@	c #E4BAC9",
"0@	c #E2B1C4",
"a@	c #DEB1BE",
"b@	c #DBAFBB",
"c@	c #BB97A4",
"d@	c #B990A5",
"e@	c #B08CAC",
"f@	c #AB89AB",
"g@	c #A886A1",
"h@	c #FA9CE4",
"i@	c #BC4FCE",
"j@	c #B747C9",
"k@	c #9D36CA",
"l@	c #A940CF",
"m@	c #F97EE7",
"n@	c #96719E",
"o@	c #9F7FA6",
"p@	c #AA85B2",
"q@	c #AF8FB6",
"r@	c #CEA2C0",
"s@	c #D2A4BD",
"t@	c #D19EBB",
"u@	c #DFA6BE",
"v@	c #DBA9BC",
"w@	c #DCADBC",
"x@	c #DAA9BF",
"y@	c #B388A8",
"z@	c #AC86A9",
"A@	c #A2809F",
"B@	c #A07B97",
"C@	c #FA95E7",
"D@	c #BA46D1",
"E@	c #B53FCC",
"F@	c #9C2ECB",
"G@	c #A936D4",
"H@	c #F974EA",
"I@	c #886095",
"J@	c #99699F",
"K@	c #A476A8",
"L@	c #D9A9CA",
"M@	c #DBABCB",
"N@	c #DFADC9",
"O@	c #DEA7C5",
"P@	c #DB9EC0",
"Q@	c #D8A0BD",
"R@	c #D9A2BD",
"S@	c #D99EC0",
"T@	c #DBA6C0",
"U@	c #AB7DA1",
"V@	c #9F709A",
"W@	c #976A8D",
"X@	c #F980E8",
"Y@	c #B63DD6",
"Z@	c #B034D2",
"`@	c #9C23D3",
" #	c #A42CD6",
".#	c #F96EED",
"+#	c #7F548A",
"@#	c #8D5B96",
"##	c #D391C1",
"$#	c #D79EC7",
"%#	c #D9A4C8",
"&#	c #DCA1C6",
"*#	c #D99CC4",
"=#	c #C384B2",
"-#	c #BD84AE",
";#	c #BD85A9",
">#	c #BA7FAC",
",#	c #B381AC",
"'#	c #B37FA7",
")#	c #916494",
"!#	c #8B5F8B",
"~#	c #F96FEC",
"{#	c #AE31D8",
"]#	c #AA2AD1",
"^#	c #A218DA",
"/#	c #9F21DB",
"(#	c #F764F1",
"_#	c #79498C",
":#	c #C679BA",
"<#	c #D282C1",
"[#	c #D295C5",
"}#	c #D298C2",
"|#	c #D391C4",
"1#	c #D289BF",
"2#	c #D288BE",
"3#	c #CB8CC0",
"4#	c #C895BD",
"5#	c #CE8CBC",
"6#	c #CB8CBC",
"7#	c #C48DBA",
"8#	c #C384BB",
"9#	c #815391",
"0#	c #F963EF",
"a#	c #A426DA",
"b#	c #A41ED7",
"c#	c #A80EE1",
"d#	c #AB15E3",
"e#	c #F85EF4",
"f#	c #AE69BC",
"g#	c #B167B9",
"h#	c #C071BD",
"i#	c #C57FC5",
"j#	c #C089C4",
"k#	c #CB8AC5",
"l#	c #CA80C1",
"m#	c #CE85BE",
"n#	c #CD88BF",
"o#	c #C498C0",
"p#	c #C291C0",
"q#	c #C581C0",
"r#	c #C882BF",
"s#	c #C37EC2",
"t#	c #C57AB8",
"u#	c #F858F3",
"v#	c #9C1ADD",
"w#	c #9C13DF",
"x#	c #A807E7",
"y#	c #AA0AE9",
"z#	c #F957F7",
"A#	c #975BC0",
"B#	c #9D62AE",
"C#	c #AD64A9",
"D#	c #9753A0",
"E#	c #9959AA",
"F#	c #9C61B3",
"G#	c #A862B1",
"H#	c #AF66AC",
"I#	c #AA67AA",
"J#	c #A06BAD",
"K#	c #9A71AD",
"L#	c #B57EC0",
"M#	c #B978BD",
"N#	c #C478BD",
"O#	c #C176B7",
"P#	c #F851F6",
"Q#	c #9410E1",
"R#	c #8C0ADF",
"S#	c #A103EC",
"T#	c #9F03EB",
"U#	c #F944FA",
"V#	c #6F329E",
"W#	c #9A5BAB",
"X#	c #7F418F",
"Y#	c #92479D",
"Z#	c #9554AD",
"`#	c #9257B2",
" $	c #9D57B2",
".$	c #9F55AD",
"+$	c #9350A8",
"@$	c #8F53A8",
"#$	c #915CAC",
"$$	c #835DA8",
"%$	c #B371B9",
"&$	c #B974BB",
"*$	c #B973BC",
"=$	c #F84BF9",
"-$	c #8F05E6",
";$	c #8503E7",
">$	c #9701EA",
",$	c #9A02E7",
"'$	c #F840FC",
")$	c #F73FFB",
"!$	c #F742F9",
"~$	c #F84CF8",
"{$	c #F95FF5",
"]$	c #F969F5",
"^$	c #F966F3",
"/$	c #F95FF3",
"($	c #F858F2",
"_$	c #F753F2",
":$	c #F753F3",
"<$	c #F757F6",
"[$	c #F754F7",
"}$	c #F95FF8",
"|$	c #F965FA",
"1$	c #F94CFC",
"2$	c #9202E9",
"3$	c #9001EA",
"4$	c #9800E8",
"5$	c #9601E3",
"6$	c #8D01E3",
"7$	c #8A02E3",
"8$	c #9203E4",
"9$	c #9A06E5",
"0$	c #A008E6",
"a$	c #A00CE6",
"b$	c #A110E2",
"c$	c #A111E0",
"d$	c #9A13D9",
"e$	c #9113DB",
"f$	c #9011E1",
"g$	c #960EE2",
"h$	c #9A0AE4",
"i$	c #9F06E7",
"j$	c #A005E7",
"k$	c #A003E8",
"l$	c #9F02E9",
"m$	c #9801EA",
"n$	c #9C00EC",
"                              .                                 ",
"                            + @ #                               ",
"                          $ % & * =                             ",
"                        - ; > , ' ) !                           ",
"                      ~ { ] ^ / ( _ : <                         ",
"                    [ } | 1 2 3 4 5 6 7 8                       ",
"                  9 0 a b c d e f g h i j k                     ",
"                l m n o p q r s t u v w x y z                   ",
"                A B C D E F G H I J K L M N O                   ",
"              P Q R S T U V W X Y Z `  ...+.@.#.                ",
"              $.%.&.*.=.-.;.>.,.'.).!.~.{.].^./.                ",
"            (._.:.<.[.}.|.1.2.3.4.5.6.7.8.9.0.a.b.              ",
"            c.d.e.f.g.h.i.j.k.l.m.n.o.p.q.Z r.s.t.              ",
"            u.v.w.x.y.z.A.B.C.D.E.F.G.H.I.J.K.L.M.              ",
"            N.O.P.Q.R.S.T.U.V.W.X.Y.Z.`. +.+++@+#+              ",
"            $+%+&+*+=+-+;+X.>+>+>+,+'+)+!+~+{+]+^+              ",
"          /+(+_+:+<+[+}+|+,+1+2+3+>+4+5+6+7+8+9+0+a+            ",
"          b+(+c+d+e+f+g+h+,+1+i+2+>+j+k+l+m+n+o+p+q+            ",
"          r+s+t+u+v+w+x+y+W.>+1+>+>+z+A+B+C+D+E+F+G+            ",
"          H+I+J+K+L+M+N+O+P+W.,+W.P+Q+R+S+T+U+V+W+X+            ",
"          Y+Z+`+ @u+.@+@@@U.Y.Y.Y.U.#@$@%@&@*@=@-@;@            ",
"          >@,@'@)@!@~@{@]@U.U.Y.U.U.^@/@(@_@:@<@[@}@            ",
"          |@1@2@3@4@5@6@7@8@9@0@a@b@c@d@e@f@g@h@i@j@            ",
"          k@l@m@n@o@p@q@r@s@t@u@v@w@x@y@z@A@B@C@D@E@            ",
"          F@G@H@I@J@K@L@M@N@O@P@Q@R@S@T@U@V@W@X@Y@Z@            ",
"          `@ #.#+#@###$#%#&#*#=#-#;#>#,#'#)#!#~#{#]#            ",
"          ^#/#(#_#:#<#[#}#|#1#2#3#4#5#6#7#8#9#0#a#b#            ",
"          c#d#e#f#g#h#i#j#k#l#m#n#o#p#q#r#s#t#u#v#w#            ",
"          x#y#z#A#B#C#D#E#F#G#H#I#J#K#L#M#N#O#P#Q#R#            ",
"          S#T#U#V#W#X#Y#Z#`# $.$+$@$#$$$%$&$*$=$-$;$            ",
"          >$,$'$)$!$~${$]$^$/$($_$:$e#<$[$}$|$1$2$3$            ",
"          4$5$6$7$8$9$0$a$b$c$d$e$f$g$h$i$j$k$l$m$n$            "};
