/* XPM */
static char * gnome_xpm[] = {
"32 32 16 1",
" 	c None",
".	c #000000",
"+	c #000000",
"@	c #000C59",
"#	c #002694",
"$	c #0044C9",
"%	c #433335",
"&	c #757575",
"*	c #8F5760",
"=	c #A9A9A9",
"-	c #BF929A",
";	c #CCA9AF",
">	c #DADADA",
",	c #E1E1E1",
"'	c #E6C7CE",
")	c #FFFFFF",
"                                ",
"                                ",
"                     ++         ",
"                    +$$+        ",
"                   +$$#+        ",
"                  +$$##+        ",
"                 +$$##+         ",
"                +$$###+         ",
"               +$$###@+         ",
"               +$####@+         ",
"              +$$###@@+         ",
"             +$$####@@+         ",
"            +)---))@@+          ",
"           +-%'-*%--@+          ",
"           +;-'-*-;=+           ",
"           +,,'-*,==+           ",
"           +=>>-,>>=++          ",
"          +$,>>>=>>=##+         ",
"         +$#>=>>>=>=@@#+        ",
"       ++$#+=,=>=>==++@#+       ",
"      +'-#++==,=>==+  +#+       ",
"      +-*+ ++==>===@+ +#+       ",
"       ++  +$#>===##++--+       ",
"          +$##===++##+**+       ",
"         +$#@++==++$#+++        ",
"         +$#+ +&+ +$@+          ",
"         +##@+ +  +#@+          ",
"          ++#@+++++#@+          ",
"        ++++#@+++++#@++         ",
"       +$###@@+++$###@@+        ",
"        +++++++++++++++         ",
"          ++++++++++            "};
