/* XPM */
static char * cloud_fire0_xpm[] = {
"32 32 30 1",
" 	c None",
".	c #804000",
"+	c #603000",
"@	c #604800",
"#	c #68541F",
"$	c #802000",
"%	c #C03000",
"&	c #800000",
"*	c #804040",
"=	c #C06000",
"-	c #A02800",
";	c #603030",
">	c #A05000",
",	c #601800",
"'	c #E07000",
")	c #FF8000",
"!	c #E03800",
"~	c #FF4000",
"{	c #F2C44D",
"]	c #FFC000",
"^	c #FFFF00",
"/	c #F8E060",
"(	c #AA8834",
"_	c #807020",
":	c #FFFF80",
"<	c #FFB691",
"[	c #D0A850",
"}	c #E07070",
"|	c #C00000",
"1	c #806000",
"  .+            +               ",
"                             +@ ",
"                             +  ",
"                                ",
"                                ",
"                                ",
"        #                       ",
"       +     +$%.&        +     ",
"            .*===-.+  +  +      ",
"  +        +;>%>>.#., ,         ",
"+   ..   $.*.$$-%->-$. ,        ",
"   ,.#$+ $>>-,-')!=>>>-.        ",
"    +# , $>>*%~){~%----*-.,,.$  ",
"     +& &.*%~~)]{~%%->!=>*>.  $ ",
"     #->>>-%))^/{^~)~)'=--.$    ",
"    $#!(=_-%)]::^<][])'!-$ @,   ",
"     $.%>-,$!){^/^~)}~!. -.$    ",
"  +   ;>*.$ $%~){)))'|$$..&     ",
"       -#-@  $-')))[~>#-.       ",
"       ,$+   +-%!%!=%1*$,       ",
"         ,   ;==--.-+;.         ",
"             $-%!>-  $&         ",
" ,           .%=>*>$ .$         ",
";            $@*-., .#>>,     $+",
" ,            ,      ..;      $.",
"                               $",
"       $ ,                      ",
"        $                   +   ",
"              .,            #+  ",
"             .>-#.+        ++   ",
"             $*->$ +        $   ",
"              +$.,&         @;  "};
