/* XPM */
static char * cloud_fire2_xpm[] = {
"32 32 37 1",
" 	c None",
".	c #802000",
"+	c #A02800",
"@	c #A05000",
"#	c #603030",
"$	c #601800",
"%	c #E07000",
"&	c #FF8000",
"*	c #C03000",
"=	c #804040",
"-	c #804000",
";	c #800000",
">	c #FF4000",
",	c #C06000",
"'	c #AA8834",
")	c #E03800",
"!	c #603000",
"~	c #806000",
"{	c #C00000",
"]	c #C06060",
"^	c #E0A800",
"/	c #F2C44D",
"(	c #E07070",
"_	c #A05050",
":	c #A00000",
"<	c #F8E060",
"[	c #FFC000",
"}	c #FFFF80",
"|	c #FFFF00",
"1	c #D0A850",
"2	c #FCFC99",
"3	c #FFFFFF",
"4	c #FFFFC0",
"5	c #F0F0F0",
"6	c #68541F",
"7	c #A07800",
"8	c #807020",
"     .+@# $  . +%&@$            ",
"   .@*@=-+  --;->,@       --$   ",
"   *'@*@; +*-=-*%)+! .-*-++@-!  ",
"  .@%&*@+*%%*~{)&>@+*@]^%,,,@.$ ",
"  !@%,)%)&//>,)&(&%),)%>%)@@@+- ",
"-! .**>&)%&&**@>&>,&%)>%>),*-=@-",
"@. !+*%%)**+$+@*>*)%%>%>%%_@+@@.",
"'+  .+,%*-+**@*>&%)%)@@**)@.++. ",
"_! .!+@,,>&%,_)>/&>,@+.+*,*+,@@!",
",:  $.+),>]&>>>&<&&>@)**,,*@=@+ ",
"])@+@+*,),>>>[/<}|1&&&%,%@.;!. $",
"%%@,,,,>,>)>&/|<</[&&&>+-+$ .!. ",
",@*),)),>&>&&|&|<|//1/&*++@+---:",
"+@*=,))>&&&>[<|}}||[&</&&>'%),)+",
"+--@)%%>&/[&<}2}3}}}|<<[&&&,,>&&",
".  *)%&&&}}|<}45332<2<|[//&))>//",
"+.+6_&&(&[[&&|}}34}||/[&&&*.6+>&",
"~-!+*>>&&(&/[&|<<<<</[&&)*. !;+'",
")-+-*,))>&&//[1|/[&[&&>%**-.-$.@",
",)@*@&%)*%&//&[//&&&&>>),^%*@-+)",
")7)@>&>@@)&&/&&[/1&&&&>)%%,),*,,",
"@***@(%*+%]&&>>>[&&&&&%,*%>@,),@",
"++*.+,*$+%&>,)>&&&>%))),))%>@+.!",
".+8+.@.+@]&>*>&&[&%_,>%>&%_,*-! ",
" -@+.#--*&(>)>&&&&>)>]&&>*+;!   ",
"  .$ !$ !)&>>&/[/&&>%&%>&*   !  ",
"   ! $   .%_)&&&/&&,_,>%],@$    ",
"   !#    .@*)%>>&>@:-#-*,,@@-   ",
"          @%%'%>&,*!;   ++@-    ",
"          .-,%++@*@# .   -+-    ",
"          $.--    ;!.!-  !      ",
"           $+-;    .!--         "};
