/* XPM */
static char * cloud_fire1_xpm[] = {
"32 32 38 1",
" 	c None",
".	c #68541F",
"+	c #A02800",
"@	c #802000",
"#	c #603030",
"$	c #603000",
"%	c #601800",
"&	c #604800",
"*	c #804000",
"=	c #806000",
"-	c #C06000",
";	c #804040",
">	c #A05000",
",	c #C03000",
"'	c #600000",
")	c #800000",
"!	c #E03800",
"~	c #FF8000",
"{	c #D0A850",
"]	c #FFC000",
"^	c #FF4000",
"/	c #A05050",
"(	c #F2C44D",
"_	c #E07070",
":	c #F8E060",
"<	c #E07000",
"[	c #FFFF80",
"}	c #FFFFC0",
"|	c #FFFF00",
"1	c #A00000",
"2	c #FCFC99",
"3	c #AA8834",
"4	c #C06060",
"5	c #C00000",
"6	c #606030",
"7	c #C09000",
"8	c #A07800",
"9	c #E00000",
" .+@#$     $ @% @             & ",
" *@@=+% %%    @+.+$      #      ",
"  @*++@ @*    +-;*;$   $+>@     ",
" % +-+@$% $    @*@**  @;,>*+$   ",
"  $*->$      ' %  *#@$**+>,>.   ",
"   @>*      @ #$@ @*@ %*%@*@    ",
"    .@     $ @*+>$              ",
"    % %  **% @+>-@             *",
"       @@.  )+!~~,@%$#$@ $%     ",
"         @ ',~~~{~!>,->>..*     ",
" @$ $%    @+~{~~]~~~^^>+@@      ",
"@  @$ *+@#>-~~^~~~~~~/-,@%%     ",
"    %@*;@++^~^^{(~~^^!^->>>@$%  ",
"     @,-,,!~_~]::~^^<^<^^!;*> @ ",
"   @*+>~~~^~~([[}|:](]~^<-+1*>**",
"  %*+>^~((~~~([2[[|::(~~<-!+#&+>",
"  +,>;*^~~^,^~::}[:(~{~~~~3>*)  ",
" @+.,*1*/<<!-^~([|:~^~^-<<->%   ",
"'$@* % %+,4^^^^~]~{]~~!,*@@@    ",
" $**%   @,<~~<^~^^~~~~-@  %     ",
" **+ '   +<-^^!~~<!!~^-*  @.*   ",
" %+-+  %*5+,+>^~<^<^3<<>@ @**   ",
" @*/>+&@>>,*+*+>^</><!-;$  @@@@ ",
"  @.+  +>/>+  @+>+*@@$@*   *+.6*",
"        ,*@   @**.@       % @++%",
"       #>,& @*;@>+$$ $   *>+$#* ",
"       @>*@**/7^-,*+$ @*+.;*%   ",
"         @  @84<4>>*@++#@,>%    ",
"             )*!-9>+@.>>@@.$    ",
"              @.~>>.@**@  .*    ",
"              @,-+$       @#   $",
"           @$*.>/*@         @   "};
