/* XPM */
static char * cloud_magic_trail3_xpm[] = {
"32 32 52 1",
" 	c None",
".	c #9600CB",
"+	c #8F00CE",
"@	c #9100CD",
"#	c #9100CE",
"$	c #9000CF",
"%	c #9200CE",
"&	c #8E00CD",
"*	c #8D00CB",
"=	c #8F00CD",
"-	c #9100CF",
";	c #9000CD",
">	c #9300D0",
",	c #9400CF",
"'	c #9200CF",
")	c #9200CB",
"!	c #9000CC",
"~	c #8E00CC",
"{	c #8D00D1",
"]	c #9000D0",
"^	c #8D00CE",
"/	c #9000CB",
"(	c #9300CC",
"_	c #9100CB",
":	c #9000CE",
"<	c #9300CF",
"[	c #8E00CE",
"}	c #9200CD",
"|	c #9300CE",
"1	c #9100CC",
"2	c #9200CC",
"3	c #8F00CC",
"4	c #9300CD",
"5	c #9100D0",
"6	c #9500D1",
"7	c #8F00CF",
"8	c #8E00CA",
"9	c #8F00D3",
"0	c #9200D1",
"a	c #9000D2",
"b	c #8B00CF",
"c	c #9100D1",
"d	c #9200D0",
"e	c #9500D2",
"f	c #8F00CB",
"g	c #9200D4",
"h	c #9000CA",
"i	c #9000D1",
"j	c #9400CE",
"k	c #9500CE",
"l	c #9400CD",
"m	c #9700CD",
"                                ",
"                 .+@#           ",
"                 $%&*=    -%-   ",
"      @;>,')!~;{]>+^;/()_:####% ",
"    :#@<#[$-}#-#]|12@3'%|4#%##: ",
"  #%##]##$+:##:#-5|;#%@#:;=@####",
"  ##%::-%};:-#%;:'$}#%%;#:;%###%",
" -%:};;'%@#-;:;::--};@@;#%%#<-: ",
"  :~2[=%$;5]'4#};#:;%#}##'%#26$ ",
"    7[8'(/2<]%-%$|#:;:#@%##}:$  ",
"     1}'$<---#:'@%:-$##-@%##%'  ",
"    --#%#-$###%#-:###%--#%#$%}9 ",
"   0#-:::--::'#;|@-%$%#%##:%|@a ",
"   4###$@@##:#''%@:%$#:##%#'#2  ",
"  2%#;:%@##::@-$#:##:###%}'%-=  ",
"  ;;$###%#####;}%#@@##%@#@-:@b  ",
" c!#:;#;:#;::@-:#%@#:#-@#@-->   ",
" :#'%'::::#@#@:#%-::#%#%@;-:2   ",
" %%<##::##;##@##:#-#::@::-#<    ",
"  |<:#:@@%;#}#:%|%-##%%%:@#     ",
"  <###-##:%'%%-}%###-#@#d%      ",
"   @%%'-%##%#$'--;:#-}@3@2#$,c  ",
"   (}###:%%$:%#@'%'-%;:@@5$#@$  ",
"   :#:@@:'+'#;%@-:#'<''@:$#5#5  ",
"   e:':@%#$##:::-%:-%:#}#;$:d*  ",
"  ::;;%1@'-#:#%'-''#:-%%@#%#4   ",
"   @:f=%@-}}':#-:%###-d#;#-0@   ",
"     -~gd  2##%>%#;$-@@11@4@    ",
"     4 >]   1@;#'#@:;#=/h7:;    ",
"       -%i   2@:#@''--$#||      ",
"        ::    =;@1@jklm         ",
"                                "};
