/* XPM */
static char * cloud_magic_trail1_xpm[] = {
"32 32 29 1",
" 	c None",
".	c #8F00CE",
"+	c #9000D0",
"@	c #9100CF",
"#	c #9100CC",
"$	c #9100CD",
"%	c #9100D0",
"&	c #9200CF",
"*	c #9000CF",
"=	c #9300CD",
"-	c #9000CE",
";	c #9100CE",
">	c #9200CE",
",	c #9300CC",
"'	c #8F00CF",
")	c #9100CB",
"!	c #9000CD",
"~	c #9200CD",
"{	c #9500CD",
"]	c #8D00CD",
"^	c #9300CE",
"/	c #8F00D0",
"(	c #9300D0",
"_	c #9300CF",
":	c #9300D1",
"<	c #9300D2",
"[	c #8F00CD",
"}	c #9200D0",
"|	c #8E00CC",
"                                ",
"                                ",
"                                ",
"          .+@                   ",
"         #$%&*=                 ",
"        +-;&;>;%                ",
"        >;>@-;$,      '=.       ",
"        =>-->;->)     ';-       ",
"        *!-;@;-&      ;-;~      ",
"         &${@].-     !-;>;      ",
"                     ;^/$>      ",
"         @%;&!       @>*$(      ",
"       _*^;;>&;: *. <@;>~_      ",
"       >-;;-;~-*';;@%>~-~;      ",
"      $;*'@;[!>>--._>$;--}      ",
"     +;>;*$~*>!>;;@^*!--;%      ",
"     *>$-&@-&;-!;!!*;&;!;!      ",
"    .!-;$;_-;>;;;!;>@>@->       ",
"    |%--*>%#-$;$;-$;-!&@        ",
"    ;;@;-*;$'*;>*;*-->~         ",
"    -*~@$';  >.![-[@@.          ",
"     =>%>@    [@,               ",
"                                ",
"                                ",
"                                ",
"                                ",
"                                ",
"                                ",
"                                ",
"                                ",
"                                ",
"                                "};
