/* XPM */
static char * cloud_magic_trail2_xpm[] = {
"32 32 53 1",
" 	c None",
".	c #9100CE",
"+	c #9000CE",
"@	c #9300CE",
"#	c #8A00D1",
"$	c #9300CF",
"%	c #9100D0",
"&	c #8A00CF",
"*	c #9000C9",
"=	c #8E00CF",
"-	c #9000CD",
";	c #9000CC",
">	c #9100CF",
",	c #9100CD",
"'	c #9200CD",
")	c #9200CE",
"!	c #9300D0",
"~	c #9000CF",
"{	c #9000D0",
"]	c #8F00CF",
"^	c #8F00CE",
"/	c #9200CF",
"(	c #8F00CD",
"_	c #8E00CD",
":	c #9300CD",
"<	c #9400CE",
"[	c #9000CB",
"}	c #9100CC",
"|	c #9400CC",
"1	c #9500CD",
"2	c #8D00CE",
"3	c #9200CC",
"4	c #9200D0",
"5	c #9600D2",
"6	c #9000D1",
"7	c #9200CB",
"8	c #8F00CC",
"9	c #8F00CB",
"0	c #9200D1",
"a	c #9300D2",
"b	c #9100D1",
"c	c #8E00CC",
"d	c #8E00D0",
"e	c #9400D0",
"f	c #8E00CE",
"g	c #9400CD",
"h	c #8E00CA",
"i	c #8E00C8",
"j	c #9500CA",
"k	c #9000CA",
"l	c #8F00D4",
"m	c #8E00D4",
"n	c #8C00D4",
"                                ",
"                       .+.@     ",
"              #$%&**= *-+.-     ",
"             ;>,',)!.)-~)++,    ",
"            {]^>++)).-/-;())>   ",
"          _/)+).>+),'.+>.-:,,   ",
"         -,.>.,).+'),,).+.)+<   ",
"       ['-))+...+.+-.+/..../)   ",
"     >+..}@'.).'>').,-/))..>%   ",
"    >)'),+/~+/''>..,,..../,>+   ",
"    |))../-'',1->)+-...++-,.]   ",
"    -)@)).-.-^++).')...~.,-'    ",
"     +_-.>.+.>))>2)'+/>~).->    ",
"    3:'>>>.4^>.+,+>,%@.+,)>!    ",
"    ''4++'-]'.>'+))'>5{~,>6     ",
"   @}+/>(7,,-^8]..~{@ +>>/      ",
"   /'~{'   @   7,)}-  />}       ",
"  >,.8     ,   9,)3*            ",
"  0,,     44   ~>.},.       $@(a",
"   -      .>:   >>.'-/    />).(}",
"          ...8  b)/]c   .8.+>++.",
"          ).,{'(|>%/^%:^,...+'/.",
"          '.).>>$,/-~-..+)>...d>",
"          +).+>+>')),))',.,+.e  ",
"          %+>)>/.),.>>+,+,)+f#  ",
"           ~.'..-,,.....''>@    ",
"           +..'.-..)./,)@.-     ",
"           3:,...>>>./'.};      ",
"            }.+.>)~+}.+^        ",
"             %)g>>~.;hi         ",
"              jk@$lmn           ",
"                                "};
