/* XPM */
static char * cloud_magic_trail0_xpm[] = {
"32 32 28 1",
" 	c None",
".	c #9100CB",
"+	c #9000CF",
"@	c #8F00CE",
"#	c #9300CF",
"$	c #9000D0",
"%	c #9200CE",
"&	c #9200CF",
"*	c #9100CD",
"=	c #9300CD",
"-	c #9100CF",
";	c #9000CE",
">	c #9100D0",
",	c #9400CE",
"'	c #9200CD",
")	c #9100CE",
"!	c #9300CE",
"~	c #9300CC",
"{	c #9100CC",
"]	c #9000CD",
"^	c #8F00CC",
"/	c #8F00CF",
"(	c #8E00CE",
"_	c #8E00CD",
":	c #9200CC",
"<	c #9300D0",
"[	c #9000CC",
"}	c #9200D0",
"                                ",
"                                ",
"                                ",
"                                ",
"                                ",
"                                ",
"              .+@#              ",
"           $%&*=--;;            ",
"         ->,#*'))))+-&          ",
"        !%'&=~{%)]%&-)~         ",
"       --*^)//(+%'*-)-;=        ",
"           ]>;=)%)'));*#]       ",
"           -%)+#';);-*;!)       ",
"            >_:]-#%%-%];<       ",
"              ^*+*'-&'])-       ",
"                %=[])*---       ",
"                -$&;)%%*@       ",
"                %)%;]];+        ",
"                ')-;)-%         ",
"                 <{-}-          ",
"                                ",
"                                ",
"                                ",
"                                ",
"                                ",
"                                ",
"                                ",
"                                ",
"                                ",
"                                ",
"                                ",
"                                "};
