/* XPM */
static char * wallvines2_xpm[] = {
"32 32 16 1",
" 	c #101010",
".	c #202020",
"+	c #B0B0B0",
"@	c #A0A0A0",
"#	c #00E070",
"$	c #008040",
"%	c #606060",
"&	c #707070",
"*	c #00A050",
"=	c #909090",
"-	c #404040",
";	c #505050",
">	c #808080",
",	c #004020",
"'	c #003018",
")	c #002000",
"   .... ... ..  . ....  .... . .",
"++@+#$@@@@%@@@&.++@++@#*@+@@@@& ",
"@==*$@&&&%-&&&; @==>=>*&&>&>&&;.",
"+&>,,>>>&&-;&&-.+==&>&$,&%&&&%- ",
"+>$,@>&&>&%--;;.+>>>&>>$,&,%&%;.",
"@=#,&&&>>&%%-;-.+>&&>>&*,*,,%%- ",
"@,,$,>&>&&&;;--.@&>&&%%&#,*'%%-.",
"&;,,;--;-;-;--- &;;;--;-;',''-- ",
" . .. . . ..   ....  . . .   . .",
"+@+@@@& @++@+*+@@+&&+@&.++@+@#@@",
"=>$%&&;.+=>=$*>>>%--@&; @=>=#,&&",
"&&#,&%;.@>==&,$&>>%--&- +=>&#$,>",
">&&,,&-.+>=>=>,*&,>%%%;.@>&&*,>&",
"&>%$,,- @>&&&&,$*'%%&%-)+&>#,'&&",
"%&%$',- @&&%>>>$,'&&%%-.@>&,'$$%",
";-;,''- &;;;;;;,,';---- &;;';-;;",
"  .. . . . .  . .. ..) ... ). ..",
"+@++@+@@++*@@@&.+@@@*@@+++@@@@& ",
"@=>=>&>&**$%&%;.+=>*>&>&&&&>&%;.",
"+>====>*#$==>&- +>=$*&>$>>&>&%- ",
"+=&>&=&&*,&&&%; +&>=$$#,>>&%&%; ",
"+>&&&&>&$,&%&&-.@>>>,,$,&&>>&&; ",
"@&&&%&>%,',>%%-.@&&>&,,'&&%&%%-.",
"&;;----;-,';--- &;-;,-''-;;;--- ",
". .    . ..  .).).. .  .).  .. .",
"+@*+@@&.+@@++*++++@*@@&)+>++++@@",
"=>#&>&- +>>>&&#&&>*,&&;.+%%>&>&&",
">,,#>%;.+&>&>&,##*,>%%- +=&&=>&&",
"&&,*&%- @>&>>&,,',>&&%;.@=>&&&&>",
"%%>,,,-.+>&>&,=&%'&>&&- @>&>%&>&",
"&&&,'%- @&&&,%&%%>,%%%-)@&>&%&%&",
";-;;'-- &;;-''-;;-,'--- &;;;---;"};
