/* XPM */
static char * bone_door_open_xpm[] = {
"32 32 21 1",
" 	c #000000",
".	c #202020",
"+	c #808080",
"@	c #505050",
"#	c #606060",
"$	c #A0A0A0",
"%	c #CEC100",
"&	c #DFD100",
"*	c #FEEE00",
"=	c #404040",
"-	c #303030",
";	c #FF0000",
">	c #909090",
",	c #CEC434",
"'	c #707070",
")	c #5E5A18",
"!	c #5E5800",
"~	c #BFB300",
"{	c #7F7700",
"]	c #313129",
"^	c #101010",
"                                ",
" .+@##$$+@###%&***@==@#$$+@##+. ",
" -$-=+-=+---#;;&;;&--=@>-=+=@>- ",
" $-@>-=-@=$$$;;.;;%$#$=-=-=>=@> ",
" >-=$-@-=$##$,%&&%%'$#'-#=-$-@+ ",
" =>$+=@=$#'-$)!!!~{-='>#=@=+$$= ",
" -@==#=@=--@ #%%%)-=----@@+==@- ",
" .---..--....-]!!----.......... ",
" ..-.-.^                ..-.-.^ ",
" .#-.@-^                .#-.@-^ ",
" -=..@-.                -=..@-. ",
" --=@=..                --=@=.. ",
" .'@@=.^                .'@@=.^ ",
" -='@=-.                -='@=-. ",
" @.@=.=.                @.@=.=. ",
" -.^.^-.                -.^.^-. ",
" .#..@.^                .#..@.^ ",
" .='@=.^                .='@=.^ ",
" --=@.-.                --=@.-. ",
" -@..=-.                -@..=-. ",
" -.'=.-.                -.'=.-. ",
" .#^.@.^                .#^.@.^ ",
" .'.^'-. -^-^-^-^-^-^-^ .'.^'-. ",
" =.^.-=. ^^^^^^^^^^^^^^ =.^.-=. ",
" -'.^=-. -=-=-=-=-=-=-= -'.^=-. ",
" -@.^@-. -------------- -@.^@-. ",
" -=^^@.^ @@@@@@@@@@@@@@ -=^^@.^ ",
" =....=.  @#@#@#@#@#@#  =....=. ",
"#''''###@ @@@@@@@@@@@@ #''''###@",
"'@=@@@=@- ############ '@=@@@=@-",
"'=@=@===- #'#'#'#'#'#' '=@=@===-",
"-........              -........"};
