/* XPM */
static char * bone_door_closed_xpm[] = {
"32 32 16 1",
" 	c #000000",
".	c #202020",
"+	c #808080",
"@	c #505050",
"#	c #606060",
"$	c #A0A0A0",
"%	c #D0D0D0",
"&	c #E0E0E0",
"*	c #FFFFFF",
"=	c #404040",
"-	c #303030",
";	c #FF0000",
">	c #909090",
",	c #707070",
"'	c #C0C0C0",
")	c #101010",
"                                ",
" .+@##$$+@###%&***@==@#$$+@##+. ",
" -$-=+-=+---#;;&;;&--=@>-=+=@>- ",
" $-@>-=-@=$$$;;.;;%$#$=-=-=>=@> ",
" >-=$-@-=$##$%%&&%%,$#,-#=-$-@+ ",
" =>$+=@=$#,-$####'+-=,>#=@=+$$= ",
" -@==#=@=--@ #%%%#-=----@@+==@- ",
" .---..--....--,,----.......... ",
" ..-.-.)                ..-.-.) ",
" .#-.@-)                .#-.@-) ",
" -=..@-.                -=..@-. ",
" --=@=..                --=@=.. ",
" .,@@=.)                .,@@=.) ",
" -=,@=-.                -=,@=-. ",
" @.@=.=.                @.@=.=. ",
" -.).)-.                -.).)-. ",
" .#..@.)                .#..@.) ",
" .=,@=.)                .=,@=.) ",
" --=@.-.                --=@.-. ",
" -@..=-.                -@..=-. ",
" -.,=.-.                -.,=.-. ",
" .#).@.)                .#).@.) ",
" .,.),-. -)-)-)-)-)-)-) .,.),-. ",
" =.).-=. )))))))))))))) =.).-=. ",
" -,.)=-. -=-=-=-=-=-=-= -,.)=-. ",
" -@.)@-. -------------- -@.)@-. ",
" -=))@.) @@@@@@@@@@@@@@ -=))@.) ",
" =....=.  @#@#@#@#@#@#  =....=. ",
"#,,,,###@ @@@@@@@@@@@@ #,,,,###@",
",@=@@@=@- ############ ,@=@@@=@-",
",=@=@===- #,#,#,#,#,#, ,=@=@===-",
"-........              -........"};
