/* XPM */
static char * bone_spawner_xpm[] = {
"32 32 22 1",
" 	c None",
".	c #000000",
"+	c #909090",
"@	c #707070",
"#	c #A0A0A0",
"$	c #303030",
"%	c #404040",
"&	c #808080",
"*	c #505050",
"=	c #606060",
"-	c #202020",
";	c #101010",
">	c #C00000",
",	c #800000",
"'	c #FF0000",
")	c #B0B0B0",
"!	c #C0C0C0",
"~	c #A00000",
"{	c #E00000",
"]	c #E03800",
"^	c #FF4000",
"/	c #600000",
"              .   .             ",
"          .. .+...@. ..         ",
"         .#+.$.+%&.$.+#.        ",
"        .#+*&$*&*@%$&*+#.       ",
"       .+%&%@$*==%%$@%&%+.      ",
"       .&$@$@*$#=#$*@$@$&.      ",
"       .@$=$=%-$%$-%=$=$@.      ",
"       .=..-*$--$--$*-..=.      ",
"        .  .-;;$>$;;-.  .       ",
"            .$*%-%%$.           ",
"           .%*%-,-*%%.          ",
"           .%*$.'.$*%.          ",
"            .%%...%*.           ",
"           .&-&-,-&-&.          ",
"        ...%+%+%,%+%+%...       ",
"      ..&##*%*%*'%*%**=)#..     ",
"     .#)!&#=*@=*'@@=%@&+&#!..   ",
"   ..)#@*=@,,~~{'{>~,,@@*@&##.  ",
"  .#)!@,~~>>'>]~{~>{{{{>~,@&#+. ",
" .!&@@~>>{{{{]']''~]{{{{{~,@@#+.",
" .&#,,{~~~>>>]>'']{>'^]^'{{~,#!.",
" .#!>>{{'']'^>^{{{~{]{{{{^{>>!+.",
" .&#,~~>>>>{{{>]{^{{{{'{{{>>~+#.",
" .#&/,,{,,,~~~~>>>>>>{{>{>~~,+#.",
" .=##//,~~~~>'{{{{{{'{>>~~,,&#*.",
" .+&#&#//,{~~>{{{>>>~~,///+)#%*.",
" .=&=!#)!&&///,,,~~,//&#!!#+*%%.",
"  .++&=#&)#&)#&#)##&&)!&#+%=*%. ",
"   .=&+@=&=#)!#&!)&#!#=&*=*%%.  ",
"    ..=&*=@&=*=&*&&=**&%*%...   ",
"      .....@&*&=*%=%*%....      ",
"           ...........          "};
