/* XPM */
static char * bone_wall2_xpm[] = {
"32 32 13 1",
" 	c #202020",
".	c #303030",
"+	c #101010",
"@	c #D0D0D0",
"#	c #E0E0E0",
"$	c #C0C0C0",
"%	c #B0B0B0",
"&	c #909090",
"*	c #707070",
"=	c #A0A0A0",
"-	c #404040",
";	c #505050",
">	c #808080",
" . .. .. +. +. .. ..  +.  ..+.+ ",
"+@@@##$@@$%@$$##$@@$@@@@&+$%$@@*",
"+$%%%%=%%**@&*%&%=%&=%=&+.$=&=%-",
"+@=%=&%=&*@&*=&=&%=&==&++$=%%%%;",
" #%@....;+..-...*&.....+--*-.=&;",
".@=@.;+;+.++--+==;-$%&+.+++*-=&-",
"+#=%;+;&%&+;*&.=&-+@@$%+@&&+.%%;",
" @%&*+&@@%&;&&*.++;++@++++@&+%=-",
".#&&;+&@&%&+*;..&&%;&%&++*-&.==;",
" #=%.&+&+&+.+;+.%@@%+--++++@.&%-",
".@&=.&.%;+*;++.;&&@@%&+;-&+&+=%;",
"+@%=.;;.&%+&*%;++%+@&..&++-@-=&-",
"+@*=*&*-++++;*+%.+%+;+;&++&++%&;",
"+$***&+;-;+&%&%.;.;;;+-+@&@-+%%;",
" $&*;*-+...++*.+.&+;&;+@++&&+=&-",
".#&&.++.;;.+&%+++.+;.+..+&@@.&%;",
".@&&.+&%%&;++&+&&+;&&++;+&#@@=%-",
" #%&.;%+@%;&+*;++&;&+%@&+&#@&&%;",
".#=%.;@@@%-++;&.&++.+&@@&++&-%%;",
" @=%.+;%%&.%%+%+%%*.+@@@=+;;.=&-",
".@%&.;*;+.;+++*;+;+-.%+%=.++-$-;",
"+#%&;=&&;%++%%&+&%%-.+.*;.&+++..",
" @&=;=&*;%++&++;%++;.+==;&%-+-++",
".$&=-;+*-+&%*+;++;+*;..++-+-+=-+",
"+#=%.;--%%**+%%+%;*;&&+@&%&++%=.",
"+$%&.+>&@+@+%++;+;&*.+%*&;==.=&-",
" #&=..>+@@%&++%-.;-&+.;.;@+;-=&;",
".@=%.>.+;%%+-+--.+;&+;.+;&@*-%>-",
".#%&.+++-;;-++..+;+.++++.;=-+==;",
" #%=%&=;=%=&%%==%=&=&%%&%&&%=%&;",
"+@%%&%;+%&%%%%%&%&&&&&&=&=%===%-",
"+;--;;.+.;----;;-;;;-;;;--;;----"};
