/* XPM */
static char * diamond_spawner_xpm[] = {
"32 32 803 2",
"  	c None",
". 	c #D81AC9",
"+ 	c #D316C6",
"@ 	c #D615C9",
"# 	c #D611C9",
"$ 	c #D413C5",
"% 	c #D311C5",
"& 	c #D012C2",
"* 	c #D213C6",
"= 	c #CC13C1",
"- 	c #CE14C2",
"; 	c #D313C4",
"> 	c #C41FB7",
", 	c #D819CA",
"' 	c #D219C5",
") 	c #CE16C2",
"! 	c #D216C5",
"~ 	c #CD14C1",
"{ 	c #CE15C1",
"] 	c #C916BF",
"^ 	c #CA17C0",
"/ 	c #CB15BE",
"( 	c #D714C9",
"_ 	c #D11CC4",
": 	c #D126C5",
"< 	c #B524AA",
"[ 	c #C524BB",
"} 	c #D11AC2",
"| 	c #CA1DBE",
"1 	c #D21EC5",
"2 	c #D81BCB",
"3 	c #C31EBA",
"4 	c #D020C4",
"5 	c #B21EAA",
"6 	c #C221B9",
"7 	c #B51FAE",
"8 	c #C519B9",
"9 	c #C81BBD",
"0 	c #D71AC9",
"a 	c #CC1AC1",
"b 	c #D21BC6",
"c 	c #CA20C0",
"d 	c #C027B8",
"e 	c #A730A4",
"f 	c #A720A0",
"g 	c #AE1BA6",
"h 	c #C21CB8",
"i 	c #CA1BBE",
"j 	c #D11EC4",
"k 	c #C822BD",
"l 	c #D926CA",
"m 	c #C32AB8",
"n 	c #C426B9",
"o 	c #A330A0",
"p 	c #992F97",
"q 	c #A62BA2",
"r 	c #BD27B5",
"s 	c #D91FCA",
"t 	c #D11FC5",
"u 	c #C51CBC",
"v 	c #CC1CC1",
"w 	c #C61FBE",
"x 	c #B91FB3",
"y 	c #AB29A9",
"z 	c #B22DAD",
"A 	c #C01DB5",
"B 	c #BC1DB4",
"C 	c #B118A9",
"D 	c #C418B9",
"E 	c #C91CBD",
"F 	c #C51FB8",
"G 	c #CE2DC1",
"H 	c #CE2AC1",
"I 	c #DA2ACA",
"J 	c #C02CB5",
"K 	c #962E93",
"L 	c #89318A",
"M 	c #A530A0",
"N 	c #C034B8",
"O 	c #CE30C2",
"P 	c #B92AB1",
"Q 	c #B326AC",
"R 	c #C124B8",
"S 	c #B725B0",
"T 	c #B920B2",
"U 	c #B421AE",
"V 	c #BC24B5",
"W 	c #BB2FB4",
"X 	c #D121C4",
"Y 	c #C51ABA",
"Z 	c #C616BA",
"` 	c #B519AD",
" .	c #B419AA",
"..	c #BB23B2",
"+.	c #C323B8",
"@.	c #C026B5",
"#.	c #BF34B6",
"$.	c #CC36C1",
"%.	c #CC38C1",
"&.	c #AF30A8",
"*.	c #923791",
"=.	c #933592",
"-.	c #B140AE",
";.	c #A443A3",
">.	c #C039BA",
",.	c #963797",
"'.	c #A22EA0",
").	c #B423AD",
"!.	c #B922B2",
"~.	c #B420AE",
"{.	c #B524AF",
"].	c #B32BAE",
"^.	c #D21BC4",
"/.	c #D818CA",
"(.	c #D31BC6",
"_.	c #B71BB0",
":.	c #A31E9E",
"<.	c #9B2597",
"[.	c #9A2C97",
"}.	c #A32B9C",
"|.	c #AF36A9",
"1.	c #AE32A7",
"2.	c #BD34B4",
"3.	c #AF3AA9",
"4.	c #924791",
"5.	c #CA4EC3",
"6.	c #A64EA5",
"7.	c #A74FA6",
"8.	c #A84EA7",
"9.	c #964097",
"0.	c #913492",
"a.	c #A02D9E",
"b.	c #AE28AA",
"c.	c #BA20B3",
"d.	c #B31FAC",
"e.	c #B12AAB",
"f.	c #C826BF",
"g.	c #C71BBC",
"h.	c #CD19C2",
"i.	c #D120C5",
"j.	c #BC24B3",
"k.	c #AA2BA3",
"l.	c #893189",
"m.	c #A0379C",
"n.	c #A02F9A",
"o.	c #A0339B",
"p.	c #DD49CF",
"q.	c #B84CB2",
"r.	c #A64BA3",
"s.	c #A651A6",
"t.	c #825589",
"u.	c #925195",
"v.	c #945397",
"w.	c #835289",
"x.	c #784A7F",
"y.	c #943194",
"z.	c #AF2AAA",
"A.	c #BD1BB4",
"B.	c #C01BB7",
"C.	c #B924B1",
"D.	c #B930B2",
"E.	c #C523BC",
"F.	c #C11CB7",
"G.	c #C61CBC",
"H.	c #C321BB",
"I.	c #AE21A8",
"J.	c #AD2FA8",
"K.	c #A537A3",
"L.	c #B138AB",
"M.	c #933892",
"N.	c #A1379C",
"O.	c #A23A9B",
"P.	c #CA42BE",
"Q.	c #B846B0",
"R.	c #DC4DD1",
"S.	c #CA4CC2",
"T.	c #B850B4",
"U.	c #945699",
"V.	c #82578A",
"W.	c #935496",
"X.	c #83568A",
"Y.	c #824986",
"Z.	c #7E4885",
"`.	c #963597",
" +	c #B726B1",
".+	c #C319BB",
"++	c #CD1CC3",
"@+	c #D120C6",
"#+	c #B629B1",
"$+	c #A02D9D",
"%+	c #D129C7",
"&+	c #C724BE",
"*+	c #C11FB9",
"=+	c #B820B0",
"-+	c #A426A0",
";+	c #A52BA2",
">+	c #9C399C",
",+	c #B23AAE",
"'+	c #A23AA0",
")+	c #A2379E",
"!+	c #7F4282",
"~+	c #A543A0",
"{+	c #DC4BD1",
"]+	c #944994",
"^+	c #A64BA4",
"/+	c #B950B4",
"(+	c #CA51C4",
"_+	c #805186",
":+	c #6B4F74",
"<+	c #805486",
"[+	c #804B85",
"}+	c #76477C",
"|+	c #9B3E9B",
"1+	c #AF27AA",
"2+	c #C21DB9",
"3+	c #D31AC5",
"4+	c #C31FBB",
"5+	c #B520AE",
"6+	c #A725A3",
"7+	c #CC22C4",
"8+	c #CD22C3",
"9+	c #C726C0",
"0+	c #AC27A7",
"a+	c #A035A0",
"b+	c #933C95",
"c+	c #993998",
"d+	c #A33BA1",
"e+	c #B13FAD",
"f+	c #874E8C",
"g+	c #CB4CC3",
"h+	c #DC49D0",
"i+	c #954C97",
"j+	c #86538D",
"k+	c #A751A7",
"l+	c #965299",
"m+	c #965699",
"n+	c #B74DB2",
"o+	c #7F5085",
"p+	c #6C5075",
"q+	c #7E4D82",
"r+	c #6C4B74",
"s+	c #834586",
"t+	c #A144A2",
"u+	c #B12BAB",
"v+	c #D121C7",
"w+	c #C51ABC",
"x+	c #BF1CB7",
"y+	c #BA1DB3",
"z+	c #A61E9F",
"A+	c #962492",
"B+	c #D61FCC",
"C+	c #D224C9",
"D+	c #CB28C4",
"E+	c #BF35BB",
"F+	c #AC42AD",
"G+	c #994C9D",
"H+	c #954899",
"I+	c #A245A2",
"J+	c #BA4EB6",
"K+	c #CB53C6",
"L+	c #9B579F",
"M+	c #AA56AC",
"N+	c #AA55AB",
"O+	c #7B5B87",
"P+	c #795984",
"Q+	c #895A91",
"R+	c #B957B8",
"S+	c #935195",
"T+	c #805187",
"U+	c #B74CB2",
"V+	c #7D4981",
"W+	c #804C85",
"X+	c #964E98",
"Y+	c #AD47AA",
"Z+	c #C233BA",
"`+	c #BC24B4",
" @	c #BD1CB5",
".@	c #C41CBC",
"+@	c #BC1AB5",
"@@	c #B11FAB",
"#@	c #9A1F94",
"$@	c #D21EC8",
"%@	c #CD23C5",
"&@	c #D12EC9",
"*@	c #BD40BB",
"=@	c #B549B5",
"-@	c #A34EA5",
";@	c #AF54B1",
">@	c #A250A4",
",@	c #CA56C6",
"'@	c #AA55AC",
")@	c #7C5A87",
"!@	c #7D5D8A",
"~@	c #8D5F97",
"{@	c #7F618C",
"]@	c #8C5D96",
"^@	c #9A5A9E",
"/@	c #CA58C6",
"(@	c #935097",
"_@	c #935095",
":@	c #924D94",
"<@	c #CA48C0",
"[@	c #B94EB4",
"}@	c #DB4ED1",
"|@	c #BA43B5",
"1@	c #A537A1",
"2@	c #B526AF",
"3@	c #BB20B4",
"4@	c #BF1AB7",
"5@	c #B81CB0",
"6@	c #AC1AA5",
"7@	c #9B1D96",
"8@	c #8A2588",
"9@	c #D21CC8",
"0@	c #CD22C5",
"a@	c #D02DC9",
"b@	c #C44AC4",
"c@	c #B253B4",
"d@	c #A154A5",
"e@	c #A054A5",
"f@	c #AC63B1",
"g@	c #DA5DD6",
"h@	c #9C5DA2",
"i@	c #8D5D95",
"j@	c #7E5C8A",
"k@	c #8E5B96",
"l@	c #9F63A6",
"m@	c #BB61BE",
"n@	c #AB61B0",
"o@	c #875990",
"p@	c #B959B9",
"q@	c #98589B",
"r@	c #84528B",
"s@	c #A647A3",
"t@	c #944794",
"u@	c #933E90",
"v@	c #974096",
"w@	c #90338E",
"x@	c #BC29B3",
"y@	c #B81DAF",
"z@	c #B81CB1",
"A@	c #B61BAF",
"B@	c #AB1BA4",
"C@	c #951F91",
"D@	c #891F86",
"E@	c #D61DCB",
"F@	c #D322C9",
"G@	c #CA33C5",
"H@	c #CD4FCC",
"I@	c #BE5EC0",
"J@	c #AE58B1",
"K@	c #9F65A8",
"L@	c #9C67A5",
"M@	c #D967D7",
"N@	c #AC61B0",
"O@	c #8E6198",
"P@	c #9E61A5",
"Q@	c #AE64B4",
"R@	c #A064A8",
"S@	c #CB63CB",
"T@	c #7C638A",
"U@	c #995B9E",
"V@	c #87598F",
"W@	c #75507D",
"X@	c #734B7B",
"Y@	c #864B8A",
"Z@	c #954092",
"`@	c #A93FA3",
" #	c #BD39B5",
".#	c #992796",
"+#	c #B51CAD",
"@#	c #B61CAE",
"##	c #B51BAE",
"$#	c #A51E9F",
"%#	c #931B8F",
"&#	c #8F218B",
"*#	c #D21DC8",
"=#	c #D723CD",
"-#	c #D032CA",
";#	c #C351C3",
">#	c #CB67CD",
",#	c #CA68CC",
"'#	c #AC6BB3",
")#	c #AD6EB5",
"!#	c #CA6ACC",
"~#	c #AD69B4",
"{#	c #9E67A8",
"]#	c #AD66B4",
"^#	c #866A94",
"/#	c #A26AAB",
"(#	c #CB6BCD",
"_#	c #9F67A8",
":#	c #7E638B",
"<#	c #AA5AAC",
"[#	c #8A5C93",
"}#	c #8A5590",
"|#	c #9A539D",
"1#	c #CB48C3",
"2#	c #B93DB0",
"3#	c #BA36AF",
"4#	c #9F319A",
"5#	c #A4229D",
"6#	c #AE1EA8",
"7#	c #B519AE",
"8#	c #AD1BA6",
"9#	c #A71DA0",
"0#	c #90258F",
"a#	c #862384",
"b#	c #D31EC9",
"c#	c #CA2DC4",
"d#	c #B94BBA",
"e#	c #CB66CD",
"f#	c #AD63B3",
"g#	c #9D6FA7",
"h#	c #9A66A2",
"i#	c #9C6BA6",
"j#	c #BB69BF",
"k#	c #9D64A4",
"l#	c #7F628B",
"m#	c #81638E",
"n#	c #AD62B3",
"o#	c #9F65A7",
"p#	c #AB5AAE",
"q#	c #7A5885",
"r#	c #99509C",
"s#	c #A948A7",
"t#	c #CB3FC0",
"u#	c #863F87",
"v#	c #963A93",
"w#	c #A92FA0",
"x#	c #A2289B",
"y#	c #A923A2",
"z#	c #B71AAE",
"A#	c #BB18B1",
"B#	c #AF18A6",
"C#	c #9F1A99",
"D#	c #941D8F",
"E#	c #842A84",
"F#	c #CF1FC5",
"G#	c #D323C9",
"H#	c #CB2CC4",
"I#	c #CE43CA",
"J#	c #BF58BF",
"K#	c #90659C",
"L#	c #886293",
"M#	c #A962AE",
"N#	c #A964AF",
"O#	c #CA67CB",
"P#	c #7D658A",
"Q#	c #7E628B",
"R#	c #9D5EA3",
"S#	c #9D58A1",
"T#	c #BC5ABC",
"U#	c #CB61CA",
"V#	c #9D5AA2",
"W#	c #9A539E",
"X#	c #A947A6",
"Y#	c #CB41C1",
"Z#	c #863C86",
"`#	c #963390",
" $	c #972F90",
".$	c #9C2C96",
"+$	c #9A2195",
"@$	c #B61DAC",
"#$	c #B818AF",
"$$	c #B914B1",
"%$	c #B316A9",
"&$	c #9F1A9A",
"*$	c #90248D",
"=$	c #962892",
"-$	c #CD24C4",
";$	c #CD26C4",
">$	c #D52BCD",
",$	c #D637CF",
"'$	c #9D4CA1",
")$	c #935198",
"!$	c #865A8D",
"~$	c #955799",
"{$	c #965B9B",
"]$	c #CA61C8",
"^$	c #885F92",
"/$	c #785A83",
"($	c #7A5684",
"_$	c #9C56A0",
":$	c #9F5BA5",
"<$	c #BD5ABC",
"[$	c #CB50C6",
"}$	c #BA51B8",
"|$	c #CB47C3",
"1$	c #984196",
"2$	c #963B93",
"3$	c #A62A9C",
"4$	c #AA31A2",
"5$	c #9F2295",
"6$	c #AE1EA4",
"7$	c #C31BB6",
"8$	c #C116B6",
"9$	c #B814AE",
"0$	c #B618AC",
"a$	c #BA21AF",
"b$	c #9A2795",
"c$	c #862584",
"d$	c #D12CC9",
"e$	c #D72BCD",
"f$	c #D12DCA",
"g$	c #BB31B7",
"h$	c #A53BA5",
"i$	c #A542A4",
"j$	c #97539B",
"k$	c #B954B6",
"l$	c #CA53C4",
"m$	c #83588B",
"n$	c #96579A",
"o$	c #74547E",
"p$	c #89518F",
"q$	c #8B5091",
"r$	c #AD52AE",
"s$	c #A159A6",
"t$	c #9D4FA0",
"u$	c #AA48A8",
"v$	c #A840A3",
"w$	c #BA39AF",
"x$	c #822E7F",
"y$	c #882A85",
"z$	c #971E90",
"A$	c #A11799",
"B$	c #BE18B4",
"C$	c #C714BB",
"D$	c #C316B8",
"E$	c #BC1CB1",
"F$	c #A1219A",
"G$	c #892B88",
"H$	c #7E2E7F",
"I$	c #D02EC7",
"J$	c #CB29C3",
"K$	c #BE29B8",
"L$	c #B72EB3",
"M$	c #B831B2",
"N$	c #CD3AC3",
"O$	c #CB4DC3",
"P$	c #955498",
"Q$	c #714C78",
"R$	c #795281",
"S$	c #8C4E91",
"T$	c #9F4FA2",
"U$	c #915197",
"V$	c #A051A2",
"W$	c #9A459A",
"X$	c #CB46C2",
"Y$	c #994A99",
"Z$	c #A738A0",
"`$	c #722D71",
" %	c #802A7F",
".%	c #931B8D",
"+%	c #A918A1",
"@%	c #B91AB2",
"#%	c #BA17AF",
"$%	c #AA21A3",
"%%	c #9D2297",
"&%	c #882786",
"*%	c #852A83",
"=%	c #C632C0",
"-%	c #CA26C1",
";%	c #C524BF",
">%	c #BE21B6",
",%	c #D028C6",
"'%	c #B831B3",
")%	c #8A408C",
"!%	c #844887",
"~%	c #B94DB4",
"{%	c #834987",
"]%	c #8A5190",
"^%	c #8E5194",
"/%	c #83508B",
"(%	c #925198",
"_%	c #915297",
":%	c #9B4E9E",
"<%	c #CC41C1",
"[%	c #BC30B1",
"}%	c #892085",
"|%	c #A01898",
"1%	c #B719AE",
"2%	c #CB1BBF",
"3%	c #AE1CA6",
"4%	c #A6219F",
"5%	c #8E288C",
"6%	c #802F82",
"7%	c #7E3080",
"8%	c #CA2BC1",
"9%	c #D220C7",
"0%	c #D21DC6",
"a%	c #C621BD",
"b%	c #B924B2",
"c%	c #AF2DAB",
"d%	c #904192",
"e%	c #BB4CB7",
"f%	c #A843A4",
"g%	c #884C8D",
"h%	c #7C5084",
"i%	c #7F4C87",
"j%	c #904893",
"k%	c #844F8C",
"l%	c #8E4A91",
"m%	c #9E54A1",
"n%	c #AB4CAA",
"o%	c #CC49C4",
"p%	c #8E3E8E",
"q%	c #CD30C0",
"r%	c #D024C2",
"s%	c #C119B6",
"t%	c #BB17B1",
"u%	c #C320BA",
"v%	c #A625A1",
"w%	c #982795",
"x%	c #8E298C",
"y%	c #89358A",
"z%	c #803682",
"A%	c #CF2FC6",
"B%	c #CB22C1",
"C%	c #C91ABF",
"D%	c #C41BBC",
"E%	c #BD1AB5",
"F%	c #BD1DB3",
"G%	c #9B2A98",
"H%	c #B336AE",
"I%	c #933F94",
"J%	c #914192",
"K%	c #924695",
"L%	c #85478B",
"M%	c #87488D",
"N%	c #A248A2",
"O%	c #914794",
"P%	c #A14EA3",
"Q%	c #A04DA3",
"R%	c #DA44D0",
"S%	c #9B3499",
"T%	c #A628A2",
"U%	c #B921B1",
"V%	c #D119C5",
"W%	c #BF17B7",
"X%	c #C51DBA",
"Y%	c #B828B2",
"Z%	c #A82DA5",
"`%	c #943295",
" &	c #8E308D",
".&	c #833485",
"+&	c #C223B9",
"@&	c #C41BBA",
"#&	c #C119B8",
"$&	c #BD18B4",
"%&	c #BF19B6",
"&&	c #B128AB",
"*&	c #BC2DB5",
"=&	c #AE2EA8",
"-&	c #AC38AA",
";&	c #A03DA1",
">&	c #9F3FA0",
",&	c #A93EA8",
"'&	c #9B3F9C",
")&	c #9B3B9A",
"!&	c #A93EA9",
"~&	c #CE33C5",
"{&	c #B329AE",
"]&	c #B226AE",
"^&	c #B71AAF",
"/&	c #BF17B6",
"(&	c #D11AC4",
"_&	c #C122B8",
":&	c #AD23A7",
"<&	c #9A2998",
"[&	c #922F91",
"}&	c #872D87",
"|&	c #833886",
"1&	c #BF1AB6",
"2&	c #C618BB",
"3&	c #C41ABC",
"4&	c #C41CBB",
"5&	c #BF20B8",
"6&	c #C420BB",
"7&	c #CA28C1",
"8&	c #D12BC7",
"9&	c #C02DBA",
"0&	c #AD31AA",
"a&	c #BD2FB8",
"b&	c #CF2DC5",
"c&	c #D029C4",
"d&	c #C127B8",
"e&	c #BA23B4",
"f&	c #BD22B6",
"g&	c #B81FB1",
"h&	c #D01FC5",
"i&	c #AE21A9",
"j&	c #A821A1",
"k&	c #A1269C",
"l&	c #90298E",
"m&	c #8C2F8C",
"n&	c #B81AB0",
"o&	c #C118B8",
"p&	c #C11BBA",
"q&	c #CE1BC3",
"r&	c #D21DC5",
"s&	c #C722BD",
"t&	c #D124C8",
"u&	c #D626CC",
"v&	c #C424BC",
"w&	c #B623B0",
"x&	c #BD25B7",
"y&	c #C326BB",
"z&	c #BC25B5",
"A&	c #A91FA4",
"B&	c #AD20A6",
"C&	c #BE21B5",
"D&	c #D020C1",
"E&	c #AD28A7",
"F&	c #9E289A",
"G&	c #9B2D98",
"H&	c #8B2888",
"I&	c #BB21B2",
"J&	c #B920B3",
"K&	c #C31EBB",
"L&	c #C41BBB",
"M&	c #D31CC7",
"N&	c #C51BBC",
"O&	c #C11AB8",
"P&	c #C31CBA",
"Q&	c #C21EBA",
"R&	c #BC22B6",
"S&	c #BF23B8",
"T&	c #BD23B5",
"U&	c #B329AF",
"V&	c #C028B8",
"W&	c #AA28A5",
"X&	c #A2209D",
"Y&	c #A920A1",
"Z&	c #A4259E",
"`&	c #AD23A5",
" *	c #C220B5",
".*	c #B623AA",
"+*	c #B41FA9",
"@*	c #BE28B6",
"#*	c #D126C6",
"$*	c #CB21C3",
"%*	c #BD22B7",
"&*	c #C223BB",
"**	c #C220B9",
"=*	c #B526B0",
"-*	c #B025AB",
";*	c #B42AB0",
">*	c #AB2EA9",
",*	c #A52DA2",
"'*	c #B131AD",
")*	c #BB32B6",
"!*	c #AE2EA9",
"~*	c #953094",
"{*	c #9E299A",
"]*	c #92268E",
"^*	c #9D2197",
"/*	c #9B2997",
"(*	c #A337A4",
"_*	c #B333AE",
":*	c #AD33AA",
"<*	c #AF31AC",
"[*	c #B833B4",
"}*	c #A734A6",
"|*	c #A137A2",
"1*	c #A234A1",
"2*	c #9A399C",
"3*	c #9C3B9E",
"4*	c #973899",
"5*	c #9F349C",
"6*	c #A73AA5",
"7*	c #983898",
"8*	c #983797",
"9*	c #8C2D8B",
"0*	c #8C2A8A",
"a*	c #8E228A",
"b*	c #9A2A96",
"c*	c #9F3EA0",
"d*	c #954099",
"e*	c #95419A",
"f*	c #8E4694",
"g*	c #8D4692",
"h*	c #894C92",
"i*	c #8E4292",
"j*	c #8B4690",
"k*	c #893F8D",
"l*	c #953794",
"m*	c #943D95",
"n*	c #853E89",
"o*	c #853888",
"p*	c #803582",
"q*	c #823284",
"r*	c #8A5894",
"s*	c #82558D",
"t*	c #885591",
"u*	c #7F5A8B",
"v*	c #7F4B87",
"w*	c #7D4785",
"x*	c #844488",
"y*	c #833F87",
"z*	c #843785",
"A*	c #833C86",
"B*	c #7B3B80",
"                  . + @ # $ % & * = - ;                         ",
"              > . , ' ) ! ~ { ] { ^ / ( _ :                     ",
"          < [ } | 1 2 3 4 5 6 7 8 9 0 a b c d e                 ",
"        f g h i j k l m n o p q r s t u v w x y z               ",
"      A B C D E F G H I J K L M N O P Q R S T U V W             ",
"    X Y Z `  ...+.@.#.$.%.&.*.=.$.-.;.>.,.'.).!.~.{.].          ",
"    ^./.(._.:.<.[.}.|.1.2.%.3.4.5.6.7.8.9.0.a.b.c.U d.e.        ",
"  f.g.h.b i.j.k.l.=.m.n.o.p.q.r.s.t.u.v.w.x.y.z.U A.B.C.D.      ",
"  E.F.G.H.I.J.K.L.M.N.O.P.Q.R.S.T.U.V.W.X.Y.Z.`. +.+++@+#+$+    ",
"%+&+*+=+-+;+>+,+'+)+!+~+{+]+^+/+(+_+:+<+W.[+}+|+1+2+3+4+5+6+    ",
"7+8+9+0+a+b+c+d+e+f+g+h+i+j+k+l+m+n+o+p+q+r+s+t+u+v+w+x+y+z+A+  ",
"B+C+D+E+F+G+H+I+J+K+L+M+N+O+P+Q+R+S+T+U+V+W+X+Y+Z+`+ @.@+@@@#@  ",
"$@%@&@*@=@-@;@>@,@'@)@!@~@{@]@^@/@(@_@:@<@[@}@|@1@2@3@4@5@6@7@8@",
"9@0@a@b@c@d@e@f@g@h@i@j@k@l@m@n@o@p@q@r@s@t@u@v@w@x@y@z@A@B@C@D@",
"E@F@G@H@I@J@K@L@M@N@O@P@Q@R@S@f@T@U@V@W@X@Y@Z@`@ #.#+#@###$#%#&#",
"*#=#-#;#>#,#'#)#!#~#{#]#^#/#(#_#:#<#[#}#|#1#2#3#4#5#6#7#8#9#0#a#",
"b#F@c#d#e#f#g#h#i#j#k#l#m#n#S@o#p#q#r#s#t#u#v#w#x#y#z#A#B#C#D#E#",
"F#G#H#I#J#K#L#M#N#O#P#Q#R#S#T#U#V#W#X#Y#Z#`# $.$+$@$#$$$%$&$*$=$",
"-$;$>$,$'$)$!$~${$]$^$/$($_$:$<$[$}$|$1$2$3$4$5$6$7$8$9$0$a$b$c$",
"d$e$f$g$h$i$j$k$l$m$n$o$p$q$r$s$t$|$u$v$w$x$y$z$A$B$C$D$E$F$G$H$",
"  I$J$K$L$M$N$O$T.P$n$Q$R$S$T$U$V$W$X$Y$Z$`$ %.%+%@%/ #%$%%%&%*%",
"  =%-%;%>%,%'%)%!%k+~%{%]%^%/%(%_%:%}@g+<%[%}%|%1%` 2%3%4%5%6%7%",
"    8%9%0%a%b%c%d%e%f%g%h%i%j%k%l%m%n%o%p%q%r%s%t%y+u%v%w%x%y%z%",
"    A%B%C%D%E%F%G%H%I%J%K%L%M%N%O%P%Q%R%S%T%U%V%W%X%Y%Z%`% &.&  ",
"      +&@&#&$&%&y+&&*&=&-&;&>&,&'&)&!&~&{&]&^&/&(&_&:&<&[&}&|&  ",
"        A.1&#&2&3&4&5&6&7&8&9&0&a&b&c&d&e&f&g&A.h&i&j&k&l&m&    ",
"          n&5@4&o&p&q&(.r&s&@+t&u&v&w&x&y&z&A&B&C&D&E&F&G&H&    ",
"            I&J&K&L&M&N&O&P&Q&R&w&S&T&U&V&W&X&Y&Z&`& *.*+*      ",
"              @*#*#*$*%*&***=*-*;*>*,*'*)*!*~*{*]*^*l&/*        ",
"                (*_*:*<*[*}*|*1*2*3*4*5*6*7*8*9*0*a*b*          ",
"                    c*d*e*f*g*h*i*j*k*l*m*n*o*p*q*              ",
"                        r*s*t*u*v*w*x*y*z*A*B*                  "};
