/* XPM */
static char * diamond_door_open_xpm[] = {
"32 32 376 2",
"  	c None",
". 	c #642D8A",
"+ 	c #562675",
"@ 	c #23142B",
"# 	c #351946",
"$ 	c #341845",
"% 	c #552774",
"& 	c #7633A3",
"* 	c #8939BB",
"= 	c #883ABB",
"- 	c #7D146E",
"; 	c #341A46",
"> 	c #441F5C",
", 	c #8A1374",
"' 	c #471241",
") 	c #24142D",
"! 	c #351A46",
"~ 	c #441F5B",
"{ 	c #A46BCD",
"] 	c #944FC3",
"^ 	c #A46ACC",
"/ 	c #DA2AD9",
"( 	c #9F219D",
"_ 	c #21122C",
": 	c #23132D",
"< 	c #562774",
"[ 	c #701665",
"} 	c #23132F",
"| 	c #8E31B1",
"1 	c #A91EA0",
"2 	c #7432A2",
"3 	c #632B88",
"4 	c #24142E",
"5 	c #582775",
"6 	c #9B38C7",
"7 	c #912294",
"8 	c #C22ECC",
"9 	c #331A46",
"0 	c #C91AB2",
"a 	c #581E65",
"b 	c #C42DCE",
"c 	c #B52EC4",
"d 	c #DF32F0",
"e 	c #441E5B",
"f 	c #532474",
"g 	c #23122E",
"h 	c #D821C9",
"i 	c #630D50",
"j 	c #6D2682",
"k 	c #D92BD7",
"l 	c #AF1593",
"m 	c #CF69E6",
"n 	c #351B46",
"o 	c #23142D",
"p 	c #341947",
"q 	c #EE4AF9",
"r 	c #BF2ECB",
"s 	c #EC29E3",
"t 	c #C035DD",
"u 	c #924FC3",
"v 	c #C74DE2",
"w 	c #DB32ED",
"x 	c #E200A1",
"y 	c #9350C2",
"z 	c #F449FC",
"A 	c #642D8B",
"B 	c #E62ADE",
"C 	c #2C3919",
"D 	c #80075F",
"E 	c #86248E",
"F 	c #2B2620",
"G 	c #2D4017",
"H 	c #32491D",
"I 	c #9F209B",
"J 	c #931178",
"K 	c #9E178B",
"L 	c #D32CD4",
"M 	c #9F0F7D",
"N 	c #3E2517",
"O 	c #841B7E",
"P 	c #8839BB",
"Q 	c #5B1E67",
"R 	c #C20094",
"S 	c #301A29",
"T 	c #28301E",
"U 	c #2A3418",
"V 	c #2D3C1A",
"W 	c #36400F",
"X 	c #374431",
"Y 	c #274E25",
"Z 	c #C026BB",
"` 	c #E867F5",
" .	c #C535DF",
"..	c #7633A4",
"+.	c #542775",
"@.	c #A50D82",
"#.	c #292129",
"$.	c #312735",
"%.	c #233F32",
"&.	c #2C4649",
"*.	c #2A3E24",
"=.	c #244E30",
"-.	c #264823",
";.	c #273C25",
">.	c #2B4513",
",.	c #4B1853",
"'.	c #6A0C54",
").	c #7733A4",
"!.	c #1D314C",
"~.	c #1D383B",
"{.	c #1F3F2E",
"].	c #183F2A",
"^.	c #1E3E2D",
"/.	c #1D441D",
"(.	c #184026",
"_.	c #1B4628",
":.	c #1D4A26",
"<.	c #E827EB",
"[.	c #7C2C98",
"}.	c #D122C4",
"|.	c #BA2EC8",
"1.	c #77146A",
"2.	c #7632A3",
"3.	c #7E1B7A",
"4.	c #BB1CAF",
"5.	c #B92EC8",
"6.	c #DD00A4",
"7.	c #0F3355",
"8.	c #193F5F",
"9.	c #1A3E4E",
"0.	c #253F42",
"a.	c #224A4D",
"b.	c #1D3E31",
"c.	c #1F4F31",
"d.	c #214B35",
"e.	c #21543B",
"f.	c #236141",
"g.	c #1E4E31",
"h.	c #F822FD",
"i.	c #F666FC",
"j.	c #CC4DE3",
"k.	c #A20E7E",
"l.	c #E30FD4",
"m.	c #E300C1",
"n.	c #DD1EDB",
"o.	c #1D3D62",
"p.	c #274B68",
"q.	c #164652",
"r.	c #1F4B50",
"s.	c #1F4F41",
"t.	c #205740",
"u.	c #276448",
"v.	c #2D604A",
"w.	c #1E573D",
"x.	c #1D6948",
"y.	c #1E693D",
"z.	c #A1209D",
"A.	c #EF2FF9",
"B.	c #640B51",
"C.	c #8D1275",
"D.	c #E700AD",
"E.	c #732585",
"F.	c #19535C",
"G.	c #206064",
"H.	c #184D4C",
"I.	c #195446",
"J.	c #1F534B",
"K.	c #236249",
"L.	c #2F5E58",
"M.	c #275B4C",
"N.	c #275346",
"O.	c #284F43",
"P.	c #21423A",
"Q.	c #9531B4",
"R.	c #954FC3",
"S.	c #A60B85",
"T.	c #174D55",
"U.	c #184D57",
"V.	c #286D70",
"W.	c #1A6455",
"X.	c #255262",
"Y.	c #286564",
"Z.	c #2A7B5D",
"`.	c #28705D",
" +	c #276C61",
".+	c #2C5743",
"++	c #315444",
"@+	c #234B3D",
"#+	c #1F5B40",
"$+	c #3F113C",
"%+	c #1C5E5E",
"&+	c #1F6058",
"*+	c #226859",
"=+	c #287077",
"-+	c #267671",
";+	c #316966",
">+	c #2C6C69",
",+	c #296659",
"'+	c #29665A",
")+	c #2B745B",
"!+	c #276651",
"~+	c #285D49",
"{+	c #2E6143",
"]+	c #23716C",
"^+	c #296C75",
"/+	c #235D6D",
"(+	c #236664",
"_+	c #26635F",
":+	c #235F5F",
"<+	c #277A63",
"[+	c #28694F",
"}+	c #2A6257",
"|+	c #2B7A58",
"1+	c #35715B",
"2+	c #35594B",
"3+	c #325645",
"4+	c #F749FD",
"5+	c #186B61",
"6+	c #227B6E",
"7+	c #245C67",
"8+	c #1B665A",
"9+	c #1E6759",
"0+	c #25645C",
"a+	c #1F7259",
"b+	c #18574A",
"c+	c #1A6A55",
"d+	c #1F6050",
"e+	c #2D7252",
"f+	c #2A5C44",
"g+	c #2D4D42",
"h+	c #217464",
"i+	c #218B70",
"j+	c #1B7F62",
"k+	c #20716B",
"l+	c #1D6162",
"m+	c #1B5F65",
"n+	c #145652",
"o+	c #12584F",
"p+	c #125752",
"q+	c #18473D",
"r+	c #215C4F",
"s+	c #235147",
"t+	c #29544C",
"u+	c #1A7767",
"v+	c #1E6E64",
"w+	c #196561",
"x+	c #17675E",
"y+	c #1D6055",
"z+	c #13585D",
"A+	c #124555",
"B+	c #1A4D54",
"C+	c #144A4E",
"D+	c #1A5A52",
"E+	c #23585A",
"F+	c #28474C",
"G+	c #284E50",
"H+	c #9D209B",
"I+	c #542575",
"J+	c #175D61",
"K+	c #146866",
"L+	c #186A67",
"M+	c #126463",
"N+	c #154E60",
"O+	c #14485F",
"P+	c #1A555B",
"Q+	c #25685D",
"R+	c #1D6A60",
"S+	c #1F5E62",
"T+	c #165155",
"U+	c #1F594A",
"V+	c #204E54",
"W+	c #E527EE",
"X+	c #7533A4",
"Y+	c #CC34E3",
"Z+	c #186469",
"`+	c #187473",
" @	c #21696E",
".@	c #21606A",
"+@	c #215E5E",
"@@	c #1B5059",
"#@	c #1B4E55",
"$@	c #214E4F",
"%@	c #1A4A52",
"&@	c #1F4C57",
"*@	c #265250",
"=@	c #21504F",
"-@	c #275051",
";@	c #642C89",
">@	c #D00BA4",
",@	c #C60098",
"'@	c #245D70",
")@	c #2A6072",
"!@	c #2C4B5B",
"~@	c #2A4E58",
"{@	c #2C5259",
"]@	c #23504E",
"^@	c #26555A",
"/@	c #26505A",
"(@	c #2F525B",
"_@	c #274E54",
":@	c #305361",
"<@	c #32525B",
"[@	c #355E5D",
"}@	c #E467F2",
"|@	c #F100B6",
"1@	c #305261",
"2@	c #33575D",
"3@	c #345B61",
"4@	c #3B525D",
"5@	c #3E4F54",
"6@	c #354B61",
"7@	c #2B485B",
"8@	c #2B4A55",
"9@	c #314855",
"0@	c #384A5F",
"a@	c #3D4E67",
"b@	c #36465B",
"c@	c #354F5E",
"d@	c #C424C6",
"e@	c #652C8B",
"f@	c #35515B",
"g@	c #354E5F",
"h@	c #3D555F",
"i@	c #415265",
"j@	c #374858",
"k@	c #3E4A69",
"l@	c #434E61",
"m@	c #3C4A55",
"n@	c #3F4657",
"o@	c #394756",
"p@	c #444E60",
"q@	c #44465B",
"r@	c #454A61",
"s@	c #4F1E61",
"t@	c #344659",
"u@	c #365267",
"v@	c #365467",
"w@	c #35515D",
"x@	c #334859",
"y@	c #39525B",
"z@	c #424E5B",
"A@	c #425769",
"B@	c #405965",
"C@	c #445765",
"D@	c #4E4A5B",
"E@	c #504058",
"F@	c #503E62",
"G@	c #B11EA4",
"H@	c #C90EA1",
"I@	c #2D4857",
"J@	c #344B55",
"K@	c #32435B",
"L@	c #314A54",
"M@	c #3B525F",
"N@	c #385D63",
"O@	c #3E4E5B",
"P@	c #3C5363",
"Q@	c #424C63",
"R@	c #4A4B62",
"S@	c #504664",
"T@	c #4C3B61",
"U@	c #4E375D",
"V@	c #D20099",
"W@	c #304758",
"X@	c #354C54",
"Y@	c #31465C",
"Z@	c #324C54",
"`@	c #375357",
" #	c #395B61",
".#	c #365460",
"+#	c #3C5161",
"@#	c #434F5D",
"##	c #484A63",
"$#	c #4A4A65",
"%#	c #4A3E5A",
"&#	c #503D5A",
"                              . + +                             ",
"          @ # $           % & * = & + -                         ",
"          ; > ; , ' ) ! ~ & > { ] ^ . / (                       ",
"    _ : ; < & < [ [ } ; > & < ] > ] * | 1 2 3                   ",
"    4 } & * & * < [ ; ; ; 5 6 ] < < ] 7 8 2 2 ! !               ",
"  9 ; } & ] * ] * 0 [ } ; a b < ] ] * c d e 2 f !     g g !     ",
"  9 } } * > ] > | h i ; > j k < * * | l m = & n n o o g g       ",
"  p ; > * < { & q r ; & & s < < ; ; < t < ; < } } } o g   !     ",
"u o ; > * ] { v w & < & * m v < x } 0 & & < ; } < ; n 9 9 9     ",
"y 4 } < < * * z * A > * > c B x C D ; < < ; } A & < + p 9 g 9   ",
"^ } & & < < & w c < * { ] E x F G H x ; ; } } * < & & I e o o   ",
"* < * * & ; ; i J 7 t K L M F N C G H h < } ; & > * O 8 e o o o ",
"P & > { * & } } Q 7 c c R S T U V W X Y Z 7 ; & & `  ...+.o p o ",
"..{ < { > < } } < & > @.#.$.%.&.*.=.-.;.>.B ,.0 k | < + - - '.o ",
"..).& * < & ; > < & [ c !.~.{.].^./.(._.:.c <.D ,.< [.}.|.- - 1.",
"2.% & & & & 3.4.5.[ 6.7.8.9.0.a.b.c.d.e.f.g.h.[ } j i.j.^ & p ! ",
"2.# ! 7 c h [ k.l.m.n.o.p.q.r.s.t.u.v.w.x.y.c t z.A.] ~ ^ = ..  ",
"    B.C.C.; ; ; ; D.E.F.G.H.I.J.K.L.M.N.O.P.E.c E.Q.s + R.~ *   ",
"    $ n } } } } ,.S.T.U.V.W.X.Y.Z.`. +.+++@+#+k ,.J & = R.+ ..  ",
"      o } ; ; } $+J %+&+*+=+-+;+>+,+'+)+!+~+{+z D @.< = = = 9   ",
"      o ; ; } } ; D ]+^+/+(+_+:+<+[+}+|+1+2+3+4+i } ; n & ..9   ",
"    ! o ; } } } ; } 5+6+7+8+9+0+a+b+c+d+e+f+g+z } ; 7 + ~ 9 9   ",
"    9 o @.; ; ; ; D h+i+j+k+l+m+n+o+p+q+r+s+t+s ; 0 c R.+ e     ",
"    9 '.i ; ; < } C.u+v+w+x+y+z+A+B+C+D+E+F+G+h.H+& ] ] & I+    ",
"    o n @.H+< & j J J+K+L+M+N+O+P+Q+R+S+T+U+V+W+< & * { ] X+    ",
"  g 4 n > k Y+B | J Z+`+ @.@+@@@#@$@%@&@*@=@-@A & & < { < ..    ",
";@p 4 ; > & 3.t >@,@'@)@!@~@{@]@^@/@(@_@:@<@[@[.& }@w ] & &     ",
";@~ ; ; < & * & < |@1@2@3@4@5@6@7@8@9@0@a@b@c@d@s t t + & + 4   ",
"e@~ > < j < < > > k.f@g@h@i@j@k@l@m@n@o@p@q@r@d@s@< & ~ + n n 4 ",
"e@A A & k t w c [.0 t@u@v@w@x@y@z@A@B@C@D@E@F@}.& & & . . . . n ",
"A > > < < 7 G@3.H@,@I@J@K@L@M@N@O@P@Q@R@S@T@U@r > ~ + + + + ~ n ",
"A > < < < > > > Q V@W@X@Y@Z@`@ #.#+#@###$#%#&#c > + + ~ ~ ~ ~ n "};
