/* XPM */
static char * diamond_sprite_xpm[] = {
"32 32 54 1",
" 	c None",
".	c #002768",
"+	c #000000",
"@	c #030F0F",
"#	c #041515",
"$	c #051919",
"%	c #051C1C",
"&	c #082C2C",
"*	c #093131",
"=	c #0B3D3D",
"-	c #0C0C0C",
";	c #0D4343",
">	c #104E4E",
",	c #135555",
"'	c #145959",
")	c #186666",
"!	c #1B6F6F",
"~	c #1C7171",
"{	c #1F7979",
"]	c #207D7D",
"^	c #238484",
"/	c #289292",
"(	c #289494",
"_	c #2A2A2A",
":	c #30184C",
"<	c #393939",
"[	c #3AB8B8",
"}	c #3D1E60",
"|	c #464646",
"1	c #48C9C9",
"2	c #4B257B",
"3	c #50CFCF",
"4	c #54D2D2",
"5	c #5B2B8D",
"6	c #616161",
"7	c #6D2D95",
"8	c #707070",
"9	c #762E98",
"0	c #7EE1E1",
"a	c #812F9F",
"b	c #8A31A7",
"c	c #8E8E8E",
"d	c #8F32AA",
"e	c #9934B2",
"f	c #A2A2A2",
"g	c #A537B9",
"h	c #B139C3",
"i	c #BB43C9",
"j	c #C4C4C4",
"k	c #C947D1",
"l	c #D1D1D1",
"m	c #D767DB",
"n	c #DADADA",
"o	c #F3FCFC",
"      ::}}::                    ",
"      }ahia}:::::::    :}}:     ",
"     }ahkmh97eada92:::}5egb}    ",
"    }9dghiheeiheged95diikih9}   ",
"   :7a9abehihiigigegkkmmiegg9:  ",
"  :}77799eimikkiheggikigb59ee2: ",
"  :775527immighiihedghe7}:59a9: ",
" :}972::9kmhdabgkkgbbb5:::}77a}:",
" :575:$}dkg56622dkib95:@  ::5b7:",
" :752::2gg5688862bhe95:@   :799:",
" :95:@$5gd6cjjjj8}bhaa7}: +:779:",
" :52:+:5e8f008cjc|ahabeg7:-:}77:",
" :5:#-:7g84n3){8c62e99eii5:2}72:",
" :2:+_}9g8/3^*;6c6}e959dih}277:#",
":}5:@:27d8!)&@*6c6}e7257ei5:77: ",
":52::255a6~!>='^8|7g7:}7aig}55: ",
"$::%:5522a8/(^^862eb}__}7bi2}2::",
"  +:59}:_27888666ag7:  :}7d}%}2:",
"  $}95::%:252625dd7}    :9d}  :-",
"  :5a527:#:}5a7ba5:    :}ae}    ",
"  }b725}   _:::}::     :5ea:    ",
"  }b75}:              ::5e2:    ",
"  :952:               :779:     ",
"  :52::              :25a}:     ",
"  :2}#               :725:      ",
"  :2}_+              }a2}_      ",
"   :52}   ++++++    +2g7:-      ",
"    2da:  +++++++++++}hb}:      ",
"     }}:+++++++++++++$2ea:++    ",
"      + ++++++++++++++$}:$+     ",
"      +++++++++++++++++++++     ",
"                                "};
