/* XPM */
static char * diamond_wall2_xpm[] = {
"32 32 82 1",
" 	c None",
".	c #000000",
"+	c #989898",
"@	c #C9C9C9",
"#	c #000000",
"$	c #313131",
"%	c #363636",
"&	c #383838",
"*	c #3B3B3B",
"=	c #3D3D3D",
"-	c #404040",
";	c #424242",
">	c #454545",
",	c #474747",
"'	c #494949",
")	c #4C4C4C",
"!	c #4E4E4E",
"~	c #515151",
"{	c #535353",
"]	c #565656",
"^	c #585858",
"/	c #5B5B5B",
"(	c #5D5D5D",
"_	c #5F5F5F",
":	c #626262",
"<	c #646464",
"[	c #676767",
"}	c #696969",
"|	c #6C6C6C",
"1	c #6E6E6E",
"2	c #717171",
"3	c #737373",
"4	c #767676",
"5	c #787878",
"6	c #7A7A7A",
"7	c #7D7D7D",
"8	c #7F7F7F",
"9	c #828282",
"0	c #848484",
"a	c #878787",
"b	c #898989",
"c	c #8C8C8C",
"d	c #8E8E8E",
"e	c #909090",
"f	c #939393",
"g	c #959595",
"h	c #989898",
"i	c #9A9A9A",
"j	c #9D9D9D",
"k	c #9F9F9F",
"l	c #A2A2A2",
"m	c #A4A4A4",
"n	c #A6A6A6",
"o	c #A9A9A9",
"p	c #ABABAB",
"q	c #AEAEAE",
"r	c #B0B0B0",
"s	c #B3B3B3",
"t	c #B5B5B5",
"u	c #B8B8B8",
"v	c #BABABA",
"w	c #BDBDBD",
"x	c #BEBEBE",
"y	c #C1C1C1",
"z	c #C4C4C4",
"A	c #C9C9C9",
"B	c #CCCCCC",
"C	c #CECECE",
"D	c #D0D0D0",
"E	c #D7D7D7",
"F	c #DADADA",
"G	c #DEDEDE",
"H	c #E1E1E1",
"I	c #E4E4E4",
"J	c #E6E6E6",
"K	c #E9E9E9",
"L	c #EBEBEB",
"M	c #EFEFEF",
"N	c #F0F0F0",
"O	c #F2F2F2",
"P	c #F7F7F7",
"Q	c #FFFFFF",
"    #########################   ",
"   #Fdddd/dd//////ddd/dF_FFF##  ",
"  #F@FkF5::[[:(//([d44d8fd9dF## ",
" #F@@MDFj42}dd(/(:27iFdFe4|35F##",
"#FQB@@MQQF}F<////ddFFFFddF|3Fdd#",
"#uMM@M$$${{${$$$$$$$$e${{$3Fd@d#",
"#mMMQ$!%{*{{*{={e={{e:<:/^edMBd#",
"#kM@M$;{{'!{-;~e{-*{}4He:e$MBBd#",
"#h@@Q$ee<Q[)!ee}{&*^9Qh8e:e@B@d#",
"#f@BQ$)e6HH5ejHe>-]5HQQje<{@@@h#",
"#FBBM{)(HlpQuHHh09eHQQQQHe$@B@F#",
"#dBBM$eeegHtQQQQQQQQOPOQke$BB@f#",
"#dB@M$]e_ejHwCQKQQNJHHQa3}eBxBd#",
"#d@@Q{=,e2HrtQCQQLHwHs6}(eeGxBF#",
"#f@@M$%-_HnQHwQQLHrzQh_(e|eMx@d#",
"#h@@M$&{:ecQLHzHHrqQQ6{e_<eMGBd#",
"#mM@@${{e)7QQuHHurQFQ6,{)e{MGBF#",
"#FM@M{{-;e4QAuHHHHzQQe=&{-$@G@F#",
"#FM@M{--;!5QwHHHHpHQQd_=-{$@B@F#",
"#FMMM{{{e_HtQuHrprzNQQ9e~{{@x@k#",
"#sMMM{}e6HjQqHgeHHHQPQQke{$Bx@F#",
"#FMMM{eHfebklee:_|kQDLQQ9e$Bx@Q#",
"#mM@M$~ee2eeH:]]e,_fQrHkeeex+BF#",
"#h@@@$&)(eeH|e:e,,e12H6e[:{xfBQ#",
"#f@BM$=,e]e<|ee{>{/e^)e/(^{@ckQ#",
"#FBM/{e{{,-)ee/,{{{{-->{^e{/BgF#",
"#F@/5d$${{${{$${{{$${${{{{(</xF#",
"#F/5(//F5FQQQFQQ37QQQFFQQf2/|/Q#",
"##F[2/9FepFQFtpb6FFQHQFCKQha8F# ",
" ##F/FmjFoFvnigfdnIEDyyFJHJmQ#  ",
"  ##QFFFdFFFddFFFQQQQFFQFFQQ#   ",
"   #########################    "};
