/* XPM */
static char * diamond_door_xpm[] = {
"32 32 370 2",
"  	c None",
". 	c #542575",
"+ 	c #341947",
"@ 	c #351B46",
"# 	c #552673",
"$ 	c #642D8A",
"% 	c #532672",
"& 	c #341845",
"* 	c #23122E",
"= 	c #542775",
"- 	c #7533A4",
"; 	c #7534A2",
"> 	c #A26BCB",
", 	c #562675",
"' 	c #562774",
") 	c #24142E",
"! 	c #441E5B",
"~ 	c #331A47",
"{ 	c #24142D",
"] 	c #341A46",
"^ 	c #441F5B",
"/ 	c #7633A4",
"( 	c #8739BA",
"_ 	c #924FC3",
": 	c #A46ACC",
"< 	c #642D8B",
"[ 	c #7633A3",
"} 	c #23132F",
"| 	c #441F5C",
"1 	c #351A46",
"2 	c #23132D",
"3 	c #7733A4",
"4 	c #532474",
"5 	c #421E59",
"6 	c #944FC3",
"7 	c #8939BB",
"8 	c #701665",
"9 	c #331A46",
"0 	c #8838BB",
"a 	c #9350C2",
"b 	c #912294",
"c 	c #951178",
"d 	c #441240",
"e 	c #B52EC4",
"f 	c #A46BCD",
"g 	c #720B57",
"h 	c #9E37C9",
"i 	c #A50D82",
"j 	c #E730F4",
"k 	c #C11CAD",
"l 	c #CF69E6",
"m 	c #41194C",
"n 	c #4B1853",
"o 	c #B71DA7",
"p 	c #80075F",
"q 	c #C74DE2",
"r 	c #F449FC",
"s 	c #E231F0",
"t 	c #64175F",
"u 	c #580F4B",
"v 	c #D122C4",
"w 	c #D92BD7",
"x 	c #BA1DAA",
"y 	c #7C2C98",
"z 	c #D821C9",
"A 	c #1F7812",
"B 	c #AC28B2",
"C 	c #6D2682",
"D 	c #630D50",
"E 	c #21122C",
"F 	c #691663",
"G 	c #411A4D",
"H 	c #D000A1",
"I 	c #216520",
"J 	c #16701A",
"K 	c #10880C",
"L 	c #119B1D",
"M 	c #F500E6",
"N 	c #23142D",
"O 	c #931178",
"P 	c #D62AE2",
"Q 	c #1D622B",
"R 	c #1F791D",
"S 	c #1B6F27",
"T 	c #1A7617",
"U 	c #157117",
"V 	c #1A7D30",
"W 	c #128A1D",
"X 	c #761668",
"Y 	c #B61398",
"Z 	c #215D34",
"` 	c #1D702B",
" .	c #1D7343",
"..	c #246847",
"+.	c #1E6027",
"@.	c #1B7C32",
"#.	c #1B7229",
"$.	c #0F7E16",
"%.	c #0C7A1E",
"&.	c #ED10CF",
"*.	c #9D209B",
"=.	c #8E31B1",
"-.	c #255040",
";.	c #185E43",
">.	c #185135",
",.	c #254C31",
"'.	c #194E2A",
").	c #164A1F",
"!.	c #195320",
"~.	c #1A591B",
"{.	c #28661D",
"].	c #ED26F2",
"^.	c #E600A2",
"/.	c #39483F",
"(.	c #274D44",
"_.	c #1F4836",
":.	c #25462C",
"<.	c #214028",
"[.	c #264223",
"}.	c #25441C",
"|.	c #254223",
"1.	c #325430",
"2.	c #325B3C",
"3.	c #2E5D1E",
"4.	c #BF2ECB",
"5.	c #3F113C",
"6.	c #2E3A5E",
"7.	c #3A3F46",
"8.	c #253534",
"9.	c #232F30",
"0.	c #212733",
"a.	c #2C2C34",
"b.	c #2E373B",
"c.	c #32373A",
"d.	c #353D33",
"e.	c #2F3C2D",
"f.	c #274733",
"g.	c #883ABB",
"h.	c #393353",
"i.	c #353D4E",
"j.	c #3B2C3C",
"k.	c #2F1C3D",
"l.	c #321939",
"m.	c #2E1E3D",
"n.	c #2D2438",
"o.	c #2C1A35",
"p.	c #2C2335",
"q.	c #2A1237",
"r.	c #1F1E32",
"s.	c #C32DD1",
"t.	c #954FC3",
"u.	c #8D1275",
"v.	c #442250",
"w.	c #3E234E",
"x.	c #373D57",
"y.	c #31144A",
"z.	c #2D1442",
"A.	c #322A48",
"B.	c #373A52",
"C.	c #25374B",
"D.	c #251F46",
"E.	c #1F1442",
"F.	c #21103A",
"G.	c #201040",
"H.	c #1F1C4A",
"I.	c #642C8A",
"J.	c #972197",
"K.	c #9F0F7D",
"L.	c #3A1F58",
"M.	c #3A1A53",
"N.	c #431D58",
"O.	c #3F3D5F",
"P.	c #353D5E",
"Q.	c #2F2A57",
"R.	c #2B3A56",
"S.	c #25264E",
"T.	c #231E53",
"U.	c #1F3159",
"V.	c #1B0C4E",
"W.	c #1C0C50",
"X.	c #23114D",
"Y.	c #E74BF4",
"Z.	c #730B58",
"`.	c #4F1855",
" +	c #652C8A",
".+	c #BA2EC8",
"++	c #EC29E3",
"@+	c #E64BF4",
"#+	c #3B315F",
"$+	c #3F3360",
"%+	c #3C2155",
"&+	c #3A2053",
"*+	c #2A1853",
"=+	c #2E1853",
"-+	c #343D59",
";+	c #281A4B",
">+	c #21144A",
",+	c #162457",
"'+	c #23375C",
")+	c #200E4E",
"!+	c #211453",
"~+	c #F549FC",
"{+	c #451140",
"]+	c #6F0C57",
"^+	c #DB32ED",
"/+	c #B11EA4",
"(+	c #851471",
"_+	c #472855",
":+	c #463D71",
"<+	c #3D2359",
"[+	c #452159",
"}+	c #412254",
"|+	c #482853",
"1+	c #3C3D5E",
"2+	c #2F1A54",
"3+	c #301A50",
"4+	c #291B52",
"5+	c #393365",
"6+	c #371E5C",
"7+	c #3D1852",
"8+	c #921177",
"9+	c #612D54",
"0+	c #633E62",
"a+	c #513A68",
"b+	c #4B4072",
"c+	c #4D385D",
"d+	c #523D5F",
"e+	c #4B2C5E",
"f+	c #392B67",
"g+	c #3A2A69",
"h+	c #371D5D",
"i+	c #4A3D62",
"j+	c #3A155D",
"k+	c #351F5D",
"l+	c #E229E1",
"m+	c #531856",
"n+	c #CD0095",
"o+	c #653E5B",
"p+	c #583E61",
"q+	c #4E3C65",
"r+	c #573964",
"s+	c #5B3563",
"t+	c #573764",
"u+	c #4A336A",
"v+	c #5A2967",
"w+	c #502966",
"x+	c #552D6B",
"y+	c #4E2D6F",
"z+	c #44225F",
"A+	c #43225F",
"B+	c #E94AF6",
"C+	c #773E79",
"D+	c #653770",
"E+	c #6D426F",
"F+	c #693A6D",
"G+	c #723A74",
"H+	c #673776",
"I+	c #66376D",
"J+	c #674683",
"K+	c #723D8A",
"L+	c #6D3779",
"M+	c #74326D",
"N+	c #64316D",
"O+	c #5E3469",
"P+	c #F666FC",
"Q+	c #431E5B",
"R+	c #7C4487",
"S+	c #834488",
"T+	c #72478D",
"U+	c #794D89",
"V+	c #804284",
"W+	c #714180",
"X+	c #774477",
"Y+	c #683F7C",
"Z+	c #70337C",
"`+	c #6D3771",
" @	c #7D3D76",
".@	c #733676",
"+@	c #6A3A71",
"@@	c #C424C6",
"#@	c #E42ADD",
"$@	c #552574",
"%@	c #23142B",
"&@	c #BE008D",
"*@	c #84429C",
"=@	c #8142A0",
"-@	c #713E85",
";@	c #754590",
">@	c #704C7C",
",@	c #724C89",
"'@	c #664578",
")@	c #7B4275",
"!@	c #724479",
"~@	c #784281",
"{@	c #6F4880",
"]@	c #6C4E82",
"^@	c #724888",
"/@	c #A928B2",
"(@	c #9930B6",
"_@	c #632B88",
":@	c #82448D",
"<@	c #7C4793",
"[@	c #6C4786",
"}@	c #6D4782",
"|@	c #6A3E82",
"1@	c #78448A",
"2@	c #6D4A83",
"3@	c #614972",
"4@	c #5B506B",
"5@	c #5F5574",
"6@	c #645C82",
"7@	c #6A587E",
"8@	c #685888",
"9@	c #A229AA",
"0@	c #B71DA8",
"a@	c #A81690",
"b@	c #A3178D",
"c@	c #765B97",
"d@	c #755093",
"e@	c #78478D",
"f@	c #6B4A8B",
"g@	c #6D5084",
"h@	c #6E587B",
"i@	c #6C587B",
"j@	c #5C5376",
"k@	c #645976",
"l@	c #6B4F75",
"m@	c #6B658E",
"n@	c #605876",
"o@	c #5A648D",
"p@	c #685479",
"q@	c #656399",
"r@	c #705F89",
"s@	c #765F81",
"t@	c #6B5B77",
"u@	c #726578",
"v@	c #766485",
"w@	c #64657E",
"x@	c #656282",
"y@	c #6B5F86",
"z@	c #665175",
"A@	c #635585",
"B@	c #5D6989",
"C@	c #6C5E8A",
"D@	c #6D657D",
"E@	c #6D597C",
"F@	c #6E5A75",
"G@	c #705B71",
"H@	c #836181",
"I@	c #6F566F",
"J@	c #66597B",
"K@	c #655B7C",
"L@	c #695C86",
"M@	c #6D5C72",
"N@	c #5C5D78",
"O@	c #5B6382",
"P@	c #751669",
"Q@	c #70678A",
"R@	c #736780",
"S@	c #6F5D80",
"T@	c #6C5D76",
"U@	c #7B5D76",
"V@	c #836780",
"W@	c #7A5F6F",
"X@	c #73557C",
"Y@	c #695276",
"Z@	c #685881",
"`@	c #6A6275",
" #	c #605D80",
".#	c #645E80",
"                                  . + @         # $ $   %       ",
"        & * = - ; >               - , @ '     ) @ @ , ! &       ",
"      ~ { ] ^ , / (             _ : < [ ' ' ' ] } | ' ' ! 1     ",
"      2 ] ' [ [ < 3 ; $     4 _ 5 6 7 [ ' [ < 8 8 ' [ [ , 9     ",
"  * ) ) [ 7 [ 7 ' ' $ . 9 . 0 a , ' 6 ' [ [ [ 8 b 7 7 6 [ , +   ",
"  9 c d [ 6 7 6 7 ' ] ) @ ^ [ , 6 6 7 [ 7 | [ b e 7 | f | [ = 9 ",
"  1 ) g h | 6 | [ < } ] | ' [ ' 7 7 [ | f 7 [ i e 7 ' f 6 7 + 9 ",
"  9 @ ^ j k l [ 6 [ ] m m ] ' ' ] ] ' 7 ' n o p ' 7 6 | 7 [ + * ",
"_ * @ ^ h q l r s [ ] t u ] ] ] v } ' [ w x ] } ' < 7 ' [ ] ) * ",
"    ) , , 7 7 6 s y ] } p ] ] z A B ] C o n } < [ ' ' ] ] } @   ",
"    @ @ , , [ 7 w C ] D 8 ' B A A A z 8 8 } } 7 ' [ [ ' | ) E   ",
"    * @ F G ] } i C ] ] w H I J A K L v M } ] [ | 7 | [ | 2 E   ",
"    * N F c } } | O i P H Q R S T U V W B t O [ [ f 7 [ , 2 E   ",
"    9 N ) X p } k w Y i Z `  ...+.@.#.$.%.&.t ' [ e b , @ 2     ",
"  1 9 + @ @ n Y *.=.O o -.;.>.,.'.).!.~.{.].' } ] b 8 @ )       ",
"    * + @ ] | ' [ ] ^./.(._.:.<.[.}.|.1.2.3.4.] ] 5.O @ )       ",
"    * N @ < < ' ' 8 ^.6.7.8.9.0.a.b.c.d.e.f.].7 5.p ] @ +       ",
"  * * ) g.7 7 < < 8 i h.i.j.k.l.m.n.o.p.q.r.s.s.D p ] ) N       ",
"- * + g.t.f 6 6 [ u.v.w.x.y.z.A.B.C.D.E.F.G.H.s.8 } } @ N       ",
"I.+ ! g.J.q ' 6 7 K.L.M.N.O.P.Q.R.S.T.U.V.W.X.Y.Z.] O `.N       ",
" +! ! : .+q ++@+h K.#+$+%+&+*+=+-+;+>+,+'+)+!+~+{+]+O @ N *     ",
"  5 @ t.t.[ 6 ^+/+(+_+:+<+[+}+|+1+2+3+4+5+6+7+Y.Z.K.C ' @ +     ",
"  9 9 [ t.' 6 [ o 8+9+0+a+b+c+d+e+f+g+h+i+j+k+l+m+' [ 6 , ^ ]   ",
"  * 9 , [ 6 [ ' u.n+o+p+q+r+s+t+u+v+w+x+y+z+A+w ' w B+6 [ , ^   ",
"    * ) ] ] ] ] } u.C+D+E+F+G+H+I+J+K+L+M+N+O+w b e h P+6 [ Q+  ",
"    * @ ] } } } } 8 R+S+T+U+V+W+X+Y+Z+`+ @.@+@@@#@[ ' f ' [ $@%@",
"  1 * @ ) } } } ] &@*@=@-@;@>@,@'@)@!@~@{@]@^@/@(@f 7 6 [ [ %@~ ",
"_@5 @ @ @ @ ] n i (+:@<@[@}@|@1@2@3@4@5@6@7@8@9@[ 7 7 ' [ ' { %@",
" +! ^ , , 0@0@a@b@8 c@d@e@f@g@h@i@j@k@l@m@n@o@9@| ' [ | ' ] 1 { ",
"I.$ $ [ [ g.g.[ < b p@q@r@s@t@u@v@w@x@y@z@A@B@9@[ [ [ < < < $ 1 ",
"$ ^ ^ , , , , ^ | 8 C@D@E@F@G@H@I@J@K@L@M@N@O@w | | ' ' ' ' | 1 ",
"$ ^ , , , ^ ^ ^ ^ P@Q@R@S@T@U@V@W@X@Y@Z@`@ #.#w | ' ' | | | | ] "};
