/* XPM */
static char * diamond_wall3_xpm[] = {
"32 32 176 2",
"  	c None",
". 	c #000000",
"+ 	c #000000",
"@ 	c #130418",
"# 	c #15051A",
"$ 	c #15051B",
"% 	c #16051C",
"& 	c #17051D",
"* 	c #18051E",
"= 	c #18051F",
"- 	c #190520",
"; 	c #1A0521",
"> 	c #1B0522",
", 	c #1B0523",
"' 	c #1C0524",
") 	c #1D0525",
"! 	c #1E0526",
"~ 	c #1F0527",
"{ 	c #1F0528",
"] 	c #1F1024",
"^ 	c #200529",
"/ 	c #21052A",
"( 	c #210829",
"_ 	c #210929",
": 	c #210A29",
"< 	c #22052B",
"[ 	c #22052C",
"} 	c #22092A",
"| 	c #220A2A",
"1 	c #23052D",
"2 	c #230A2B",
"3 	c #24052E",
"4 	c #24052F",
"5 	c #240A2C",
"6 	c #240A2D",
"7 	c #250530",
"8 	c #250A2E",
"9 	c #260531",
"0 	c #260A2F",
"a 	c #260A30",
"b 	c #260F2D",
"c 	c #270532",
"d 	c #270E30",
"e 	c #280533",
"f 	c #280534",
"g 	c #280A32",
"h 	c #290535",
"i 	c #290A33",
"j 	c #290A34",
"k 	c #2A0536",
"l 	c #2A0537",
"m 	c #2A0A35",
"n 	c #2B0538",
"o 	c #2B0A36",
"p 	c #2C0539",
"q 	c #2C0A37",
"r 	c #2C1235",
"s 	c #2D053A",
"t 	c #2D0A38",
"u 	c #2D0A39",
"v 	c #2D1435",
"w 	c #2E053B",
"x 	c #2E053C",
"y 	c #2F053D",
"z 	c #2F0A3B",
"A 	c #2F0A3C",
"B 	c #30053E",
"C 	c #30053F",
"D 	c #31063F",
"E 	c #310A3E",
"F 	c #310B3E",
"G 	c #320640",
"H 	c #320641",
"I 	c #320A3F",
"J 	c #320B3F",
"K 	c #320F3E",
"L 	c #330542",
"M 	c #330642",
"N 	c #330A40",
"O 	c #330B40",
"P 	c #330B41",
"Q 	c #33113E",
"R 	c #340544",
"S 	c #340644",
"T 	c #340A42",
"U 	c #34173E",
"V 	c #350645",
"W 	c #350A44",
"X 	c #350B43",
"Y 	c #351C3E",
"Z 	c #360646",
"` 	c #360B44",
" .	c #361641",
"..	c #361D3E",
"+.	c #361F3E",
"@.	c #370648",
"#.	c #37243D",
"$.	c #380A47",
"%.	c #380A48",
"&.	c #380B47",
"*.	c #381F40",
"=.	c #382140",
"-.	c #39064A",
";.	c #390B48",
">.	c #390B49",
",.	c #391645",
"'.	c #3A064B",
").	c #3A064C",
"!.	c #3A0B4A",
"~.	c #3A1745",
"{.	c #3A2142",
"].	c #3A2342",
"^.	c #3A2840",
"/.	c #3B064D",
"(.	c #3C064E",
"_.	c #3C2145",
":.	c #3D064F",
"<.	c #3D0B4E",
"[.	c #3D2645",
"}.	c #3E0651",
"|.	c #3F0B50",
"1.	c #3F2647",
"2.	c #3F2947",
"3.	c #400654",
"4.	c #410B53",
"5.	c #420656",
"6.	c #430658",
"7.	c #433448",
"8.	c #440659",
"9.	c #44294D",
"0.	c #450B58",
"a.	c #460B59",
"b.	c #47065D",
"c.	c #472E4F",
"d.	c #480B5C",
"e.	c #490C5D",
"f.	c #490F5D",
"g.	c #49414C",
"h.	c #4A0660",
"i.	c #4A115D",
"j.	c #4A135D",
"k.	c #4B0662",
"l.	c #4B0C60",
"m.	c #4B155D",
"n.	c #4B165D",
"o.	c #4B175D",
"p.	c #4C0663",
"q.	c #4C0664",
"r.	c #4C0C61",
"s.	c #4C0C62",
"t.	c #4D0C63",
"u.	c #4D1E5D",
"v.	c #4D2959",
"w.	c #4E0666",
"x.	c #4E205D",
"y.	c #4E215D",
"z.	c #4E225D",
"A.	c #4F0667",
"B.	c #4F235D",
"C.	c #500669",
"D.	c #50275D",
"E.	c #50285D",
"F.	c #50295D",
"G.	c #502A5D",
"H.	c #5F067D",
"I.	c #625A65",
"J.	c #630C80",
"K.	c #630D80",
"L.	c #640F80",
"M.	c #651580",
"N.	c #682080",
"O.	c #780C9C",
"P.	c #7F6F84",
"Q.	c #9E8FA3",
"R.	c #D7C8DC",
"S.	c #FFFFFF",
"        + + + + + + + + + + + + + + + + + + + + + + + + +       ",
"      + i.Q F F F _ F F ( ( ( ( ( ( F F F : F e.2 e.e.e.+ +     ",
"    + z.P.D.,.e.m 5 5 8 8 5 } ( ( } 8 F j j F t O F u F e.+ +   ",
"  + E.P.P.Q.v.n.W j g 0 F F } ( } 5 g q X e.E e.J j a i m e.+ + ",
"+ B.R.I.P.P.Q.M.J.e.0 e.6 : ( ( ( F F e.e.e.e.F F e.a i j.F K + ",
"+ c.Q.Q.P.Q.@ @ @ ! ! @ ! @ @ @ @ @ @ @ @ D @ ! ! @ i m.F P.U + ",
"+ 2.Q.Q.R.@ ] # ! % ! ! % ! & ! D & ! ! D [ 1 [ ^ { D F Q.I...+ ",
"+ [.Q.P.Q.@ = ! ! > ' ! * = ) D ! * % ! 4 f h.D [ D @ Q.I.I...+ ",
"+ ].P.P.R.@ D D 1 H.3 , ' D D 4 ! $ % { p H.L n D [ D P.I.P.+.+ ",
"+ *.P.I.R.@ , D k h.h.h D S h.D - * ~ h h.H.H.R D 1 ! P.P.P.{.+ ",
"+ u.I.I.Q.! , / h.Z -.H.:.h.h.L s p C h.H.H.H.H.h.D @ P.I.P.y.+ ",
"+ Y I.I.Q.@ D D D H h.(.H.H.H.H.H.H.H.H.A.C.A.H.V D @ I.I.P.*.+ ",
"+ ..I.P.Q.@ ~ D < D S h.}.6.H.p.H.H.w.k.h.h.H.w e 4 D I.g.I...+ ",
"+ +.P.P.R.! & ; D c h.).(.H.6.H.H.q.h.}.h./.k 4 / D D P.g.I.u.+ ",
"+ =.P.P.Q.@ # * < h.@.H.h.}.H.H.q.h.).3.H.M < / D 7 D Q.g.P...+ ",
"+ ].P.P.Q.@ $ ! [ D y H.q.h.3.h.h.).'.H.H.k ! D < 1 D Q.P.I...+ ",
"+ 1.Q.P.P.@ ! ! D , l H.H.:.h.h.:.).H.b.H.k ; ! , D ! Q.P.I.u.+ ",
"+ G.Q.P.Q.! ! * = D f H.5.:.h.h.h.h.3.H.H.D & $ ! * @ P.P.P.x.+ ",
"+ G.Q.P.Q.! * * = ' h H.}.h.h.h.h.-.h.H.H.B < & * ! @ P.I.P.y.+ ",
"+ G.Q.Q.Q.! ! ! D < h.(.H.:.h.).-.).3.w.H.H.p D ) ! ! P.g.P._.+ ",
"+ 9.Q.Q.Q.! 4 D k h.S H.'.h.H D h.h.h.H.C.H.H.V D ! @ I.g.P.y.+ ",
"+ F.Q.Q.Q.! D h.G D x V Z D D [ < 7 V H.8.q.H.H.p D @ I.g.P.N.+ ",
"+ 1.Q.P.Q.@ ) D D c D D h.[ ~ ~ D ; < G H.).h.V D D D g.7.I.u.+ ",
"+ ].P.P.P.@ $ , / D D h.7 D [ D ; ; D 9 c h.k D 3 [ ! g.^.I.M.+ ",
"+ *.P.I.Q.@ & ; D ~ D 1 7 D D ! - ! ^ D { , D ^ / { ! P.#.~.L.+ ",
"+ x.I.Q.( ! D ! ! ; * , D D ^ ; ! ! ! ! * * - ! { D ! ( I. .e.+ ",
"+ o.P.( v F @ @ ! ! @ ! ! @ @ ! ! ! @ @ ! @ ! ! ! ! | b ( g.e.+ ",
"+ f.( r } _ ( e.m e.J.J.J.e.J.J.i q J.J.J.e.e.J.O.N g ( d ( K.+ ",
"+ + e.8 g ( u e.I !.e.J.e.<.!.A o e.e.J.l.J.e.0.t.O.T z t e.+   ",
"  + + e.( e.&.` e.>.e.|.;.X P O E %.r.d.a.4.4.e.s.l.s.$.J.+     ",
"    + + J.e.e.e.F e.e.e.F F e.e.e.J.J.J.J.e.e.J.e.e.J.J.+       ",
"      + + + + + + + + + + + + + + + + + + + + + + + + +         "};
