/* XPM */
static char * beehives_xpm[] = {
"32 32 15 1",
" 	c #CDC43C",
".	c #CBC23C",
"+	c #202020",
"@	c #FF7F2F",
"#	c #853B0D",
"$	c #2C2308",
"%	c #503F0C",
"&	c #8B6D14",
"*	c #FFF892",
"=	c #7C761D",
"-	c #542508",
";	c #8A6C13",
">	c #CBC23A",
",	c #CDC33B",
"'	c #CCC33B",
"    .+@########$%%%&&&&&&+*     ",
"    =+@#######-+%&&&&&&& +*     ",
"    =+@#######-+%&&&&&&& +*     ",
"    =+@#######-+%&&&&&&& +*     ",
"    =+@#######-+;&&&&&&& +*     ",
"   ==+######--+*+&&&&&&  ++     ",
" ==++%++###-++*  ++&&& ++* ++   ",
"=++%%&&&++-+**     ++ +**    ++>",
"+%%&&&&&&&+*         +*        +",
"%&&&&&&&& +*        =+*       =+",
"%&&&&&&&& +*        =+*       =+",
"%&&&&&&&& +*        =+*       =+",
"&&&&&&&&& +*        =+*       =+",
"+&&&&&&&  +        ==+      ==+*",
" ++&&&  ++@++    ==++%++  ==++* ",
"   ++ ++@@###++ =++%%&&&+=++**  ",
"     +@@#######++%%&&&&&&+**    ",
"    =+@#######-+%&&&&&&& +*     ",
"    =+@#######-+%&&&&&&& +*     ",
"    =+@#######-+%&&&&&&& +*     ",
"    =+@#######-+&&&&&&&& +      ",
"   ==+#######-+*+&&&&&&  ++     ",
" ==++@++###--+*  ++&&& ++%&++   ",
"=++@@###++-+%*     ++ +%%&&&&++ ",
"+@@#######+**        +%&&&&&&&&+",
"@########-+*,       =+%&&&&&&& +",
"@########-+*,       =+%&&&&&&& +",
"@########-+*,       =+%&&&&&&& +",
"#########-+*'       =+%&&&&&&& +",
"+#######--+''      ==+&&&&&&   +",
" ++###--++@++    ==++%++&&  +++*",
"   ++-++@@###++ =++%%&&&+ ++*** "};
