/* XPM */
static char * book_of_wisdom_xpm[] = {
"32 32 35 1",
" 	c None",
".	c #608060",
"+	c #808060",
"@	c #806060",
"#	c #78A0A0",
"$	c #78A078",
"%	c #A0A078",
"&	c #A07878",
"*	c #90C090",
"=	c #C0C090",
"-	c #C09090",
";	c #A078A0",
">	c #90C0C0",
",	c #A8E0A8",
"'	c #E0E0A8",
")	c #E0A8A8",
"!	c #E0A8E0",
"~	c #A8A8E0",
"{	c #C0C0FF",
"]	c #A8E0E0",
"^	c #C0FFC0",
"/	c #FFFFC0",
"(	c #FFC0C0",
"_	c #FFC0FF",
":	c #9090C0",
"<	c #C090C0",
"[	c #7878A0",
"}	c #606080",
"|	c #806080",
"1	c #608080",
"2	c #000000",
"3	c #A0A0A0",
"4	c #B0B0B0",
"5	c #C0C0C0",
"6	c #D0D0D0",
"                                ",
"               .                ",
"              ..++              ",
"             ...+++@            ",
"            #$$$%%%&&&          ",
"           ##***===---;;        ",
"          >>>,,,''')))!!!~      ",
"         {]]]^^^///(((___{{{    ",
"        ::>>>***===---<<<::::   ",
"       [[[###$$$%%%&&&;;;[[[[[  ",
"      ;[[[###$$$%%%&&&;;;[[[[}~ ",
"     ||}}}111...+++@@@|||}}[}~:2",
"    |||}}}111...+++@@@|||}}}~:[2",
"   &|||}}}111...+++@@@|||[}~:[[2",
"  &&;;;[[[###$$$%%%&&&;;;|~:[[22",
" &&&;;;[[[###$$$%%%&&&;;|!;[[22 ",
"&&&&;;;[[[###$$$%%%&&&;|!;|[22  ",
"----<<<:::>>>***===--&@!;||22   ",
" (((___{{{]]]^^^///(&@);||22    ",
" 33)!!!~~~>>>,,,'''&@)-@|22     ",
" 4433<<:::###***==%+)-@@22      ",
" 554433[[[111$$$%%+'-@@22       ",
"&66554433[111$$$%+'%+@22        ",
"2&;6655443311$$$.'%++22         ",
" 22;;66554433$$.*%++22          ",
"   22[[6655443.*$$+22           ",
"     22[#66554*$$.22            ",
"       22##665$$.22             ",
"         22$$4$.22              ",
"           22$.22               ",
"             222                ",
"                                "};
