/* XPM */
static char * bread_xpm[] = {
"32 32 11 1",
" 	c None",
".	c #000000",
"+	c #000000",
"@	c #561C00",
"#	c #833100",
"$	c #9A3C00",
"%	c #6D2700",
"&	c #3C0E00",
"*	c #6D4500",
"=	c #E7E7E7",
"-	c #E7E7B8",
"                                ",
"                                ",
"                                ",
"                ++++++          ",
"              ++@###$%+         ",
"             +##$##$#$#+        ",
"            +##@@@$$$###+       ",
"           +##$#$&@####**+      ",
"          +#$$#$$$&*#%##%+      ",
"         +##@&*$$##@###**+      ",
"        +#*$#$&@$###@#%*%+      ",
"       +#$##$$#&*#$%##%%&+++    ",
"      +$@&@&##$#@#%###%&@++++   ",
"     +#*$$&&@$###@##%*%&@+++++  ",
"    +$$$$$$#@@#####%**&@++++++  ",
"    +=-=-$$##@#####*%&@@++++++  ",
"   +-======###@###**&@@++++++   ",
"   +==--=-=-##$#*#%&@@&+++++    ",
"    +=--=-=-=#%#**&@@&+++++     ",
"    +==-=-=--=#*%&@@&++++       ",
"    +=-=--=-==-*&@@&++++        ",
"    +---=-----=&@@&+++          ",
"    +-===--==-&@@&+++           ",
"     +==-=----&@&+++            ",
"      ++=-==--@&++              ",
"        ++==--&++               ",
"          ++-&++                ",
"            +++                 ",
"                                ",
"                                ",
"                                ",
"                                "};
