/* XPM */
static char * cloak_xpm[] = {
"32 32 13 1",
" 	c None",
".	c #000000",
"+	c #C00060",
"@	c #A00050",
"#	c #800040",
"$	c #400020",
"%	c #300018",
"&	c #600030",
"*	c #C0A040",
"=	c #AA8834",
"-	c #807020",
";	c #F2C44D",
">	c #68541F",
"                                ",
"                                ",
"                                ",
"                                ",
"                                ",
"            ...                 ",
"          ..+@@..               ",
"         .++###@@.              ",
"        .+@#$$%%#@.             ",
"        .@#$%%$$#+.             ",
"       .+#$%%$#+#&.             ",
"       .@#$%$++#&$..            ",
"      .+#$%$@##$$$..            ",
"      .@$%%@#$$&#&$.            ",
"     .@#$%%&$###@#&$.           ",
"     .+$%%%&#@##@@#&&.          ",
"    .#*$%%%=##@##@+#&$.....     ",
"    .#*$%%%$=##+##@+#&$.......  ",
"    .#*$%%%%-###+###+#&$....... ",
"    .@*$%%%%$=@##+@##@#&$...... ",
"   .&+=$%%%%%$-@##@@&#@#&$..... ",
"   .&+*$%%%%%%=#@&#@@&#@@&..... ",
"   .#@#*$%%%%%$=+&&#@#&&##-...  ",
"   .#@#=$%%%%%%=+#&&#@#&&;=..   ",
"   .@@#=$%%%%%%-#+&$&#&=-...    ",
"   .@#&*$%%%%%%$=@#$$&;....     ",
"  .#@#&;%>>->->>=#@&$-....      ",
"  .#@&=;>.......;&#;-....       ",
" .=*;=...       .;=.....        ",
"  ....           .....          ",
"                                ",
"                                "};
