/* XPM */
static char * poison_xpm[] = {
"32 32 257 2",
"  	c None",
". 	c #FF0000",
"+ 	c #E00000",
"@ 	c #C00000",
"# 	c #A00000",
"$ 	c #800000",
"% 	c #600000",
"& 	c #400000",
"* 	c #300000",
"= 	c #200000",
"- 	c #180000",
"; 	c #100000",
"> 	c #804040",
", 	c #A05050",
"' 	c #C06060",
") 	c #E07070",
"! 	c #FF8080",
"~ 	c #FF4000",
"{ 	c #E03800",
"] 	c #C03000",
"^ 	c #A02800",
"/ 	c #802000",
"( 	c #601800",
"_ 	c #401000",
": 	c #300C00",
"< 	c #202000",
"[ 	c #181800",
"} 	c #101000",
"| 	c #808040",
"1 	c #A0A050",
"2 	c #C0C060",
"3 	c #E0E070",
"4 	c #FFFF80",
"5 	c #FF8000",
"6 	c #E07000",
"7 	c #C06000",
"8 	c #A05000",
"9 	c #804000",
"0 	c #603000",
"a 	c #402000",
"b 	c #301800",
"c 	c #002000",
"d 	c #001800",
"e 	c #001000",
"f 	c #408040",
"g 	c #50A050",
"h 	c #60C060",
"i 	c #70E070",
"j 	c #80FF80",
"k 	c #FFC000",
"l 	c #E0A800",
"m 	c #C09000",
"n 	c #A07800",
"o 	c #806000",
"p 	c #604800",
"q 	c #403000",
"r 	c #302400",
"s 	c #002020",
"t 	c #001818",
"u 	c #001010",
"v 	c #408080",
"w 	c #50A0A0",
"x 	c #60C0C0",
"y 	c #70E0E0",
"z 	c #80FFFF",
"A 	c #FFFF00",
"B 	c #E0E000",
"C 	c #C0C000",
"D 	c #A0A000",
"E 	c #808000",
"F 	c #606000",
"G 	c #404000",
"H 	c #303000",
"I 	c #000020",
"J 	c #000018",
"K 	c #000010",
"L 	c #404080",
"M 	c #5050A0",
"N 	c #6060C0",
"O 	c #7070E0",
"P 	c #8080FF",
"Q 	c #80FF00",
"R 	c #70E000",
"S 	c #60C000",
"T 	c #50A000",
"U 	c #408000",
"V 	c #306000",
"W 	c #204000",
"X 	c #183000",
"Y 	c #200020",
"Z 	c #180018",
"` 	c #100010",
" .	c #804080",
"..	c #A050A0",
"+.	c #C060C0",
"@.	c #E070E0",
"#.	c #FF80FF",
"$.	c #00FF00",
"%.	c #00E000",
"&.	c #00C000",
"*.	c #00A000",
"=.	c #008000",
"-.	c #006000",
";.	c #004000",
">.	c #003000",
",.	c #603030",
"'.	c #402020",
").	c #301818",
"!.	c #806060",
"~.	c #A07878",
"{.	c #C09090",
"].	c #E0A8A8",
"^.	c #FFC0C0",
"/.	c #00FF80",
"(.	c #00E070",
"_.	c #00C060",
":.	c #00A050",
"<.	c #008040",
"[.	c #006030",
"}.	c #004020",
"|.	c #003018",
"1.	c #606030",
"2.	c #404020",
"3.	c #303018",
"4.	c #808060",
"5.	c #A0A078",
"6.	c #C0C090",
"7.	c #E0E0A8",
"8.	c #FFFFC0",
"9.	c #00FFFF",
"0.	c #00E0E0",
"a.	c #00C0C0",
"b.	c #00A0A0",
"c.	c #008080",
"d.	c #006060",
"e.	c #004040",
"f.	c #003030",
"g.	c #306030",
"h.	c #204020",
"i.	c #183018",
"j.	c #608060",
"k.	c #78A078",
"l.	c #90C090",
"m.	c #A8E0A8",
"n.	c #C0FFC0",
"o.	c #0080FF",
"p.	c #0070E0",
"q.	c #0060C0",
"r.	c #0050A0",
"s.	c #004080",
"t.	c #003060",
"u.	c #002040",
"v.	c #001830",
"w.	c #306060",
"x.	c #204040",
"y.	c #183030",
"z.	c #608080",
"A.	c #78A0A0",
"B.	c #90C0C0",
"C.	c #A8E0E0",
"D.	c #C0FFFF",
"E.	c #0000FF",
"F.	c #0000E0",
"G.	c #0000C0",
"H.	c #0000A0",
"I.	c #000080",
"J.	c #000060",
"K.	c #000040",
"L.	c #000030",
"M.	c #303060",
"N.	c #202040",
"O.	c #181830",
"P.	c #606080",
"Q.	c #7878A0",
"R.	c #9090C0",
"S.	c #A8A8E0",
"T.	c #C0C0FF",
"U.	c #8000FF",
"V.	c #7000E0",
"W.	c #6000C0",
"X.	c #5000A0",
"Y.	c #400080",
"Z.	c #300060",
"`.	c #200040",
" +	c #180030",
".+	c #603060",
"++	c #402040",
"@+	c #301830",
"#+	c #806080",
"$+	c #A078A0",
"%+	c #C090C0",
"&+	c #E0A8E0",
"*+	c #FFC0FF",
"=+	c #FF00FF",
"-+	c #E000E0",
";+	c #C000C0",
">+	c #A000A0",
",+	c #800080",
"'+	c #600060",
")+	c #400040",
"!+	c #300030",
"~+	c #FFFFFF",
"{+	c #E0E0E0",
"]+	c #C0C0C0",
"^+	c #A0A0A0",
"/+	c #808080",
"(+	c #606060",
"_+	c #404040",
":+	c #202020",
"<+	c #FF0080",
"[+	c #E00070",
"}+	c #C00060",
"|+	c #A00050",
"1+	c #800040",
"2+	c #600030",
"3+	c #400020",
"4+	c #300018",
"5+	c #F0F0F0",
"6+	c #D0D0D0",
"7+	c #B0B0B0",
"8+	c #909090",
"9+	c #707070",
"0+	c #505050",
"a+	c #303030",
"b+	c #101010",
"c+	c #7F5A48",
"d+	c #A5765E",
"e+	c #CA8F72",
"f+	c #E5A282",
"g+	c #FFB691",
"h+	c #FFD3AF",
"i+	c #68541F",
"j+	c #807020",
"k+	c #AA8834",
"l+	c #C0A040",
"m+	c #F2C44D",
"n+	c #F8E060",
"o+	c #FCFC99",
"p+	c #756958",
"q+	c #91876E",
"r+	c #AB9A81",
"s+	c #E0C0A0",
"t+	c #D0A850",
"u+	c #000000",
"v+	c #000000",
"w+	c #000000",
"x+	c #000000",
"y+	c #000000",
"z+	c #000000",
"A+	c #000000",
"B+	c #000000",
"C+	c #000000",
"D+	c #000000",
"E+	c #000000",
"F+	c #000000",
"G+	c #000000",
"H+	c #476C6C",
"                                                                ",
"                                                                ",
"                                                                ",
"                            9 9 9                               ",
"                          ^+9 9 9 ^+                            ",
"                        ~+6+0 0 0 7+^+                          ",
"                          ~+6+{+]+^+                            ",
"                          8+/+(+_+8+                            ",
"                          8+/+(+_+8+                            ",
"                          7+/+(+_+8+                u+u+u+      ",
"                          7+/+(+_+8+              u+u+u+u+u+    ",
"                          7+/+(+_+8+            u+u+u+u+u+u+    ",
"                          7+^+(+_+8+          u+u+u+u+u+u+      ",
"                          7+^+(+_+9+      u+u+u+u+u+u+u+        ",
"                      /+6+6+^+^+(+_+9+9+u+u+u+u+u+u+u+          ",
"                    /+j ~+~+6+^+(+(+_+_+9+u+u+u+u+u+            ",
"                  /+n.j ~+~+j n.l.Q R _+_+9+u+u+u+u+            ",
"                /+Q m.n.j j n.m.l.R S T R R 9+u+u+u+            ",
"                /+k.l.m.n.n.m.l.R S T Q R T 9+u+u+              ",
"                /+k.k.l.l.l.l.S Q R T R S T 9+u+u+              ",
"                /+T k.k.k.k.S T R S T S S S 9+u+u+              ",
"                /+Q R T S Q R T T T S Q R S 9+u+u+              ",
"                /+R S S T R S Q R S S R S R 9+u+                ",
"                u+/+T Q R S S R S R R R R 9+u+u+                ",
"                u+/+S R S S S Q R R Q R Q 9+u+u+                ",
"                u+u+8+R R R R R R Q R S 9+u+u+                  ",
"                  u+u+8+8+Q Q Q Q Q 9+9+u+u+                    ",
"                    u+u+u+9+9+9+9+9+u+u+u+                      ",
"                        u+u+u+u+u+u+u+                          ",
"                                                                ",
"                                                                ",
"                                                                "};
