/* XPM */
static char * hell4_xpm[] = {
"32 32 7 1",
" 	c #200000",
".	c #300000",
"+	c #400000",
"@	c #600000",
"#	c #800000",
"$	c #A00000",
"%	c #C00000",
"####$$$$#%%$#####$$%%$$#####@++@",
"#@+.++@#@$%$#@@#@@#$%#++#@@@@##.",
"$@@++@@#+$$#@@+#@@##$#@.@@#####.",
"$#@#@#@#+@#@++   .@@##@.+##$$$$ ",
"%#@##$##@+@   +@++ . @@+##$$#$$.",
"%$#@%%$#+  ++..+@++.  .@###$%$$ ",
"$$##$%##.+++@++....  ++.@@@#%## ",
"$##@#@@  .@+@@@+.+. .+@+.@@#$$$.",
"##+@@+.   ..@+ . ++ .+@@+.@@#%# ",
"#@@++ +.++ .+ .    . .+@@+.@#%# ",
"#@##@ +++  + #%$@$@+ ++@+@.@@$@ ",
"$@$#..@++. .%++%#+ $+  .+. .@#@ ",
"%#$@  ...  $+.#+ %  %+ ..  .@@+ ",
"$@#@..+. +$+ .%..$. +%+. .+.+++ ",
"#@@.++.  @+ . $@+%@..+#  +@+#+@ ",
"##@ ++.  #$$%@%$#%#%##% .@@+#@# ",
"$## +@+. $%+.% .  $  %#  @@@$@# ",
"#@# +@@+ %+%+$+.+ %+% %  +@+$+@ ",
"$@@.@++. @++#%.+%+%# +@  +++#++ ",
"#@@.+@..+ %+% +%#+@% %++ .++$+@ ",
"##@ @+ +.++#% % +# %%+ +. .+#@@ ",
"$@#.++  .. +#%  ++%$ .. .+..$@@ ",
"%## .++.+@  +##%#%#+.@+.@+++$## ",
"%$# .@+ ++   ++    +.+@+@..+#$$ ",
"#@# .+@ @+. ..+@@...+@+@+ .+%#$ ",
"#@@  ...+@...+@+@@++.  ++ ++%#$ ",
"$@@.+.+++@+. .+@@@..  .. .++$@# ",
"$@# +.  .++ .+++++.  ...++++#@#.",
"$#$####$%%$%%$%$$%%$$#$###$##@@.",
"$$#@@+@@@@##@@++@@###@+.+++@+@+ ",
"#@#@++.+@###@+.+++@#@+..+@@+@@@ ",
"+.          . .. ....       ...."};
