/* XPM */
static char * hell_door_closed_xpm[] = {
"32 32 24 1",
" 	c None",
".	c #CEC100",
"+	c #DFD100",
"@	c #FEEE00",
"#	c #3F3B00",
"$	c #5E5800",
"%	c #FF0000",
"&	c #5F5900",
"*	c #9E9400",
"=	c #202020",
"-	c #BFB300",
";	c #7F7700",
">	c #300C00",
",	c #401000",
"'	c #601800",
")	c #802000",
"!	c #101010",
"~	c #A02800",
"{	c #BDBDBD",
"]	c #A6A6A6",
"^	c #8D8D8D",
"/	c #2F2F2F",
"(	c #5E5E5E",
"_	c #464646",
" .+@@@   +  +     +  +#  .+@@@  ",
"$%%+%%+  +  +  +  + #+& $%%+%%+ ",
"*%%=%%.#-*#-*#-*#-*#-*&#*%%=%%. ",
"*..++..$..$..$..$..$..$#*..++.. ",
"*$$$$-;;++;++;++;++;++;#*$$$$-; ",
" $...$*;.-;.-;.-;.-;.-;&;$...$  ",
" ##$$;>>>+>>+>,+',+>>+>>>>#$$#  ",
"  .+.->>>+>>+>,+)'+>,+>>>>.+.-  ",
"++-+.*++>,>>',,!)',>'>>>++-+.*++",
"  ;;$#>>>,,>','!)''>',>,>>;;$#  ",
"  .+.-,,>',>),'!~'','',,'>.+.-  ",
" +-+.*++>',,),'!~'),)',''+-+.*++",
"  ;;$#'',)',)')!~'),)',)'>;;$#  ",
"  .+.-)',)',)')!~'),)'')),.+.-  ",
"++-+.*+),))')')!~')'))')++-+.*+ ",
"  ;;$#))'))')')!~))'))')));;$#  ",
"  .+.-{{{{]]]^^/{^]{{{]]]^.+.-  ",
"++-+.*++((((___/^__(((((++-+.*++",
"  ;;$#>,>>,>>>>!),,>>,>>,>;;$#  ",
"  .+.->'>>,'>,>!)''>,'>,,>.+.-  ",
" +-+.*++>,'',',!~)',,'>,'+-+.*++",
"  ;;$#,',,'),''!~)','),'',;;$#  ",
"  .+.-'),')),')!~)''))'')'.+.-  ",
"++-+.*+)''))'))!))))))))++-+.*+ ",
"  ;;$#{{{]]]]^^/{^]{{{]]]];;$#  ",
"  .+.-_(((((___/^__(((____.+.-  ",
"++-+.*++>>>>>>>!),>>>,,,++-+.*++",
"  ;;$#))'))))))!~)))))))));;$#  ",
"  .+.-'),))'')'!~')')')')'.+.-  ",
"++-+.*++,)','),!~'''',''++-+.*++",
"  ;;$#,',',>,',!),','>,,'>;;$#  ",
"  &&##>,>>,>,,>!)>,>,>,>,>&&#&  "};
