/* XPM */
static char * hell3_xpm[] = {
"32 32 8 1",
" 	c #100000",
".	c #200000",
"+	c #300000",
"@	c #400000",
"#	c #600000",
"$	c #800000",
"%	c #A00000",
"&	c #C00000",
"$$@$%%%%$&&%$$$$$%%&&%%$$$$$#@@#",
"$#@+@@#$#%&%$##$##$%&$#+$###$$#+",
"%##@@##$@%%$##@$##$$%$#+##$$#$$+",
"%$#$#$#$@#$#@@...+##$$#@@$$$##$.",
"&$#$$%$$#@#...@#@@.+.##@$$%%$##+",
"&%$#&&%$@..@@++@@@@+..+#$$$%&$#.",
"%%$$%&$$+@@#@@@++++..@@+###$&$$.",
"%$$#$##..+#@##+@#@+.+@#@+##$%%%+",
"$$@##@+...+@+@+##@@+.###@+##$&$.",
"$##@@.@+@@@+++@@#++.+####@+#$&$.",
"$#$$#.@@#@@+@..@..@+.@#@@@+##%#.",
"%#%$++#@##@++@@##.@@#+@+@+.+#$#.",
"&$%#..++##@@@#$$$@#@#+@++..+##@.",
"%#$#++@+@@@+@$&&$$$@@#++.+@+@@@.",
"$##+@@+.+@++#&&$$#$#@+...@@@$@#.",
"$$#.@@+...+@$..&#..#.@@.+##@$#$.",
"%$$.@#@++@..$+ &$ +#..++.##@%#$.",
"$#$.@##@@#@+#$&..&&$@+@@.@#@%@#.",
"%##+#@@+##++@&&+$&$@@@+#.@@@$@@.",
"$##+@#++@#+@@#.@@..+@++@.+@@%@#.",
"$$#.#@.@@+@@+@$..#.@++@@+.+@$##.",
"%#$+@@++@@++@@+$#.@@+@@.+@++%##.",
"&$$.+@@+#+++#@.@.@@+++@+#@@@%$$.",
"&%$.+#@.@@@++.+@+++@@@#@#++@$%%.",
"$#$.+@#.##@@+@+@#@+@##@@#.+@&$%.",
"$##..+++@###++@##@@@+..@@.@@&$%.",
"%##+@+@@@#@+.+@###++..++.+@@%#$.",
"%#$.@+..+@@.+@@@@@+..+++@@@@$#$+",
"%$%$$$$%&&%&&%&%%&&%%$%$$$%$$##+",
"%%$##@####$$##@@##$$$#@+@@@#@#@.",
"$#$#@@+@#$$$#@+@@@#$#@++@##@###.",
"@+..........+.++.++++.......++++"};
