/* XPM */
static char * hell_door_open_xpm[] = {
"32 32 17 1",
" 	c None",
".	c #CEC100",
"+	c #DFD100",
"@	c #FEEE00",
"#	c #3F3B00",
"$	c #5E5800",
"%	c #FF0000",
"&	c #5F5900",
"*	c #9E9400",
"=	c #202020",
"-	c #BFB300",
";	c #7F7700",
">	c #000000",
",	c #2F0000",
"'	c #4E0000",
")	c #6F0000",
"!	c #8E0000",
" .+@@@   +  +     +  +#  .+@@@  ",
"$%%+%%+  +  +  +  + #+& $%%+%%+ ",
"*%%=%%.#-*#-*#-*#-*#-*&#*%%=%%. ",
"*..++..$..$..$..$..$..$#*..++.. ",
"*$$$$-;;++;++;++;++;++;#*$$$$-; ",
" $...$*;.-;.-;.-;.-;.-;&;$...$  ",
" ##$$;   +  +  +  +  +    #$$#  ",
"  .+.-   +  +  +  +  +    .+.-  ",
"++-+.*++                ++-+.*++",
"  ;;$#                    ;;$#  ",
"  .+.-                    .+.-  ",
" +-+.*++                 +-+.*++",
"  ;;$#                    ;;$#  ",
"  .+.-                    .+.-  ",
"++-+.*+                 ++-+.*+ ",
"  ;;$#                    ;;$#  ",
"  .+.-                    .+.-  ",
"++-+.*++              > ++-+.*++",
"  ;;$#>>>>>>>>>>>  >>>>>>>;;$#  ",
"  .+.->>>>>,>>>>>>>>>>>>>>.+.-  ",
" +-+.*++>',,','''',''''',+-+.*++",
"  ;;$#)'>>,,''''',,'','',,;;$#  ",
"  .+.-)''>>>>>>'''''''',''.+.-  ",
"++-+.*+'')))>>>>>'''''',++-+.*+ ",
"  ;;$#)''!))))''>>>,,,',,,;;$#  ",
"  .+.-)''!!))'''>>>>>>>>>'.+.-  ",
"++-+.*++'!)))''')))))'>>++-+.*++",
"  ;;$#))'!))))''))))'''>>>;;$#  ",
"  .+.-)''!!))'''!)))'''')).+.-  ",
"++-+.*++')!)))'')))))'')++-+.*++",
"  ;;$#>>>>>>>>>>>>>>>>>>==;;$#  ",
"  &&##   >>> >  >>  >>>>  &&#&  "};
