/* XPM */
static char * imp_xpm[] = {
"32 32 12 1",
" 	c None",
".	c #000000",
"+	c #FFFF00",
"@	c #FF0000",
"#	c #A00000",
"$	c #400000",
"%	c #800000",
"&	c #C00000",
"*	c #FF4000",
"=	c #E00000",
"-	c #FF8000",
";	c #600000",
"                                ",
"                                ",
"         .     .                ",
"        .+.   .+.               ",
"         .@. .@.  ...           ",
"        .#@...@. .$$$.          ",
"       .#%&@#@. .$#$#$.         ",
"      .#%$&#*%%.%%=$=$$.        ",
"      .@%$%+-+%;#%@$=$=.        ",
"      .*;$%---=#;%@&@%@%.       ",
"      .*;$*****@#;&.@&@%.       ",
"      .%$==&#&@*@#;.%&.;.       ",
"      .%$*=@@&##*=.;.;..        ",
"       .$*#**@&#$=.;..          ",
"       .&*#@*@&&$$@.            ",
"      .&=.$=*&&%$$=.            ",
"     .&=. .&&&#%%$=.            ",
"     .&.  .%&#;&&%..   .        ",
"      .   .%@;$#=#$%. .@.       ",
"           .*&$$==;$%..=.       ",
"           .*&$$&@%$.%=.        ",
"           .=%$.;@;. ..         ",
"           .=;. .=.             ",
"           .#.  .#.             ",
"          .=.    .=.            ",
"           .   ....             ",
"             .........          ",
"           ..............       ",
"          ...............       ",
"          ..............        ",
"           ...........          ",
"              ......            "};
