/* XPM */
static char * spawner_xpm[] = {
"32 32 14 1",
" 	c None",
".	c #0000A0",
"+	c #0000C0",
"@	c #5000A0",
"#	c #400080",
"$	c #000080",
"%	c #400040",
"&	c #300060",
"*	c #600060",
"=	c #0050A0",
"-	c #303060",
";	c #402040",
">	c #404080",
",	c #004080",
"               .++              ",
"             +++@+@+            ",
"            ++@+++.@+           ",
"           +@+@+@+@+.+          ",
"          +@++@#.@.@+++         ",
"         $.@+@+##.@.+.+$        ",
"         ++++######.@+++        ",
"         +@.@.##%&#.@+.+        ",
"        $@@+###&%&##.@.+$       ",
"        +@.@+##&%&###.+++       ",
"        ++.@###&%&&##+@.+       ",
"        +@+#.##&%&##.@+.+       ",
"       $+.@+##&&%&*&#.@++$      ",
"       ++.+@###&%%&###.+.+      ",
"       +@@+###&%%%&##.@+.+      ",
"       +@.@=#-#%%%&##.#@++      ",
"       ..+####&;%%&##@.+.+      ",
"       +.+@.##&%%&&#.#.@.+      ",
"       +@.@.#-&%%&-#>.@++$      ",
"       $++.###&%%&###@..+       ",
"        +@@.#&&%%-##.=.++       ",
"        +@+.##&%%#-##+@++       ",
"        $.#.##&;%&##+@++$       ",
"         +@+###&%&#@,..+        ",
"         ++@.##&%&#.@+++        ",
"         $..+..###>.+@+$        ",
"          ++@+#.#..@.@+         ",
"           +++@+.@++++          ",
"            ...+.@..+           ",
"             ++@++++            ",
"               +++              ",
"                                "};
