/* XPM */
static char * flesh_wall1_xpm[] = {
"32 32 6 1",
" 	c #FFD3AF",
".	c #FFB691",
"+	c #E5A282",
"@	c #A5765E",
"#	c #CA8F72",
"$	c #7F5A48",
"  . .. .... .. . +++. . .......@",
"..+.. ...++++...+#@#+. .+++++++$",
" +...+.+++++.+#@#@@@###++#+#+#@$",
"..+.+.+.+.++++#..#+++.++#+###+#$",
".+.+.++++++.+#++#@#@#+.++#+#+#@$",
"..+.++.++++++@+#+@@$@#++#.##+@#@",
" .++.++.+++.+@+##@$@$@#@+.++@#@$",
" ..+.+++++++.#@+#@@$@#@@+.#+#@#$",
". +++++++..++##@+#$@@#@$..@##+#@",
" .+.++.+++++.++@#+###@#..##@+##$",
" .+++.++.++.+.++#+.+++..##@##+@$",
" ..++++++.++.++++##....#+#@#++#$",
"....+++++####+.+..++++++#@##+#@$",
". .++.++##@@#@#+.+.++.+++##+#@#$",
" ..+++##+...+@@@+.+++##++++###@$",
". +.+#@+.#+#++###+++#+#+#+++###$",
" ..++#++##@##+.#++#+#++++++#++#@",
"..+..@.#@#$###.+#++###++###+.+#$",
". ...@.##$@$@++.+#+++###@+. #+@@",
" .+++#+#@@$@@#+.#++++##++. #@#$$",
"...+.++##$@###+ ++++###++ #@$@@$",
" .+....++####+ .######+#+ ##@$@$",
".....+. .+++. .++####++++.##@$$$",
"..++++..     .###++#+#+##.#+#@$$",
".+.#+++++..+++#+++#+#+++#+..+#@$",
".+++##.+..+++.++###@#+.+++##+##$",
"...#@@#.+++..++++#@@@@.+###@#+#@",
" .+#@@#.+##+++..++#@## ##+#@@#+$",
"..+.##+ #++#+++++#..  .+@#+##@$$",
" +.+.  +#@#++++#+.. .+#@####+#@$",
".++++##@@#@#+#++###@#@###@#@##@$",
"@$$$$$$$@$@$$$@$$@$$$$$$$$$$$$$$"};
