/* XPM */
static char * flesh_spawner_xpm[] = {
"32 32 188 2",
"  	c None",
". 	c #838383",
"+ 	c #8D8C8C",
"@ 	c #F5F800",
"# 	c #A5A5A5",
"$ 	c #959595",
"% 	c #0437FF",
"& 	c #042FFF",
"* 	c #0431FF",
"= 	c #0434FF",
"- 	c #0538FF",
"; 	c #042DFF",
"> 	c #0530FF",
", 	c #0432FF",
"' 	c #0433FF",
") 	c #0438FF",
"! 	c #043EFF",
"~ 	c #064AFF",
"{ 	c #0436FF",
"] 	c #0342FF",
"^ 	c #0346FF",
"/ 	c #0349FF",
"( 	c #0345FF",
"_ 	c #0440FF",
": 	c #043AFF",
"< 	c #0441FF",
"[ 	c #0353FF",
"} 	c #0363FF",
"| 	c #0274FF",
"1 	c #0278FF",
"2 	c #0270FF",
"3 	c #0268FF",
"4 	c #0454FF",
"5 	c #0439FF",
"6 	c #0442FF",
"7 	c #0A31FE",
"8 	c #0435FF",
"9 	c #0347FF",
"0 	c #035DFF",
"a 	c #0279FF",
"b 	c #0193FF",
"c 	c #019BFF",
"d 	c #009BFF",
"e 	c #0198FF",
"f 	c #0195FF",
"g 	c #0185FF",
"h 	c #0264FF",
"i 	c #043CFF",
"j 	c #044AFF",
"k 	c #0E3AFE",
"l 	c #0183FF",
"m 	c #0199FF",
"n 	c #01A0FF",
"o 	c #0196FF",
"p 	c #0190FF",
"q 	c #009DFF",
"r 	c #0187FF",
"s 	c #035AFF",
"t 	c #043FFF",
"u 	c #0443FF",
"v 	c #0260FF",
"w 	c #0834FF",
"x 	c #043DFF",
"y 	c #0354FF",
"z 	c #0277FF",
"A 	c #009EFF",
"B 	c #019FFF",
"C 	c #018EFF",
"D 	c #026FFF",
"E 	c #025DFF",
"F 	c #0265FF",
"G 	c #026CFF",
"H 	c #018DFF",
"I 	c #019AFF",
"J 	c #017EFF",
"K 	c #0351FF",
"L 	c #0358FF",
"M 	c #036DFF",
"N 	c #0099FF",
"O 	c #00A1FF",
"P 	c #026AFF",
"Q 	c #035EFF",
"R 	c #0360FF",
"S 	c #018AFF",
"T 	c #0197FF",
"U 	c #0266FF",
"V 	c #034FFF",
"W 	c #0176FF",
"X 	c #0C46FF",
"Y 	c #009FFF",
"Z 	c #0267FF",
"` 	c #0359FF",
" .	c #0280FF",
"..	c #018CFF",
"+.	c #0189FF",
"@.	c #0186FF",
"#.	c #0361FF",
"$.	c #0275FF",
"%.	c #027CFF",
"&.	c #0343FF",
"*.	c #036FFF",
"=.	c #0549FF",
"-.	c #0093FF",
";.	c #00A3FF",
">.	c #0286FF",
",.	c #027EFF",
"'.	c #028AFF",
").	c #0184FF",
"!.	c #027DFF",
"~.	c #035CFF",
"{.	c #0194FF",
"].	c #0283FF",
"^.	c #0344FF",
"/.	c #026DFF",
"(.	c #034EFF",
"_.	c #0098FF",
":.	c #0273FF",
"<.	c #018BFF",
"[.	c #0374FF",
"}.	c #0173FF",
"|.	c #025EFF",
"1.	c #034AFF",
"2.	c #0276FF",
"3.	c #025BFF",
"4.	c #026EFF",
"5.	c #027AFF",
"6.	c #0175FF",
"7.	c #0181FF",
"8.	c #0191FF",
"9.	c #017AFF",
"0.	c #027BFF",
"a.	c #019EFF",
"b.	c #025FFF",
"c.	c #018FFF",
"d.	c #0269FF",
"e.	c #017CFF",
"f.	c #0263FF",
"g.	c #0281FF",
"h.	c #035FFF",
"i.	c #0282FF",
"j.	c #00A2FF",
"k.	c #00A0FF",
"l.	c #0258FF",
"m.	c #026BFF",
"n.	c #0365FF",
"o.	c #0271FF",
"p.	c #0444FF",
"q.	c #0262FF",
"r.	c #044FFF",
"s.	c #0362FF",
"t.	c #0188FF",
"u.	c #0256FF",
"v.	c #01A7FF",
"w.	c #0179FF",
"x.	c #009AFF",
"y.	c #00A6FF",
"z.	c #0192FF",
"A.	c #0446FF",
"B.	c #076BFF",
"C.	c #00A4FF",
"D.	c #0272FF",
"E.	c #0451FF",
"F.	c #0261FF",
"G.	c #0182FF",
"H.	c #0367FF",
"I.	c #034BFF",
"J.	c #0357FF",
"K.	c #025CFF",
"L.	c #0356FF",
"M.	c #0348FF",
"N.	c #0352FF",
"O.	c #11A8FD",
"P.	c #087BFE",
"Q.	c #00A7FF",
"R.	c #034DFF",
"S.	c #04A1FF",
"T.	c #0094FF",
"U.	c #00A9FF",
"V.	c #00A5FF",
"W.	c #027FFF",
"X.	c #01A4FF",
"Y.	c #019CFF",
"Z.	c #00AAFF",
"`.	c #01A9FF",
" +	c #00ABFF",
".+	c #00ACFF",
"++	c #04A7FF",
"@+	c #02AAFF",
"                                                                ",
"                                                                ",
"                        . + @ + @ + + .                         ",
"                    + + + # # @ # # # + + +                     ",
"                . + # # # $ $ $ $ $ $ # # # + .                 ",
"              . + # # $ % % & * = - % % $ # # + .               ",
"            . + # @ $ % ; > , ' = = ) ! ~ $ @ @ + .             ",
"          . + # @ $ % > { ] ^ / ( _ : { < % $ # @ + .           ",
"          + # # $ % = _ [ } | 1 2 3 4 _ 5 6 % $ # # +           ",
"        . + # $ 7 8 9 0 a b c d e f g h < i j % $ # + .         ",
"        + # # $ k < 0 l m n o p f m q r s t u v $ # # +         ",
"      . + # $ w x y z A B C D E F G H I J K t L $ # # + .       ",
"      . + # $ % 9 M N O r s s P h Q R S T U ! V W $ # + .       ",
"      + @ # $ X s r Y f Z `  ...+.@.#.$.I %.&.^ *.$ # # +       ",
"      + @ # $ =.3 -.;.>.y ,.'.$.W ).!.~.{.].9 ^./.$ # @ +       ",
"      @ # @ $ (.D _.n :.L <.| *.[.}.g |.C +.1./ | $ # @ +       ",
"      + @ # $ y 2.c Y /.3.H 4.5.1 6.7.R 8.].9 (.9.$ @ # @       ",
"      + @ # $ s 0.a.q F b.c.d.%.%. .e.f.{.!.^ y g.$ # @ +       ",
"      + # # $ h.i.j.k./.l.p :.m.a 9.n.o.T d.p.` r $ # @ +       ",
"      + # # $ q.g.O ;.| r.5...d.U s.D {.t.u./ 3 v.$ # # +       ",
"      . + # $ n.w.x.y.t.y h H c.+.g z.z.Z A.[ l v.$ # + .       ",
"      . + # $ B.5.{.C.N D.E.F.G.+.c. .h./ 1.1 e v.$ # + .       ",
"        + # # $ 1 C j.y.z.H.I.K J.K.L.M.N.G p O.$ # # +         ",
"        . + # $ P.t.B Q.C.<.P J.N.R.(.s z p S.v.$ # + .         ",
"          + # @ $ v.T.j.U.V.T r W.1 %.<.e X.Y $ @ # +           ",
"          . @ @ # $ v.Y.C.Z.U.V.j.B k.;.Z.v.$ @ # + .           ",
"            . + # # $ v.Y v.`. + + +.+v.v.$ # # + .             ",
"              . + # # $ v.v.++@+ +v.v.v.$ # # + .               ",
"                . + # # $ $ $ $ $ $ $ $ # # + .                 ",
"                    + # # # # # @ # # # # +                     ",
"                        . + + @ + @ + .                         ",
"                                                                "};
