/* XPM */
static char * flesh_door_closed_xpm[] = {
"32 32 18 1",
" 	c #FFD3AF",
".	c #FFB691",
"+	c #CC9174",
"@	c #CCA88C",
"#	c #DEA17B",
"$	c #CA926F",
"%	c #A5765E",
"&	c #E5A282",
"*	c #B78168",
"=	c #7F5A48",
"-	c #CA8F72",
";	c #F0B089",
">	c #A1725B",
",	c #FFD9AA",
"'	c #FFC199",
")	c #845E4B",
"!	c #E7A882",
"~	c #654839",
"  . .. .... ++@#$$+@+ . .......%",
"..&.. ...&&**$$$#$#$@+ .&&&&&&&=",
" &...&.&&&**$$#$$$##$*+&&-&-&-%=",
"..&.&.&.&+*$#$#$#$#$#$**-&---&-=",
".&.&.&&&**$#$$#;####$$$**-&-&-%=",
"..&.&&.&*;##$#$;;###$#$;>---&%-%",
" .&&.&&.*$$$$;;;;;;##$$$*-&&%-%=",
" ..&.&&**$####;;,';##$#$*>-&-%-=",
". &&&&&*;##$;;;',';;###$;*%--&-%",
" .&.&&.*$###$;;',';;;#$$$>-%&--=",
" .&&&.&*$$##;;;','';;$##$>%--&%=",
" ..&&&**$#$;#;;',';;##$#$>)-&&-=",
"....&&*;$##$;;'',''';##$$;>-&-%=",
". .&&.*$$#$#;;;',,';;;#$#$>&-%-=",
" ..&&&+$##$;;;',,,';;##$#$*---%=",
". &.&.*$####;!;,,,';;#;#$$*&---=",
" ..&&.*##$;;;;'',,';;##$#$*-&&-%",
"..&..&+$#$##;;',,'';#;###$>&-&-=",
". ...&*$####;!',,'!;$##$$;>-&&&%",
" .&&&.*;$$#;;;',,';;;###$>>&-&&=",
"...&.&*>$###;'',,!;;###$$>---&-=",
" .&.&&&*$#$#;;',,;!;;$#$$>--&&-%",
"...&&&&*;#;#;;'',';;$#$$;>--&-%=",
"..&&&&.**$#$;;;',';#;##$>*-&&%-=",
".&.&&&&&*$$##;;',';##$$$*&&&&-%=",
".&&&.&.&+;##$##;;;$#$#$;*&-&&--=",
"...&&.&.**$$#$;#;#####$*>-&&-&-%",
" .&.&&&&&>>$$$#$##$$$$>>-&-&&&&=",
"..&..&&&-&*>###$####$>)-%-&&&&&=",
" &.&&&&--%-**$$#$$$$)>-%----&--=",
".&&&---%%-%-*>*$$$>)>%---%-%--%=",
"%=======%=%===)~~)~============="};
