/* XPM */
static char * flesh_wall2_xpm[] = {
"32 32 13 1",
" 	c #FFD3AF",
".	c #FFB691",
"+	c #E5A282",
"@	c #A5765E",
"#	c #7F5A48",
"$	c #CA8F72",
"%	c #FFFFFF",
"&	c #F0F0F0",
"*	c #E0E0E0",
"=	c #800000",
"-	c #FF8080",
";	c #300000",
">	c #180000",
"  . .. ..+.  . .  . . . .......@",
"..+.. ..+.  ....++.. . .+++++++#",
" +...++$+.+..++++.+..+.++$+$+$@#",
"..+.+.$+.+$$+++$$+.++.++$+$$$+$#",
".+.+.++.++$..++.+$++.+.++$@@+$@#",
"..+.+$...$$+++++.$$++.++$@#@$+$@",
" .++.+.+.$+.+.+.++$$. +$+#@#@+@#",
" ..+.$+.+$++.$$$.$++ .$++$@$$.$#",
". ++$++.$+$+$$$@++.+ $$+$+$$+.$@",
" .+.++.+$$++@$@#.++. $+$+$++.$$#",
" .+$..+$$++.@@#@.+. .$$+$+..++@#",
" ..+.$$$+.++$@$+.$. $++$+$@$++$#",
"....$+$+$$+++$+..++. $++$@$$+$@#",
". .++.+.++$$....++.. ++$+$$+$@$#",
" ..+++.+.++$+$++.    ..++$+$$$@#",
". +.+.++$$+++..  %%%%    ..+$$$#",
" ..++.++$+$..  % ..+$$+++...++$@",
"..+..+.+$+. %...+$@@@####   ..$#",
". ...+++.   ..+$$@###&**+.  +++@",
" .+++.+. .++$$@##=-&&*.  .$+$++#",
"...+.  $+@@@@##;>>=-*$.$+$@$$+$#",
" .+   +@#####-=&>=$$$  @+@$@++$@",
"...++  ++#&&&&-=+$$  . $+$@$+$@#",
"..+$++.        .   .+$ .$+$++@$#",
".+.+$+$$++......++$+$+.  $$++$@#",
".+++.+.+..+++.++$$$++$++. .$$$$#",
"...++.+.+++..+$$$$++$+$+$$..$+$@",
" .+.$++++$$++$#@@$$.++$$$+$.+++#",
"..+..$$+$++$+$@#@++.+$@$@$+++++#",
" +.++$+$$@$++$$$+..$@$$@$$$$+$$#",
".+++$$$@@$@$+$++..$@$@$$$@$@$$@#",
"@#######@#@###@##@##############"};
