/* XPM */
static char * flesh_wall3_xpm[] = {
"32 32 11 1",
" 	c #FFD3AF",
".	c #FFB691",
"+	c #A5765E",
"@	c #E5A282",
"#	c #CA8F72",
"$	c #7F5A48",
"%	c #F0F0F0",
"&	c #FF8080",
"*	c #600000",
"=	c #800000",
"-	c #300000",
"  . .. .. . .  ...  ..   ......+",
"..@.. ...    ....@@#@#@@@@@@@@@$",
" @...@.@@@  .@@@#..@#@@#@#@#@#+$",
"..@.@.@.@.. @@@@##..@##@#@###@#$",
".@.@.@@@.@ ..@@.+#...@.@@#@#@#+$",
"..@.#@.@@@@@@@@@#+#@@.@@####@+#+",
" .@@#.@.@.@.@.@.+#+#.@@#@#@@+#+$",
" ..@+@..@@@@.@.@#+$#.@@@@##@#+#$",
". @@$@. @..@@.##+$+# #@@.@###@#+",
" .@ %$# .@@@.@#+$+$@ @@#@.@#@##$",
" .@ %$+.  ....@###+@ ##+#@..@@+$",
" .#%%&$+@     ..@@. .@#+#+#@.@#$",
"..#%&*=$#++#@@.@@.@.@@@@#+##@#+$",
". .#%=%*$$++###....#.@#@@#+@#+#$",
" ...##-=*+$$$+#+#.#+.@@#@#@###+$",
".  ..##&&%%%  .  @@@#.@@#@@@###$",
" .....##%% ###. .@#@@#.@@@@#@@#+",
"..@.  .####   .@..##@@@####@#@#$",
". ...@..    .@@#@.@#@@##@###@@@+",
" .@@@.@@@...@.@@# @####...#@#@@$",
"...@.@@#@.@@@@@@@. @##..@####@#$",
" .@.@@@##@@.@@@@##.   .##++#@@#+",
"...@@@#++#@@@.@@@#++$++#++##@#+$",
"..@@@#+$++##@.###@@#+$$$+@#@#+#$",
".@.@@#++$$+@..#@@@#@###@@@@#@#+$",
".@@@.#+$$++@ .@@###@@@.@@@#@@##$",
"...@@.+$+++. .@@@.@@#@@@##@@#@#+",
" .@..@#+++#@ @..@@#@@@#@@@#@@@@$",
"..@...@@#@  .@@@@#@@##@#@#@@#@@$",
" @.@@.    .@@@@#@@@#@@##@###@##$",
".@@@###@@@@#@#@@###@@####+#+##+$",
"+$$$$$$$+$+$$$+$$+$$$$$$$$$$$$$$"};
