/* XPM */
static char * flesh_door_open_xpm[] = {
"32 32 55 1",
" 	c None",
".	c #FFD3AF",
"+	c #FFB691",
"@	c #DCA184",
"#	c #DCB89C",
"$	c #DCA182",
"%	c #D9B396",
"&	c #A5765E",
"*	c #E5A282",
"=	c #C79178",
"-	c #DAA082",
";	c #DBA083",
">	c #C79177",
",	c #DCA183",
"'	c #7F5A48",
")	c #C79278",
"!	c #DCA284",
"~	c #CA8F72",
"{	c #C89278",
"]	c #C99278",
"^	c #DDA284",
"/	c #C79176",
"(	c #CA9379",
"_	c #DFA385",
":	c #CB9479",
"<	c #C69177",
"[	c #CB9379",
"}	c #B1826B",
"|	c #DEA284",
"1	c #B3836B",
"2	c #D79D7E",
"3	c #E0A385",
"4	c #B2826B",
"5	c #C49074",
"6	c #C79175",
"7	c #D89E7F",
"8	c #B4846B",
"9	c #DBA182",
"0	c #C99378",
"a	c #946E5B",
"b	c #D99E7F",
"c	c #CA9378",
"d	c #BC8B6F",
"e	c #D49A7A",
"f	c #B4836C",
"g	c #BC896C",
"h	c #C89174",
"i	c #B4836B",
"j	c #D19879",
"k	c #B5856C",
"l	c #B2836B",
"m	c #CD9678",
"n	c #C69176",
"o	c #936E5B",
"p	c #755849",
"..+.++.++++.@@#$%%@#@.+.+++++++&",
"++*++.+++**==-;;=>,-#@.+*******'",
".*+++*+***=>;==)=!=@;>@**~*~*~&'",
"++*+*+*+*@=>=={]]]^==;==~*~~~*~'",
"+*+*+***==/@!](_(((]@=-==~*~*~&'",
"++*+**+*=:<={(:   [({!>:}~~~*&~&",
".+**+**+=>>!]_     (|)>1=~**&~&'",
".++*+**==>==|(     (]==>=}~*~&~'",
"+.*****=2,,=]3     ({4=>5=&~~*~&",
".+*+**+=6{==^(     (]==}/}~&*~~'",
".+***+*=7>=@]_     [_{}<8}&~~*&'",
".++***==/9={_[      0{=}/}a~**~'",
"++++**=b/}={0       c])>1d}~*~&'",
"+.+**+=e>=)]_       f]=>]g}*~&~'",
".++***@h,==1(       (14>]h=~~~&'",
"+.*+*+=h]==](       i]4=1h=*~~~'",
".++**+=j]>4]3       f]=>]h=~**~&",
"++*++*@hk>=]3       11)=kg}*~*~'",
"+.+++*=h]}4](       0l4}/m}~***&",
".+***+=b>>=](      [04}<8}}*~**'",
"+++*+*=}>,=](      (14}//}~~~*~'",
".+*+***=>==|(      il4=l6}~~**~&",
"+++****=:=)]c      i1=>>2}~~*~&'",
"++****+==n4l0      i]4=1}=~**&~'",
"+*+*****=/@{][     (1=>>=****~&'",
"+***+*+*@@={{_     (]);:=*~**~~'",
"+++**+*+==>!^([   [(l=>=}~**~*~&",
".+*+*****}}==]__((i]==}}~*~****'",
"++*++***~*=}=={]]1{==}a~&~*****'",
".*+****~~&~>===4=)=}a}~&~~~~*~~'",
"+***~~~&&~&~=}=>}}}o}&~~~&~&~~&'",
"&'''''''&'&'''appap'''''''''''''"};
