/* XPM */
static char * flesh_wall4_xpm[] = {
"32 32 15 1",
" 	c #FFD3AF",
".	c #FFB691",
"+	c #E5A282",
"@	c #A5765E",
"#	c #CA8F72",
"$	c #7F5A48",
"%	c #FFFFFF",
"&	c #A0A0A0",
"*	c #F0F0F0",
"=	c #B0B0B0",
"-	c #D0D0D0",
";	c #600000",
">	c #300000",
",	c #A00000",
"'	c #C00000",
"  . .. ..+. .. .  . . . . ..+..@",
"..+.++..+#+++...++.. . .++ .#+#$",
" ###.+.+.+#+.++#+.+..+.++# .@#@$",
".#@@@###..##++#+++.++.+#++ .+@#$",
".@#@@@## .+..++.+#++.+.+##. .@@$",
".#@@#..+ ++.++. .++#+.++##+. +#@",
" +##++ .... ..+. ..+.++#+#++. @$",
" ++  . +.. . .. .####++++##++.#$",
". #...++. .++.+.+##@##++#+@##.#@",
" .#.++..+.++#@#@@@@@@@##+##@+##$",
" .++# . .##@@#+    .#+#+##@##+@$",
" .#++. ###%%%    .....+#+#@#++#$",
"..+.. + %%      .....+++####+#@$",
". #+..+%   &***=&**=+++++##+#@#$",
" .++++%  **=-%*-=*--=;;;>.+###@$",
". +.+  -&%*--%**-,,;;>>>.+#.###$",
" ..+  **=***--;,,;>>>>..+###+.#@",
"..+..-%*---;,,''',**...+###+#.#$",
". ...+**>>;,''**--=...##+#@#+.+@",
" .+++ >>>**=-**%&....+#+##@+#.+$",
"...+.+  -%*&-  .....+##++@@@#+#$",
" .+.+++%%      ..+++##+#+#@#++#@",
"...++####%%% ..@##@@#++++###+#@$",
"..++#+######+#@@@@##+#+##+#++@#$",
".+.++#++++###@@@@#@+#+...++++#@$",
".+++.+.. .++#######+...+++#++##$",
"...++.+ . ...#+++ .. .++##++#+#@",
" .+.+++++.  ... .. .++###+#++++$",
"..+..##+#++.. ... +++#@#@#+++++$",
" +.+#@+##@#++++#+++#@##@####+##$",
".++#@@#@@#@#+#++###@#@###@#@##@$",
"@$$$$$$$@$@$$$@$$@$$$$$$$$$$$$$$"};
