/* XPM */
static char * flesh_sprite_xpm[] = {
"32 32 22 1",
" 	c None",
".	c #000000",
"+	c #000000",
"@	c #310A03",
"#	c #501308",
"$	c #5793F7",
"%	c #5A3029",
"&	c #5C5A6D",
"*	c #773C31",
"=	c #8D8A94",
"-	c #A27258",
";	c #A56F5E",
">	c #B76224",
",	c #B9B1C0",
"'	c #CA8F72",
")	c #D1DAE0",
"!	c #E5A282",
"~	c #E89646",
"{	c #E8B85B",
"]	c #F0F9FF",
"^	c #FFB691",
"/	c #FFCEA3",
"            +++++               ",
"           +!^^!'+++            ",
"         ++!//^^!';'++          ",
"        +'*^^^^!!!;'!'+         ",
"      ++'*^////^^!';'^!+++      ",
"     +!''*%)$++$)'^;'!^;'!+     ",
"    +^/!';%!]$$]^^!''!!^/^^+    ",
"   +!/^^';%!!^^^^!''!'^///^!+   ",
"   +!^^^!;;!;%%;!!'!;!^/^^^^+   ",
"  +;!!!^^!;'^^^^!';;'^^^^^^^'+  ",
"  +'!^^'!/!;;**;;'!^!^^!''!^!+  ",
"  +!/^!;'//^'*;!!^/^^!*;'^^!'!+ ",
" +;^^!'*'^^^^'^^//^^^;**!/^^'!+ ",
" +'!';*%;!!^!!!^^^!''*;%!^^^!'+ ",
"+'^^'*%+*'!';*;'!!!';';%'!^^!!^+",
"+^^^!;+ +**;;'''';;;';;++;'!^^^+",
"+!^!'*+  +*;''!^^!''';+  +!^^^!+",
"+'!!;+   +##{{~''''';@+  +!^^^'+",
"+^!'*+   +@{>>>>###@@@+   +'^!;+",
"+!^^'+  +&&>>>>{@@@@&=&+  +!^^'+",
"+'^;'+ +&&=&>~{&===,=,=+ +^^^^^+",
" +''*++&=,=,=&&=&,=,,,,&++^!^^!+",
"  ++++&&&&&&,=&&&=&,=,==+ +!^++ ",
"     +&'^^!'&=&&&&&=&&=&&+ ++   ",
"     +=^/^^!;=&&&&&&&&&&&+      ",
"     +&!^!^^;&&&&&&&&=&=+       ",
"      +!!!^^;++&&&&=&***+++++   ",
"      +;''!'++++++++*****+++++++",
"      +'!!^;++++++++*!;!;!++++++",
"     +'^^!!'++++++++++++++++++  ",
"    +!;^'^'*++++                ",
"    +++++++++                   "};
