/* XPM */
static char * boggart_xpm[] = {
"32 32 22 1",
" 	c None",
".	c #FFFF00",
"+	c #E0E000",
"@	c #A0A000",
"#	c #C0C000",
"$	c #600000",
"%	c #800000",
"&	c #A5765E",
"*	c #CA8F72",
"=	c #FFB691",
"-	c #E5A282",
";	c #E0E0E0",
">	c #404040",
",	c #FFD3AF",
"'	c #7F5A48",
")	c #808000",
"!	c #F2C44D",
"~	c #000000",
"{	c #B0B0B0",
"]	c #909090",
"^	c #707070",
"/	c #A00000",
"                                ",
"                                ",
"                                ",
"               .                ",
"               .                ",
"              +.@               ",
"              +.#               ",
"             +.+#@              ",
"             +.+#@              ",
"            $..++#%             ",
"          ++#%%%%%#++           ",
"           $++++++#$            ",
"           %&&&****%            ",
"       ===-%&;;**;;%-===        ",
"         -&*&;>*,>;-&=          ",
"           %&*&*,,*%            ",
"          +#'&&*,=&'#+          ",
"         +#@)'''''&#@#+         ",
"      -*+@@)@#+@@@+@))#+        ",
"      &*#)) @#+.+.#   )#        ",
"      &*))   @#.+.#    *-       ",
"             @#.+##    *&       ",
"             %%!!%%             ",
"            #+.)+.#@            ",
"           #+..+++.#@   ~~~     ",
"            {]..++]{  ~~~~~~    ",
"            {]^~~^]{~~~~~~~~~   ",
"           //%$~~~%%/~~~~~~~~   ",
"        /   %/$~~~%/~~~~/~~~    ",
"        %/ $%/$~~~$%/~~%$~~     ",
"       ~~$$%//$~ ~$$$%%$~~      ",
"        ~~~~~~~   ~~~~~~~       "};
