/* XPM */
static char * portal_closed_xpm[] = {
"32 32 9 1",
" 	c None",
".	c #000000",
"+	c #000000",
"@	c #372D12",
"#	c #605020",
"$	c #806A2A",
"%	c #AA8834",
"&	c #F2C44D",
"*	c #F8E060",
"               ++               ",
"      +++++++ +**+ ++++++++     ",
"     +&&&&**&+####+&**&&&&+     ",
"    +#@@@@@@#%**%&*#@@@@@@#+    ",
"   +#&&&**&#@######@#&&**&&#+   ",
"  +#@@@@@@#***&%&*&%&#@@@@@@#+  ",
" +#&&&&*&#@@########@@#&*&&&&#+ ",
"+#@@@@@@#&*&%**&%**&%%&#@@@@@@#+",
" +++++++@@@########@#@@@+++++++ ",
"     +#&@#&++++++++++&#@&#+     ",
"    +#*@#&#+        +#&#@&#+    ",
"   +#&@#&#+          +#&#@&#+   ",
"   +#*#&#+            +#&@*#+   ",
"   +#*#&#+            +#&#*#+   ",
"   +#*#&#+            +#&#*#+   ",
"   +#&#&@+            +#&@&#+   ",
"   +#&#&@+            +#&@&#+   ",
"   +#&@&@+            +@&@&#+   ",
"  +#&@&@+              +@&@&#+  ",
" +#*@&@+                +@&@&#+ ",
" +#*#&@+                +@&@*#+ ",
" +#*#&@+                +#&#*#+ ",
" +#*#&@+                +#&#&#+ ",
" +#&#&#+                +#&#&#+ ",
" +#*#&#+                +#&#&#+ ",
" +#&#&#+                +#&#&#+ ",
" +#&@&#+                +@&@&#+ ",
"+#*@&#+   ++++++++++++   +@&@&#+",
"+&@&#&$+ +$*&*******&$+ +$&#&@&+",
"+*@&#$*$+$*@########@&$+$*$#&@*+",
"+&#&@+$*$&@*&*******&@*$*$+@&#&+",
" ++++@+$*@############@*$+@++++ "};
