/* XPM */
static char * runed_door_xpm[] = {
"32 32 540 2",
"  	c #091016",
". 	c #00030F",
"+ 	c #080F20",
"@ 	c #111A2A",
"# 	c #00060C",
"$ 	c #0A0D0D",
"% 	c #000000",
"& 	c #0A0A0A",
"* 	c #151515",
"= 	c #0A0A0D",
"- 	c #141818",
"; 	c #141A20",
"> 	c #090D18",
", 	c #080C1E",
"' 	c #00091A",
") 	c #081323",
"! 	c #000314",
"~ 	c #09101B",
"{ 	c #090A15",
"] 	c #415561",
"^ 	c #436476",
"/ 	c #3A576A",
"( 	c #4B6F7F",
"_ 	c #3C4750",
": 	c #585F63",
"< 	c #66686C",
"[ 	c #5D5D5D",
"} 	c #515151",
"| 	c #454545",
"1 	c #444747",
"2 	c #363E3E",
"3 	c #3D4952",
"4 	c #374E5A",
"5 	c #284258",
"6 	c #25445D",
"7 	c #1D3953",
"8 	c #213748",
"9 	c #243240",
"0 	c #000612",
"a 	c #0C93C0",
"b 	c #3F708A",
"c 	c #324E62",
"d 	c #394956",
"e 	c #4A5559",
"f 	c #5A5F5F",
"g 	c #444447",
"h 	c #686868",
"i 	c #434549",
"j 	c #40494E",
"k 	c #304049",
"l 	c #294056",
"m 	c #294F6F",
"n 	c #078DBF",
"o 	c #0773A4",
"p 	c #1B3954",
"q 	c #203249",
"r 	c #11202A",
"s 	c #3A5B6A",
"t 	c #396A81",
"u 	c #0D7CA6",
"v 	c #2A546F",
"w 	c #4D646C",
"x 	c #556164",
"y 	c #434747",
"z 	c #5C5C5F",
"A 	c #393939",
"B 	c #070707",
"C 	c #080808",
"D 	c #0E0E0E",
"E 	c #0F0F0F",
"F 	c #2D2D2D",
"G 	c #4F5155",
"H 	c #4A535B",
"I 	c #384B58",
"J 	c #27465C",
"K 	c #0991C0",
"L 	c #20587D",
"M 	c #068DC0",
"N 	c #204966",
"O 	c #1E3651",
"P 	c #07132D",
"Q 	c #0E95C2",
"R 	c #2A4F6F",
"S 	c #4D616C",
"T 	c #343D42",
"U 	c #373B3B",
"V 	c #2C2C2F",
"W 	c #090909",
"X 	c #190E0C",
"Y 	c #1C0F0E",
"Z 	c #1D100F",
"` 	c #111111",
" .	c #261411",
"..	c #2C2D32",
"+.	c #353E42",
"@.	c #44575F",
"#.	c #314F63",
"$.	c #28546F",
"%.	c #078EC1",
"&.	c #0878A9",
"*.	c #00091F",
"=.	c #121822",
"-.	c #536C76",
";.	c #3B596C",
">.	c #374956",
",.	c #323B44",
"'.	c #363B40",
").	c #1E100F",
"!.	c #2A1713",
"~.	c #241413",
"{.	c #2F1916",
"].	c #44231F",
"^.	c #2D1815",
"/.	c #211311",
"(.	c #080B0B",
"_.	c #2B3232",
":.	c #333E47",
"<.	c #405564",
"[.	c #2F4F67",
"}.	c #204663",
"|.	c #0A8EBB",
"1.	c #20344C",
"2.	c #101D32",
"3.	c #515F66",
"4.	c #566B76",
"5.	c #435561",
"6.	c #2A3237",
"7.	c #070A0A",
"8.	c #1C100E",
"9.	c #211211",
"0.	c #251513",
"a.	c #472520",
"b.	c #291816",
"c.	c #341D19",
"d.	c #181818",
"e.	c #63332C",
"f.	c #4A2722",
"g.	c #331C18",
"h.	c #271715",
"i.	c #2E1916",
"j.	c #1C1011",
"k.	c #070D13",
"l.	c #313E46",
"m.	c #2D4051",
"n.	c #2A4456",
"o.	c #314E5E",
"p.	c #334E5E",
"q.	c #081020",
"r.	c #000303",
"s.	c #4C5357",
"t.	c #5F6B6F",
"u.	c #2A2F34",
"v.	c #180E0C",
"w.	c #1E110F",
"x.	c #2C1815",
"y.	c #271614",
"z.	c #4C2823",
"A.	c #371E1A",
"B.	c #1A1A1A",
"C.	c #67352E",
"D.	c #4E2924",
"E.	c #2B1917",
"F.	c #231412",
"G.	c #1E1412",
"H.	c #18110F",
"I.	c #070814",
"J.	c #283237",
"K.	c #314049",
"L.	c #26343D",
"M.	c #303E47",
"N.	c #28323B",
"O.	c #131A20",
"P.	c #5B5D5D",
"Q.	c #646A6A",
"R.	c #2B2F2F",
"S.	c #0D0D0D",
"T.	c #1A1110",
"U.	c #201210",
"V.	c #321B18",
"W.	c #351D19",
"X.	c #2C1917",
"Y.	c #381F1B",
"Z.	c #4F2A25",
"`.	c #68362F",
" +	c #2C1A18",
".+	c #4D2924",
"++	c #281715",
"@+	c #201513",
"#+	c #190E13",
"$+	c #08080E",
"%+	c #0A0A10",
"&+	c #38383B",
"*+	c #08080B",
"=+	c #291613",
"-+	c #291715",
";+	c #2D1A18",
">+	c #7F4038",
",+	c #361E1A",
"'+	c #44231E",
")+	c #19110F",
"!+	c #383939",
"~+	c #2C2D2D",
"{+	c #151818",
"]+	c #060606",
"^+	c #170C0B",
"/+	c #271512",
"(+	c #43221E",
"_+	c #371F1B",
":+	c #492622",
"<+	c #1B0F0D",
"[+	c #2C1714",
"}+	c #472521",
"|+	c #3F201C",
"1+	c #030303",
"2+	c #251311",
"3+	c #42221E",
"4+	c #62322C",
"5+	c #66352E",
"6+	c #040404",
"7+	c #62322B",
"8+	c #4E2A28",
"9+	c #4B2722",
"0+	c #5B2C27",
"a+	c #09090C",
"b+	c #654D2A",
"c+	c #422324",
"d+	c #60352E",
"e+	c #653533",
"f+	c #4D2A2A",
"g+	c #663634",
"h+	c #4D2A25",
"i+	c #66362F",
"j+	c #191D1D",
"k+	c #7C403D",
"l+	c #663B34",
"m+	c #4C2C28",
"n+	c #643831",
"o+	c #633730",
"p+	c #623331",
"q+	c #5A332D",
"r+	c #644B27",
"s+	c #090C0C",
"t+	c #383B3B",
"u+	c #0F0F15",
"v+	c #4C3C25",
"w+	c #967A49",
"x+	c #B19558",
"y+	c #B3985B",
"z+	c #B4995C",
"A+	c #B49958",
"B+	c #9C8652",
"C+	c #A08953",
"D+	c #A0864E",
"E+	c #8C784A",
"F+	c #8B7748",
"G+	c #333428",
"H+	c #8B774C",
"I+	c #9E8755",
"J+	c #B0995C",
"K+	c #9A8754",
"L+	c #9C8952",
"M+	c #9C8851",
"N+	c #877349",
"O+	c #806B44",
"P+	c #4B3E28",
"Q+	c #0E1212",
"R+	c #434545",
"S+	c #080C12",
"T+	c #332F25",
"U+	c #3A3D31",
"V+	c #3D4339",
"W+	c #545743",
"X+	c #565A46",
"Y+	c #545844",
"Z+	c #57583F",
"`+	c #434439",
" @	c #434839",
".@	c #414839",
"+@	c #2D3432",
"@@	c #7B7A54",
"#@	c #41483D",
"$@	c #40463B",
"%@	c #525848",
"&@	c #525A46",
"*@	c #505849",
"=@	c #535646",
"-@	c #3E4537",
";@	c #383A33",
">@	c #322F25",
",@	c #424549",
"'@	c #2C2F2F",
")@	c #081117",
"!@	c #202327",
"~@	c #1C2139",
"{@	c #1D283F",
"]@	c #252C45",
"^@	c #1F2940",
"/@	c #1F273E",
"(@	c #262943",
"_@	c #20253C",
":@	c #21243B",
"<@	c #20273E",
"[@	c #1F2C43",
"}@	c #122C44",
"|@	c #484458",
"1@	c #272E43",
"2@	c #1D2A45",
"3@	c #1C2A49",
"4@	c #232B4A",
"5@	c #1C2A45",
"6@	c #1E2940",
"7@	c #1E283F",
"8@	c #22273C",
"9@	c #1F292D",
"0@	c #080F1A",
"a@	c #151518",
"b@	c #38393E",
"c@	c #292F34",
"d@	c #030C18",
"e@	c #161E32",
"f@	c #182949",
"g@	c #0687B9",
"h@	c #293E63",
"i@	c #193154",
"j@	c #183156",
"k@	c #0788BA",
"l@	c #2C3F5F",
"m@	c #1A2F53",
"n@	c #203355",
"o@	c #193159",
"p@	c #0488BB",
"q@	c #374C6C",
"r@	c #2B3F5E",
"s@	c #0588BC",
"t@	c #1B335E",
"u@	c #253F66",
"v@	c #1D355C",
"w@	c #1D3558",
"x@	c #182D51",
"y@	c #0A8BB8",
"z@	c #151C39",
"A@	c #030C1E",
"B@	c #3E4750",
"C@	c #373B40",
"D@	c #43474C",
"E@	c #333B44",
"F@	c #031020",
"G@	c #141E3B",
"H@	c #098BBA",
"I@	c #142F61",
"J@	c #098DC2",
"K@	c #143464",
"L@	c #183866",
"M@	c #0976AA",
"N@	c #243F6A",
"O@	c #1B3560",
"P@	c #25436B",
"Q@	c #0690C0",
"R@	c #0B3869",
"S@	c #0E97C6",
"T@	c #2F4E71",
"U@	c #244169",
"V@	c #17376A",
"W@	c #0589C2",
"X@	c #0875AD",
"Y@	c #123565",
"Z@	c #193564",
"`@	c #098EC0",
" #	c #142E5D",
".#	c #098CBB",
"+#	c #1A2743",
"@#	c #030D23",
"##	c #47535B",
"$#	c #000003",
"%#	c #4E5353",
"&#	c #1A213E",
"*#	c #31415E",
"=#	c #0673A5",
"-#	c #214070",
";#	c #183A68",
">#	c #058FC3",
",#	c #204670",
"'#	c #0B94C5",
")#	c #193D6A",
"!#	c #098EC3",
"~#	c #214872",
"{#	c #0B356B",
"]#	c #355981",
"^#	c #0B90C4",
"/#	c #23426D",
"(#	c #173869",
"_#	c #0876AC",
":#	c #0A8FC5",
"<#	c #16376B",
"[#	c #223D69",
"}#	c #23426A",
"|#	c #0672A4",
"1#	c #24395B",
"2#	c #030F20",
"3#	c #48555D",
"4#	c #4D5155",
"5#	c #3F494D",
"6#	c #071122",
"7#	c #1C243B",
"8#	c #0D8DBA",
"9#	c #263B63",
"0#	c #0C90C2",
"a#	c #1A3A64",
"b#	c #098EC1",
"c#	c #2F4A71",
"d#	c #0C91C4",
"e#	c #1B3964",
"f#	c #24416D",
"g#	c #0B92C4",
"h#	c #0373A7",
"i#	c #0E93C4",
"j#	c #314A6D",
"k#	c #273F66",
"l#	c #098CBE",
"m#	c #2F4A6D",
"n#	c #2E4870",
"o#	c #098CBF",
"p#	c #263F67",
"q#	c #0C90BF",
"r#	c #273B5F",
"s#	c #0D8CBA",
"t#	c #1B2139",
"u#	c #070F1F",
"v#	c #4E5357",
"w#	c #5B5D61",
"x#	c #081217",
"y#	c #51513D",
"z#	c #403A4B",
"A#	c #403E53",
"B#	c #3F455D",
"C#	c #303B56",
"D#	c #2E3E58",
"E#	c #3F465E",
"F#	c #3E4861",
"G#	c #313954",
"H#	c #3E445C",
"I#	c #3D4860",
"J#	c #0F2A50",
"K#	c #3E4662",
"L#	c #40445C",
"M#	c #424458",
"N#	c #3F415A",
"O#	c #42445C",
"P#	c #404659",
"Q#	c #423F53",
"R#	c #515141",
"S#	c #08121D",
"T#	c #35393E",
"U#	c #505353",
"V#	c #0E1218",
"W#	c #464332",
"X#	c #726E4C",
"Y#	c #979965",
"Z#	c #939D6A",
"`#	c #949E6B",
" $	c #7E8D68",
".$	c #828D64",
"+$	c #7F8E66",
"@$	c #828A64",
"#$	c #707B5F",
"$$	c #6E7B5E",
"%$	c #293739",
"&$	c #909E6B",
"*$	c #727A58",
"=$	c #858A60",
"-$	c #969D69",
";$	c #949C67",
">$	c #828A60",
",$	c #838B61",
"'$	c #84855B",
")$	c #716E4C",
"!$	c #444444",
"~$	c #4F5151",
"{$	c #372F21",
"]$	c #3F3B29",
"^$	c #434132",
"/$	c #5A5740",
"($	c #5B5840",
"_$	c #5A5642",
":$	c #5A563D",
"<$	c #454637",
"[$	c #444334",
"}$	c #444636",
"|$	c #302F2D",
"1$	c #817650",
"2$	c #454131",
"3$	c #464334",
"4$	c #5C563D",
"5$	c #444031",
"6$	c #444330",
"7$	c #3F3A29",
"8$	c #383838",
"9$	c #676767",
"0$	c #0F1212",
"a$	c #272012",
"b$	c #2F1E1A",
"c$	c #342122",
"d$	c #2B1A1D",
"e$	c #2B1F1D",
"f$	c #2A1D20",
"g$	c #181D22",
"h$	c #623831",
"i$	c #351F20",
"j$	c #2B1D20",
"k$	c #362223",
"l$	c #291C1F",
"m$	c #251917",
"n$	c #261F12",
"o$	c #2C2C2C",
"p$	c #5E2F2C",
"q$	c #64362F",
"r$	c #673831",
"s$	c #4E2C28",
"t$	c #1A1D1D",
"u$	c #7E423A",
"v$	c #673531",
"w$	c #663731",
"x$	c #64332F",
"y$	c #5D2E2C",
"z$	c #281512",
"A$	c #2A1613",
"B$	c #482521",
"C$	c #67352F",
"D$	c #5E2F29",
"E$	c #0B0B0B",
"F$	c #221311",
"G$	c #66342E",
"H$	c #45231F",
"I$	c #1F1110",
"J$	c #212121",
"K$	c #351D1A",
"L$	c #4B2823",
"M$	c #301A17",
"N$	c #2A1816",
"O$	c #321C18",
"  . + @ + . # $ $ % & & % & * * & & & & % & = - ; > , ' ) ! ~ { ",
"> ] ^ / ( ] _ : < [ } [ } | [ } [ | [ } | } 1 2 3 4 5 6 7 8 9 0 ",
"+ ( a b a c d e f g } h [ | | [ [ } [ h [ [ i j k l m n o p q ' ",
"r s t u v s w x y z A A B C D E E D C B F A G H I J K L M N O P ",
"+ ( Q R a ( S T U V B W X Y Z `  .Z Y X W B ..+.@.#.$.%.&.N O *.",
"=.-.;./ ^ >.,.'...C X ).!.~.{.* ].{.^./.).X (._.:.<.[.m }.|.1.2.",
"  3.4.5.d ,.6.7.$ 8.9.0.a.b.c.d.e.f.g.h.i.9.j.$ k.l.m.n.o.p.9 q.",
"r.s.x t.T u.(.v.w.x.y.b.z.A.A.B.C.D.A.E.f.y.F.G.H.I.J.K.L.M.N.O.",
"$ P.Q.y R.S.T.U.0.V.W.X.D.Y.Z.B.`.Z.Z. +.+W.++i.@+#+$+u.+.6.'.%+",
"% } g &+*+X =+{.-+z.A.;+`.Y.Z.B.>+Z.Z.Y.Z.D.,+g.'+U.)+C !+i ~+{+",
"% h } ]+^+/+(+g.E.D.Y.Y.`.Y.Z.B.>+Z.`.Y.`.Z._+z.:+0./+^+]+A A * ",
"% } | C <+[+}+z._+`.Z.Y.`.Z.`.B.>+Z.`.Y.`.Z.Y.C.z.++|+<+C A | * ",
"& [ h 1+2+3+4+.+Y.`.Z.Y.`.Z.`.B.>+Z.`.Y.`.Z.Z.`.5+c.3+Z 1+F F * ",
"* [ | 6+ .].7+C.Y.`.C.Z.`.Z.`.B.>+Z.C.8+C.C.8+C.C.9+0+ .6+A F * ",
"* [ } a+b+c+d+e+f+g+g+h+i+h+g+j+k+g+l+m+n+n+m+n+o+p+q+r+s+&+F & ",
"& } t+u+v+w+x+y+z+A+B+C+D+E+F+G+z+H+I+J+J+J+K+L+M+N+O+P+Q+R+&+& ",
"& &+..S+T+U+V+W+X+Y+Y+Z+`+ @.@+@@@#@$@%@&@*@&@=@W+-@;@>@S+,@'@& ",
"% '@2 )@!@~@{@]@^@/@(@_@:@<@[@}@|@1@1@2@3@4@5@6@]@7@8@9@0@+...a@",
"% b@c@d@e@f@g@h@i@j@k@l@m@n@o@p@q@r@r@s@t@u@s@v@w@x@y@z@A@B@C@a@",
"= D@E@F@G@H@I@J@K@L@M@N@O@P@Q@R@S@T@U@V@W@X@Y@Z@`@ #.#+#@###,@$ ",
"$#%#B@F@&#*#=#-#;#>#,#'#)#!#~#{#]#^#/#(#_#:#<#[#}#|#1#&#2#3#4#= ",
"= f 5#6#7#8#9#0#a#b#c#d#e#f#g#h#i#j#k#l#m#n#o#p#q#r#s#t#u#E@v#$#",
"% w#s.x#y#z#A#B#C#D#E#F#G#H#I#J#K#L#M#L#N#E#E#O#P#Q#z#R#S#T#G = ",
"& U#Q.V#W#X#Y#Z#`# $.$+$@$#$$$%$&$*$=$-$-$;$>$=$,$'$)$W#V#C@1 * ",
"& !$~$s+{$]$^$/$($_$($:$<$[$}$|$1$2$3$4$4$4$2$3$5$6$7${$s+~+8$* ",
"* A 9$0$a$b$c$d$d$e$d$e$d$d$f$g$h$i$d$d$j$k$i$i$d$l$m$n$0$o$A & ",
"& A } & =+p$q$r$s$r$r$r$r$r$r$t$u$r$v$v$v$v$r$r$w$x$y$z$& F F % ",
"* A | & A$B$.+C$Y.`.`.Z.Z.`.Z.B.>+Z.`.Z.`.Z.`.Z.C.z.D$z$& F F & ",
"& A A E$F$B$z.C.Y.`.Z.Y.Z.`.Y.B.>+Z.Z.Z.Z.Y.Z.D.G$c.H$I$W J$F * ",
"& A A ` /.a.K$D.Y.Z.Y.;+Y.Z.Y.B.`.Y.Z.Y.Z.;+Y.A.L$++^.Z D J$J$& ",
"* F J$& z$M$N$A.;+;+Y.;+Y.Y.;+B.`.;+Y.;+Y.;+_+E.O$0.U.X B J$J$* ",
"& * & 6+% % % % % % % % % % % % % % % % % % % % % % % % ]+& * & "};
