/* XPM */
static char * cloud_poison0_xpm[] = {
"32 32 15 1",
" 	c None",
".	c #006000",
"+	c #306030",
"@	c #008000",
"#	c #408040",
"$	c #00A000",
"%	c #00C000",
"&	c #00E000",
"*	c #60C060",
"=	c #00FF00",
"-	c #70E070",
";	c #50A050",
">	c #70E000",
",	c #80FF80",
"'	c #400080",
"                                ",
"                                ",
"   .                            ",
"  .+@ @..                       ",
"  .#$@@#.        @              ",
"  @@@ ..@     $$$@..            ",
"  .@ .      @%%%&%&  ..@@     . ",
"  .         $%*&&=%&$%$+@.      ",
" . ..       @%===&-&&$%@@       ",
"    .     @@$;&&&&%==%@@        ",
"       $@;@@%%&;&%=;=&$   .  .  ",
"      .@=%=$%$$=&=&&&%@ . ...   ",
"      +;=-&&%$&&-&&&&$$@.@ @    ",
"      %$*&=&&===*&==%%$.#@@     ",
"       &@&%====>,====$.$.@@     ",
"..   .+.%@&&-,,*,=-,&%#@$. .   .",
"@@+   @  $&&==&=-===&&%@..  @  @",
" @     .@&%&=&=&*&=&$$$+.@      ",
".      @$$*%=&==,&=$@ @.  @  .  ",
" .      @&$&@&%===$$$$..   @  ..",
"@      .@@&@%.@&=$$%&@+.@ + $  .",
"       .@$@$@@@%#$%;$@..     .  ",
" .@     @.@@@  .@@@@.   .       ",
"         .... . . .             ",
"          .@   .@.              ",
"            @...@               ",
"           @@@$.                ",
"           .#$@'                ",
"           .@@@@$               ",
"          .  . @                ",
"                                ",
"                     +          "};
